<svg width="563" height="373" viewBox="0 0 563 373" fill="none" xmlns="http://www.w3.org/2000/svg">
<rect x="563" width="373" height="563" rx="25" transform="rotate(90 563 0)" fill="#88B6FF"/>
<rect x="563" width="373" height="563" rx="25" transform="rotate(90 563 0)" fill="url(#paint0_linear_19_3)" fill-opacity="0.2"/>
<path d="M67.75 48.55V66H64.25V54.65L59.575 66H56.925L52.225 54.65V66H48.725V48.55H52.7L58.25 61.525L63.8 48.55H67.75ZM70.3104 59.025C70.3104 57.625 70.5854 56.3833 71.1354 55.3C71.702 54.2167 72.4604 53.3833 73.4104 52.8C74.377 52.2167 75.452 51.925 76.6354 51.925C77.6687 51.925 78.5687 52.1333 79.3354 52.55C80.1187 52.9667 80.7437 53.4917 81.2104 54.125V52.15H84.7354V66H81.2104V63.975C80.7604 64.625 80.1354 65.1667 79.3354 65.6C78.552 66.0167 77.6437 66.225 76.6104 66.225C75.4437 66.225 74.377 65.925 73.4104 65.325C72.4604 64.725 71.702 63.8833 71.1354 62.8C70.5854 61.7 70.3104 60.4417 70.3104 59.025ZM81.2104 59.075C81.2104 58.225 81.0437 57.5 80.7104 56.9C80.377 56.2833 79.927 55.8167 79.3604 55.5C78.7937 55.1667 78.1854 55 77.5354 55C76.8854 55 76.2854 55.1583 75.7354 55.475C75.1854 55.7917 74.7354 56.2583 74.3854 56.875C74.052 57.475 73.8854 58.1917 73.8854 59.025C73.8854 59.8583 74.052 60.5917 74.3854 61.225C74.7354 61.8417 75.1854 62.3167 75.7354 62.65C76.302 62.9833 76.902 63.15 77.5354 63.15C78.1854 63.15 78.7937 62.9917 79.3604 62.675C79.927 62.3417 80.377 61.875 80.7104 61.275C81.0437 60.6583 81.2104 59.925 81.2104 59.075ZM91.6537 54.3C92.1037 53.5667 92.687 52.9917 93.4037 52.575C94.137 52.1583 94.9704 51.95 95.9037 51.95V55.625H94.9787C93.8787 55.625 93.0454 55.8833 92.4787 56.4C91.9287 56.9167 91.6537 57.8167 91.6537 59.1V66H88.1537V52.15H91.6537V54.3ZM97.3611 59.075C97.3611 57.6417 97.6528 56.3917 98.2361 55.325C98.8195 54.2417 99.6278 53.4083 100.661 52.825C101.694 52.225 102.878 51.925 104.211 51.925C105.928 51.925 107.344 52.3583 108.461 53.225C109.594 54.075 110.353 55.275 110.736 56.825H106.961C106.761 56.225 106.419 55.7583 105.936 55.425C105.469 55.075 104.886 54.9 104.186 54.9C103.186 54.9 102.394 55.2667 101.811 56C101.228 56.7167 100.936 57.7417 100.936 59.075C100.936 60.3917 101.228 61.4167 101.811 62.15C102.394 62.8667 103.186 63.225 104.186 63.225C105.603 63.225 106.528 62.5917 106.961 61.325H110.736C110.353 62.825 109.594 64.0167 108.461 64.9C107.328 65.7833 105.911 66.225 104.211 66.225C102.878 66.225 101.694 65.9333 100.661 65.35C99.6278 64.75 98.8195 63.9167 98.2361 62.85C97.6528 61.7667 97.3611 60.5083 97.3611 59.075ZM112.4 59.025C112.4 57.625 112.675 56.3833 113.225 55.3C113.792 54.2167 114.55 53.3833 115.5 52.8C116.467 52.2167 117.542 51.925 118.725 51.925C119.759 51.925 120.659 52.1333 121.425 52.55C122.209 52.9667 122.834 53.4917 123.3 54.125V52.15H126.825V66H123.3V63.975C122.85 64.625 122.225 65.1667 121.425 65.6C120.642 66.0167 119.734 66.225 118.7 66.225C117.534 66.225 116.467 65.925 115.5 65.325C114.55 64.725 113.792 63.8833 113.225 62.8C112.675 61.7 112.4 60.4417 112.4 59.025ZM123.3 59.075C123.3 58.225 123.134 57.5 122.8 56.9C122.467 56.2833 122.017 55.8167 121.45 55.5C120.884 55.1667 120.275 55 119.625 55C118.975 55 118.375 55.1583 117.825 55.475C117.275 55.7917 116.825 56.2583 116.475 56.875C116.142 57.475 115.975 58.1917 115.975 59.025C115.975 59.8583 116.142 60.5917 116.475 61.225C116.825 61.8417 117.275 62.3167 117.825 62.65C118.392 62.9833 118.992 63.15 119.625 63.15C120.275 63.15 120.884 62.9917 121.45 62.675C122.017 62.3417 122.467 61.875 122.8 61.275C123.134 60.6583 123.3 59.925 123.3 59.075ZM136.169 63.225C137.585 63.225 138.51 62.5917 138.944 61.325H142.719C142.369 62.675 141.719 63.775 140.769 64.625C139.835 65.475 138.66 65.9833 137.244 66.15V67.125C138.16 67.125 138.927 67.3583 139.544 67.825C140.177 68.2917 140.494 68.9667 140.494 69.85C140.494 70.75 140.169 71.4417 139.519 71.925C138.885 72.4083 138.102 72.65 137.169 72.65H133.619V70.6H136.594C136.994 70.6 137.294 70.5417 137.494 70.425C137.71 70.3083 137.819 70.1 137.819 69.8C137.819 69.5 137.71 69.2917 137.494 69.175C137.294 69.075 136.994 69.025 136.594 69.025H135.044V66.15C133.91 65.9833 132.91 65.5917 132.044 64.975C131.194 64.3417 130.527 63.525 130.044 62.525C129.577 61.5083 129.344 60.3583 129.344 59.075C129.344 57.6417 129.635 56.3917 130.219 55.325C130.802 54.2417 131.61 53.4083 132.644 52.825C133.677 52.225 134.86 51.925 136.194 51.925C137.91 51.925 139.327 52.3583 140.444 53.225C141.577 54.075 142.335 55.275 142.719 56.825H138.944C138.744 56.225 138.402 55.7583 137.919 55.425C137.452 55.075 136.869 54.9 136.169 54.9C135.169 54.9 134.377 55.2667 133.794 56C133.21 56.7167 132.919 57.7417 132.919 59.075C132.919 60.3917 133.21 61.4167 133.794 62.15C134.377 62.8667 135.169 63.225 136.169 63.225ZM151.433 66.225C150.099 66.225 148.899 65.9333 147.833 65.35C146.766 64.75 145.924 63.9083 145.308 62.825C144.708 61.7417 144.408 60.4917 144.408 59.075C144.408 57.6583 144.716 56.4083 145.333 55.325C145.966 54.2417 146.824 53.4083 147.908 52.825C148.991 52.225 150.199 51.925 151.533 51.925C152.866 51.925 154.074 52.225 155.158 52.825C156.241 53.4083 157.091 54.2417 157.708 55.325C158.341 56.4083 158.658 57.6583 158.658 59.075C158.658 60.4917 158.333 61.7417 157.683 62.825C157.049 63.9083 156.183 64.75 155.083 65.35C153.999 65.9333 152.783 66.225 151.433 66.225ZM151.433 63.175C152.066 63.175 152.658 63.025 153.208 62.725C153.774 62.4083 154.224 61.9417 154.558 61.325C154.891 60.7083 155.058 59.9583 155.058 59.075C155.058 57.7583 154.708 56.75 154.008 56.05C153.324 55.3333 152.483 54.975 151.483 54.975C150.483 54.975 149.641 55.3333 148.958 56.05C148.291 56.75 147.958 57.7583 147.958 59.075C147.958 60.3917 148.283 61.4083 148.933 62.125C149.599 62.825 150.433 63.175 151.433 63.175ZM147.183 50.65C147.333 49.55 147.674 48.7333 148.208 48.2C148.758 47.65 149.449 47.375 150.283 47.375C150.633 47.375 150.941 47.4333 151.208 47.55C151.474 47.65 151.774 47.8 152.108 48C152.608 48.3167 153.024 48.475 153.358 48.475C153.974 48.475 154.333 48.1167 154.433 47.4H156.308C156.158 48.5 155.808 49.325 155.258 49.875C154.724 50.4083 154.041 50.675 153.208 50.675C152.858 50.675 152.549 50.625 152.283 50.525C152.016 50.4083 151.716 50.25 151.383 50.05C150.899 49.7167 150.483 49.55 150.133 49.55C149.516 49.55 149.149 49.9167 149.033 50.65H147.183ZM174.1 58.775C174.1 59.275 174.067 59.725 174 60.125H163.875C163.958 61.125 164.308 61.9083 164.925 62.475C165.542 63.0417 166.3 63.325 167.2 63.325C168.5 63.325 169.425 62.7667 169.975 61.65H173.75C173.35 62.9833 172.583 64.0833 171.45 64.95C170.317 65.8 168.925 66.225 167.275 66.225C165.942 66.225 164.742 65.9333 163.675 65.35C162.625 64.75 161.8 63.9083 161.2 62.825C160.617 61.7417 160.325 60.4917 160.325 59.075C160.325 57.6417 160.617 56.3833 161.2 55.3C161.783 54.2167 162.6 53.3833 163.65 52.8C164.7 52.2167 165.908 51.925 167.275 51.925C168.592 51.925 169.767 52.2083 170.8 52.775C171.85 53.3417 172.658 54.15 173.225 55.2C173.808 56.2333 174.1 57.425 174.1 58.775ZM170.475 57.775C170.458 56.875 170.133 56.1583 169.5 55.625C168.867 55.075 168.092 54.8 167.175 54.8C166.308 54.8 165.575 55.0667 164.975 55.6C164.392 56.1167 164.033 56.8417 163.9 57.775H170.475ZM181.955 66.225C180.821 66.225 179.805 66.025 178.905 65.625C178.005 65.2083 177.288 64.65 176.755 63.95C176.238 63.25 175.955 62.475 175.905 61.625H179.43C179.496 62.1583 179.755 62.6 180.205 62.95C180.671 63.3 181.246 63.475 181.93 63.475C182.596 63.475 183.113 63.3417 183.48 63.075C183.863 62.8083 184.055 62.4667 184.055 62.05C184.055 61.6 183.821 61.2667 183.355 61.05C182.905 60.8167 182.18 60.5667 181.18 60.3C180.146 60.05 179.296 59.7917 178.63 59.525C177.98 59.2583 177.413 58.85 176.93 58.3C176.463 57.75 176.23 57.0083 176.23 56.075C176.23 55.3083 176.446 54.6083 176.88 53.975C177.33 53.3417 177.963 52.8417 178.78 52.475C179.613 52.1083 180.588 51.925 181.705 51.925C183.355 51.925 184.671 52.3417 185.655 53.175C186.638 53.9917 187.18 55.1 187.28 56.5H183.93C183.88 55.95 183.646 55.5167 183.23 55.2C182.83 54.8667 182.288 54.7 181.605 54.7C180.971 54.7 180.48 54.8167 180.13 55.05C179.796 55.2833 179.63 55.6083 179.63 56.025C179.63 56.4917 179.863 56.85 180.33 57.1C180.796 57.3333 181.521 57.575 182.505 57.825C183.505 58.075 184.33 58.3333 184.98 58.6C185.63 58.8667 186.188 59.2833 186.655 59.85C187.138 60.4 187.388 61.1333 187.405 62.05C187.405 62.85 187.18 63.5667 186.73 64.2C186.296 64.8333 185.663 65.3333 184.83 65.7C184.013 66.05 183.055 66.225 181.955 66.225Z" fill="white"/>
<path d="M54.084 89.242V90.278H51.424V99H50.15V90.278H47.476V89.242H54.084ZM58.9982 99.126C58.2796 99.126 57.6262 98.9627 57.0382 98.636C56.4596 98.3093 56.0022 97.8473 55.6662 97.25C55.3396 96.6433 55.1762 95.9433 55.1762 95.15C55.1762 94.366 55.3442 93.6753 55.6802 93.078C56.0256 92.4713 56.4922 92.0093 57.0802 91.692C57.6682 91.3653 58.3262 91.202 59.0542 91.202C59.7822 91.202 60.4402 91.3653 61.0282 91.692C61.6162 92.0093 62.0782 92.4667 62.4142 93.064C62.7596 93.6613 62.9322 94.3567 62.9322 95.15C62.9322 95.9433 62.7549 96.6433 62.4002 97.25C62.0549 97.8473 61.5836 98.3093 60.9862 98.636C60.3889 98.9627 59.7262 99.126 58.9982 99.126ZM58.9982 98.006C59.4556 98.006 59.8849 97.8987 60.2862 97.684C60.6876 97.4693 61.0096 97.1473 61.2522 96.718C61.5042 96.2887 61.6302 95.766 61.6302 95.15C61.6302 94.534 61.5089 94.0113 61.2662 93.582C61.0236 93.1527 60.7062 92.8353 60.3142 92.63C59.9222 92.4153 59.4976 92.308 59.0402 92.308C58.5736 92.308 58.1442 92.4153 57.7522 92.63C57.3696 92.8353 57.0616 93.1527 56.8282 93.582C56.5949 94.0113 56.4782 94.534 56.4782 95.15C56.4782 95.7753 56.5902 96.3027 56.8142 96.732C57.0476 97.1613 57.3556 97.4833 57.7382 97.698C58.1209 97.9033 58.5409 98.006 58.9982 98.006ZM64.1313 95.136C64.1313 94.352 64.29 93.666 64.6073 93.078C64.9246 92.4807 65.3586 92.0187 65.9093 91.692C66.4693 91.3653 67.0946 91.202 67.7853 91.202C68.3826 91.202 68.938 91.342 69.4513 91.622C69.9646 91.8927 70.3566 92.252 70.6273 92.7V88.64H71.9153V99H70.6273V97.558C70.3753 98.0153 70.002 98.3933 69.5073 98.692C69.0126 98.9813 68.434 99.126 67.7713 99.126C67.09 99.126 66.4693 98.958 65.9093 98.622C65.3586 98.286 64.9246 97.8147 64.6073 97.208C64.29 96.6013 64.1313 95.9107 64.1313 95.136ZM70.6273 95.15C70.6273 94.5713 70.5106 94.0673 70.2773 93.638C70.044 93.2087 69.7266 92.882 69.3253 92.658C68.9333 92.4247 68.4993 92.308 68.0233 92.308C67.5473 92.308 67.1133 92.42 66.7213 92.644C66.3293 92.868 66.0166 93.1947 65.7833 93.624C65.55 94.0533 65.4333 94.5573 65.4333 95.136C65.4333 95.724 65.55 96.2373 65.7833 96.676C66.0166 97.1053 66.3293 97.4367 66.7213 97.67C67.1133 97.894 67.5473 98.006 68.0233 98.006C68.4993 98.006 68.9333 97.894 69.3253 97.67C69.7266 97.4367 70.044 97.1053 70.2773 96.676C70.5106 96.2373 70.6273 95.7287 70.6273 95.15ZM77.4142 99.126C76.6956 99.126 76.0422 98.9627 75.4542 98.636C74.8756 98.3093 74.4182 97.8473 74.0822 97.25C73.7556 96.6433 73.5922 95.9433 73.5922 95.15C73.5922 94.366 73.7602 93.6753 74.0962 93.078C74.4416 92.4713 74.9082 92.0093 75.4962 91.692C76.0842 91.3653 76.7422 91.202 77.4702 91.202C78.1982 91.202 78.8562 91.3653 79.4442 91.692C80.0322 92.0093 80.4942 92.4667 80.8302 93.064C81.1756 93.6613 81.3482 94.3567 81.3482 95.15C81.3482 95.9433 81.1709 96.6433 80.8162 97.25C80.4709 97.8473 79.9996 98.3093 79.4022 98.636C78.8049 98.9627 78.1422 99.126 77.4142 99.126ZM77.4142 98.006C77.8716 98.006 78.3009 97.8987 78.7022 97.684C79.1036 97.4693 79.4256 97.1473 79.6682 96.718C79.9202 96.2887 80.0462 95.766 80.0462 95.15C80.0462 94.534 79.9249 94.0113 79.6822 93.582C79.4396 93.1527 79.1222 92.8353 78.7302 92.63C78.3382 92.4153 77.9136 92.308 77.4562 92.308C76.9896 92.308 76.5602 92.4153 76.1682 92.63C75.7856 92.8353 75.4776 93.1527 75.2442 93.582C75.0109 94.0113 74.8942 94.534 74.8942 95.15C74.8942 95.7753 75.0062 96.3027 75.2302 96.732C75.4636 97.1613 75.7716 97.4833 76.1542 97.698C76.5369 97.9033 76.9569 98.006 77.4142 98.006ZM85.7393 99.126C85.1513 99.126 84.624 99.028 84.1573 98.832C83.6906 98.6267 83.322 98.3467 83.0513 97.992C82.7806 97.628 82.6313 97.2127 82.6033 96.746H83.9193C83.9566 97.1287 84.134 97.4413 84.4513 97.684C84.778 97.9267 85.2026 98.048 85.7253 98.048C86.2106 98.048 86.5933 97.9407 86.8733 97.726C87.1533 97.5113 87.2933 97.2407 87.2933 96.914C87.2933 96.578 87.144 96.3307 86.8453 96.172C86.5466 96.004 86.0846 95.8407 85.4593 95.682C84.89 95.5327 84.4233 95.3833 84.0593 95.234C83.7046 95.0753 83.3966 94.8467 83.1353 94.548C82.8833 94.24 82.7573 93.8387 82.7573 93.344C82.7573 92.952 82.874 92.5927 83.1073 92.266C83.3406 91.9393 83.672 91.6827 84.1013 91.496C84.5306 91.3 85.0206 91.202 85.5713 91.202C86.4206 91.202 87.1066 91.4167 87.6293 91.846C88.152 92.2753 88.432 92.8633 88.4693 93.61H87.1953C87.1673 93.2087 87.004 92.8867 86.7053 92.644C86.416 92.4013 86.024 92.28 85.5293 92.28C85.072 92.28 84.708 92.378 84.4373 92.574C84.1666 92.77 84.0313 93.0267 84.0313 93.344C84.0313 93.596 84.1106 93.806 84.2693 93.974C84.4373 94.1327 84.6426 94.2633 84.8853 94.366C85.1373 94.4593 85.4826 94.5667 85.9213 94.688C86.472 94.8373 86.92 94.9867 87.2653 95.136C87.6106 95.276 87.9046 95.4907 88.1473 95.78C88.3993 96.0693 88.53 96.4473 88.5393 96.914C88.5393 97.334 88.4226 97.712 88.1893 98.048C87.956 98.384 87.6246 98.65 87.1953 98.846C86.7753 99.0327 86.29 99.126 85.7393 99.126ZM97.4162 99.126C96.6975 99.126 96.0442 98.9627 95.4562 98.636C94.8775 98.3093 94.4202 97.8473 94.0842 97.25C93.7575 96.6433 93.5942 95.9433 93.5942 95.15C93.5942 94.366 93.7622 93.6753 94.0982 93.078C94.4435 92.4713 94.9102 92.0093 95.4982 91.692C96.0862 91.3653 96.7442 91.202 97.4722 91.202C98.2002 91.202 98.8582 91.3653 99.4462 91.692C100.034 92.0093 100.496 92.4667 100.832 93.064C101.178 93.6613 101.35 94.3567 101.35 95.15C101.35 95.9433 101.173 96.6433 100.818 97.25C100.473 97.8473 100.002 98.3093 99.4042 98.636C98.8069 98.9627 98.1442 99.126 97.4162 99.126ZM97.4162 98.006C97.8735 98.006 98.3029 97.8987 98.7042 97.684C99.1055 97.4693 99.4275 97.1473 99.6702 96.718C99.9222 96.2887 100.048 95.766 100.048 95.15C100.048 94.534 99.9269 94.0113 99.6842 93.582C99.4415 93.1527 99.1242 92.8353 98.7322 92.63C98.3402 92.4153 97.9155 92.308 97.4582 92.308C96.9915 92.308 96.5622 92.4153 96.1702 92.63C95.7875 92.8353 95.4795 93.1527 95.2462 93.582C95.0129 94.0113 94.8962 94.534 94.8962 95.15C94.8962 95.7753 95.0082 96.3027 95.2322 96.732C95.4655 97.1613 95.7735 97.4833 96.1562 97.698C96.5389 97.9033 96.9589 98.006 97.4162 98.006ZM105.741 99.126C105.153 99.126 104.626 99.028 104.159 98.832C103.693 98.6267 103.324 98.3467 103.053 97.992C102.783 97.628 102.633 97.2127 102.605 96.746H103.921C103.959 97.1287 104.136 97.4413 104.453 97.684C104.78 97.9267 105.205 98.048 105.727 98.048C106.213 98.048 106.595 97.9407 106.875 97.726C107.155 97.5113 107.295 97.2407 107.295 96.914C107.295 96.578 107.146 96.3307 106.847 96.172C106.549 96.004 106.087 95.8407 105.461 95.682C104.892 95.5327 104.425 95.3833 104.061 95.234C103.707 95.0753 103.399 94.8467 103.137 94.548C102.885 94.24 102.759 93.8387 102.759 93.344C102.759 92.952 102.876 92.5927 103.109 92.266C103.343 91.9393 103.674 91.6827 104.103 91.496C104.533 91.3 105.023 91.202 105.573 91.202C106.423 91.202 107.109 91.4167 107.631 91.846C108.154 92.2753 108.434 92.8633 108.471 93.61H107.197C107.169 93.2087 107.006 92.8867 106.707 92.644C106.418 92.4013 106.026 92.28 105.531 92.28C105.074 92.28 104.71 92.378 104.439 92.574C104.169 92.77 104.033 93.0267 104.033 93.344C104.033 93.596 104.113 93.806 104.271 93.974C104.439 94.1327 104.645 94.2633 104.887 94.366C105.139 94.4593 105.485 94.5667 105.923 94.688C106.474 94.8373 106.922 94.9867 107.267 95.136C107.613 95.276 107.907 95.4907 108.149 95.78C108.401 96.0693 108.532 96.4473 108.541 96.914C108.541 97.334 108.425 97.712 108.191 98.048C107.958 98.384 107.627 98.65 107.197 98.846C106.777 99.0327 106.292 99.126 105.741 99.126ZM116.928 97.824L119.308 91.328H120.666L117.656 99H116.172L113.162 91.328H114.534L116.928 97.824ZM123.194 91.328V99H121.92V91.328H123.194ZM123.922 89.158L120.94 90.754V89.802L123.922 88.052V89.158ZM124.889 95.136C124.889 94.352 125.048 93.666 125.365 93.078C125.682 92.4807 126.116 92.0187 126.667 91.692C127.227 91.3653 127.852 91.202 128.543 91.202C129.14 91.202 129.696 91.342 130.209 91.622C130.722 91.8927 131.114 92.252 131.385 92.7V88.64H132.673V99H131.385V97.558C131.133 98.0153 130.76 98.3933 130.265 98.692C129.77 98.9813 129.192 99.126 128.529 99.126C127.848 99.126 127.227 98.958 126.667 98.622C126.116 98.286 125.682 97.8147 125.365 97.208C125.048 96.6013 124.889 95.9107 124.889 95.136ZM131.385 95.15C131.385 94.5713 131.268 94.0673 131.035 93.638C130.802 93.2087 130.484 92.882 130.083 92.658C129.691 92.4247 129.257 92.308 128.781 92.308C128.305 92.308 127.871 92.42 127.479 92.644C127.087 92.868 126.774 93.1947 126.541 93.624C126.308 94.0533 126.191 94.5573 126.191 95.136C126.191 95.724 126.308 96.2373 126.541 96.676C126.774 97.1053 127.087 97.4367 127.479 97.67C127.871 97.894 128.305 98.006 128.781 98.006C129.257 98.006 129.691 97.894 130.083 97.67C130.484 97.4367 130.802 97.1053 131.035 96.676C131.268 96.2373 131.385 95.7287 131.385 95.15ZM141.826 94.87C141.826 95.1127 141.812 95.3693 141.784 95.64H135.652C135.699 96.396 135.955 96.9887 136.422 97.418C136.898 97.838 137.472 98.048 138.144 98.048C138.695 98.048 139.152 97.922 139.516 97.67C139.889 97.4087 140.151 97.0633 140.3 96.634H141.672C141.467 97.3713 141.056 97.9733 140.44 98.44C139.824 98.8973 139.059 99.126 138.144 99.126C137.416 99.126 136.763 98.9627 136.184 98.636C135.615 98.3093 135.167 97.8473 134.84 97.25C134.513 96.6433 134.35 95.9433 134.35 95.15C134.35 94.3567 134.509 93.6613 134.826 93.064C135.143 92.4667 135.587 92.0093 136.156 91.692C136.735 91.3653 137.397 91.202 138.144 91.202C138.872 91.202 139.516 91.3607 140.076 91.678C140.636 91.9953 141.065 92.434 141.364 92.994C141.672 93.5447 141.826 94.17 141.826 94.87ZM140.51 94.604C140.51 94.1187 140.403 93.7033 140.188 93.358C139.973 93.0033 139.679 92.7373 139.306 92.56C138.942 92.3733 138.536 92.28 138.088 92.28C137.444 92.28 136.893 92.4853 136.436 92.896C135.988 93.3067 135.731 93.876 135.666 94.604H140.51ZM146.854 99.126C146.135 99.126 145.482 98.9627 144.894 98.636C144.315 98.3093 143.858 97.8473 143.522 97.25C143.195 96.6433 143.032 95.9433 143.032 95.15C143.032 94.366 143.2 93.6753 143.536 93.078C143.881 92.4713 144.348 92.0093 144.936 91.692C145.524 91.3653 146.182 91.202 146.91 91.202C147.638 91.202 148.296 91.3653 148.884 91.692C149.472 92.0093 149.934 92.4667 150.27 93.064C150.615 93.6613 150.788 94.3567 150.788 95.15C150.788 95.9433 150.61 96.6433 150.256 97.25C149.91 97.8473 149.439 98.3093 148.842 98.636C148.244 98.9627 147.582 99.126 146.854 99.126ZM146.854 98.006C147.311 98.006 147.74 97.8987 148.142 97.684C148.543 97.4693 148.865 97.1473 149.108 96.718C149.36 96.2887 149.486 95.766 149.486 95.15C149.486 94.534 149.364 94.0113 149.122 93.582C148.879 93.1527 148.562 92.8353 148.17 92.63C147.778 92.4153 147.353 92.308 146.896 92.308C146.429 92.308 146 92.4153 145.608 92.63C145.225 92.8353 144.917 93.1527 144.684 93.582C144.45 94.0113 144.334 94.534 144.334 95.15C144.334 95.7753 144.446 96.3027 144.67 96.732C144.903 97.1613 145.211 97.4833 145.594 97.698C145.976 97.9033 146.396 98.006 146.854 98.006ZM155.179 99.126C154.591 99.126 154.063 99.028 153.597 98.832C153.13 98.6267 152.761 98.3467 152.491 97.992C152.22 97.628 152.071 97.2127 152.043 96.746H153.359C153.396 97.1287 153.573 97.4413 153.891 97.684C154.217 97.9267 154.642 98.048 155.165 98.048C155.65 98.048 156.033 97.9407 156.313 97.726C156.593 97.5113 156.733 97.2407 156.733 96.914C156.733 96.578 156.583 96.3307 156.285 96.172C155.986 96.004 155.524 95.8407 154.899 95.682C154.329 95.5327 153.863 95.3833 153.499 95.234C153.144 95.0753 152.836 94.8467 152.575 94.548C152.323 94.24 152.197 93.8387 152.197 93.344C152.197 92.952 152.313 92.5927 152.547 92.266C152.78 91.9393 153.111 91.6827 153.541 91.496C153.97 91.3 154.46 91.202 155.011 91.202C155.86 91.202 156.546 91.4167 157.069 91.846C157.591 92.2753 157.871 92.8633 157.909 93.61H156.635C156.607 93.2087 156.443 92.8867 156.145 92.644C155.855 92.4013 155.463 92.28 154.969 92.28C154.511 92.28 154.147 92.378 153.877 92.574C153.606 92.77 153.471 93.0267 153.471 93.344C153.471 93.596 153.55 93.806 153.709 93.974C153.877 94.1327 154.082 94.2633 154.325 94.366C154.577 94.4593 154.922 94.5667 155.361 94.688C155.911 94.8373 156.359 94.9867 156.705 95.136C157.05 95.276 157.344 95.4907 157.587 95.78C157.839 96.0693 157.969 96.4473 157.979 96.914C157.979 97.334 157.862 97.712 157.629 98.048C157.395 98.384 157.064 98.65 156.635 98.846C156.215 99.0327 155.729 99.126 155.179 99.126ZM163.034 95.136C163.034 94.352 163.192 93.666 163.51 93.078C163.827 92.4807 164.261 92.0187 164.812 91.692C165.372 91.3653 165.997 91.202 166.688 91.202C167.35 91.202 167.929 91.3513 168.424 91.65C168.928 91.9393 169.296 92.2987 169.53 92.728V91.328H170.818V102.64H169.53V97.586C169.287 98.0153 168.914 98.3793 168.41 98.678C167.906 98.9767 167.318 99.126 166.646 99.126C165.974 99.126 165.362 98.958 164.812 98.622C164.261 98.286 163.827 97.8147 163.51 97.208C163.192 96.6013 163.034 95.9107 163.034 95.136ZM169.53 95.15C169.53 94.5713 169.413 94.0673 169.18 93.638C168.946 93.2087 168.629 92.882 168.228 92.658C167.836 92.4247 167.402 92.308 166.926 92.308C166.45 92.308 166.016 92.42 165.624 92.644C165.232 92.868 164.919 93.1947 164.686 93.624C164.452 94.0533 164.336 94.5573 164.336 95.136C164.336 95.724 164.452 96.2373 164.686 96.676C164.919 97.1053 165.232 97.4367 165.624 97.67C166.016 97.894 166.45 98.006 166.926 98.006C167.402 98.006 167.836 97.894 168.228 97.67C168.629 97.4367 168.946 97.1053 169.18 96.676C169.413 96.2373 169.53 95.7287 169.53 95.15ZM179.775 91.328V99H178.501V97.866C178.258 98.258 177.917 98.566 177.479 98.79C177.049 99.0047 176.573 99.112 176.051 99.112C175.453 99.112 174.917 98.9907 174.441 98.748C173.965 98.496 173.587 98.1227 173.307 97.628C173.036 97.1333 172.901 96.5313 172.901 95.822V91.328H174.161V95.654C174.161 96.41 174.352 96.9933 174.735 97.404C175.117 97.8053 175.64 98.006 176.303 98.006C176.984 98.006 177.521 97.796 177.913 97.376C178.305 96.956 178.501 96.3447 178.501 95.542V91.328H179.775ZM188.926 94.87C188.926 95.1127 188.912 95.3693 188.884 95.64H182.752C182.798 96.396 183.055 96.9887 183.522 97.418C183.998 97.838 184.572 98.048 185.244 98.048C185.794 98.048 186.252 97.922 186.616 97.67C186.989 97.4087 187.25 97.0633 187.4 96.634H188.772C188.566 97.3713 188.156 97.9733 187.54 98.44C186.924 98.8973 186.158 99.126 185.244 99.126C184.516 99.126 183.862 98.9627 183.284 98.636C182.714 98.3093 182.266 97.8473 181.94 97.25C181.613 96.6433 181.45 95.9433 181.45 95.15C181.45 94.3567 181.608 93.6613 181.926 93.064C182.243 92.4667 182.686 92.0093 183.256 91.692C183.834 91.3653 184.497 91.202 185.244 91.202C185.972 91.202 186.616 91.3607 187.176 91.678C187.736 91.9953 188.165 92.434 188.464 92.994C188.772 93.5447 188.926 94.17 188.926 94.87ZM187.61 94.604C187.61 94.1187 187.502 93.7033 187.288 93.358C187.073 93.0033 186.779 92.7373 186.406 92.56C186.042 92.3733 185.636 92.28 185.188 92.28C184.544 92.28 183.993 92.4853 183.536 92.896C183.088 93.3067 182.831 93.876 182.766 94.604H187.61ZM197.196 97.824L199.576 91.328H200.934L197.924 99H196.44L193.43 91.328H194.802L197.196 97.824ZM205.533 99.126C204.815 99.126 204.161 98.9627 203.573 98.636C202.995 98.3093 202.537 97.8473 202.201 97.25C201.875 96.6433 201.711 95.9433 201.711 95.15C201.711 94.366 201.879 93.6753 202.215 93.078C202.561 92.4713 203.027 92.0093 203.615 91.692C204.203 91.3653 204.861 91.202 205.589 91.202C206.317 91.202 206.975 91.3653 207.563 91.692C208.151 92.0093 208.613 92.4667 208.949 93.064C209.295 93.6613 209.467 94.3567 209.467 95.15C209.467 95.9433 209.29 96.6433 208.935 97.25C208.59 97.8473 208.119 98.3093 207.521 98.636C206.924 98.9627 206.261 99.126 205.533 99.126ZM205.533 98.006C205.991 98.006 206.42 97.8987 206.821 97.684C207.223 97.4693 207.545 97.1473 207.787 96.718C208.039 96.2887 208.165 95.766 208.165 95.15C208.165 94.534 208.044 94.0113 207.801 93.582C207.559 93.1527 207.241 92.8353 206.849 92.63C206.457 92.4153 206.033 92.308 205.575 92.308C205.109 92.308 204.679 92.4153 204.287 92.63C203.905 92.8353 203.597 93.1527 203.363 93.582C203.13 94.0113 203.013 94.534 203.013 95.15C203.013 95.7753 203.125 96.3027 203.349 96.732C203.583 97.1613 203.891 97.4833 204.273 97.698C204.656 97.9033 205.076 98.006 205.533 98.006ZM210.666 95.15C210.666 94.3567 210.825 93.666 211.142 93.078C211.46 92.4807 211.898 92.0187 212.458 91.692C213.028 91.3653 213.676 91.202 214.404 91.202C215.347 91.202 216.122 91.4307 216.728 91.888C217.344 92.3453 217.75 92.98 217.946 93.792H216.574C216.444 93.3253 216.187 92.9567 215.804 92.686C215.431 92.4153 214.964 92.28 214.404 92.28C213.676 92.28 213.088 92.532 212.64 93.036C212.192 93.5307 211.968 94.2353 211.968 95.15C211.968 96.074 212.192 96.788 212.64 97.292C213.088 97.796 213.676 98.048 214.404 98.048C214.964 98.048 215.431 97.9173 215.804 97.656C216.178 97.3947 216.434 97.0213 216.574 96.536H217.946C217.741 97.32 217.33 97.95 216.714 98.426C216.098 98.8927 215.328 99.126 214.404 99.126C213.676 99.126 213.028 98.9627 212.458 98.636C211.898 98.3093 211.46 97.8473 211.142 97.25C210.825 96.6527 210.666 95.9527 210.666 95.15ZM226.646 94.87C226.646 95.1127 226.632 95.3693 226.604 95.64H220.472C220.519 96.396 220.776 96.9887 221.242 97.418C221.718 97.838 222.292 98.048 222.964 98.048C223.515 98.048 223.972 97.922 224.336 97.67C224.71 97.4087 224.971 97.0633 225.12 96.634H226.492C226.287 97.3713 225.876 97.9733 225.26 98.44C224.644 98.8973 223.879 99.126 222.964 99.126C222.236 99.126 221.583 98.9627 221.004 98.636C220.435 98.3093 219.987 97.8473 219.66 97.25C219.334 96.6433 219.17 95.9433 219.17 95.15C219.17 94.3567 219.329 93.6613 219.646 93.064C219.964 92.4667 220.407 92.0093 220.976 91.692C221.555 91.3653 222.218 91.202 222.964 91.202C223.692 91.202 224.336 91.3607 224.896 91.678C225.456 91.9953 225.886 92.434 226.184 92.994C226.492 93.5447 226.646 94.17 226.646 94.87ZM225.33 94.604C225.33 94.1187 225.223 93.7033 225.008 93.358C224.794 93.0033 224.5 92.7373 224.126 92.56C223.762 92.3733 223.356 92.28 222.908 92.28C222.264 92.28 221.714 92.4853 221.256 92.896C220.808 93.3067 220.552 93.876 220.486 94.604H225.33ZM222.922 89.452L220.976 90.642V89.634L222.922 88.472L224.854 89.634V90.642L222.922 89.452ZM232.746 90.082C232.504 90.082 232.298 89.998 232.13 89.83C231.972 89.662 231.892 89.4567 231.892 89.214C231.892 88.9713 231.972 88.766 232.13 88.598C232.298 88.43 232.504 88.346 232.746 88.346C232.989 88.346 233.19 88.43 233.348 88.598C233.516 88.766 233.6 88.9713 233.6 89.214C233.6 89.4567 233.516 89.662 233.348 89.83C233.19 89.998 232.989 90.082 232.746 90.082ZM233.376 100.666C233.376 101.347 233.204 101.847 232.858 102.164C232.513 102.481 232.009 102.64 231.346 102.64H230.604V101.562H231.136C231.491 101.562 231.738 101.492 231.878 101.352C232.028 101.212 232.102 100.974 232.102 100.638V91.328H233.376V100.666ZM235.057 95.136C235.057 94.352 235.216 93.666 235.533 93.078C235.85 92.4807 236.284 92.0187 236.835 91.692C237.395 91.3653 238.016 91.202 238.697 91.202C239.369 91.202 239.952 91.3467 240.447 91.636C240.942 91.9253 241.31 92.2893 241.553 92.728V91.328H242.841V99H241.553V97.572C241.301 98.02 240.923 98.3933 240.419 98.692C239.924 98.9813 239.346 99.126 238.683 99.126C238.002 99.126 237.386 98.958 236.835 98.622C236.284 98.286 235.85 97.8147 235.533 97.208C235.216 96.6013 235.057 95.9107 235.057 95.136ZM241.553 95.15C241.553 94.5713 241.436 94.0673 241.203 93.638C240.97 93.2087 240.652 92.882 240.251 92.658C239.859 92.4247 239.425 92.308 238.949 92.308C238.473 92.308 238.039 92.42 237.647 92.644C237.255 92.868 236.942 93.1947 236.709 93.624C236.476 94.0533 236.359 94.5573 236.359 95.136C236.359 95.724 236.476 96.2373 236.709 96.676C236.942 97.1053 237.255 97.4367 237.647 97.67C238.039 97.894 238.473 98.006 238.949 98.006C239.425 98.006 239.859 97.894 240.251 97.67C240.652 97.4367 240.97 97.1053 241.203 96.676C241.436 96.2373 241.553 95.7287 241.553 95.15ZM240.559 89.158L237.577 90.754V89.802L240.559 88.052V89.158ZM248.25 95.136C248.25 94.352 248.409 93.666 248.726 93.078C249.044 92.4807 249.478 92.0187 250.028 91.692C250.588 91.3653 251.209 91.202 251.89 91.202C252.562 91.202 253.146 91.3467 253.64 91.636C254.135 91.9253 254.504 92.2893 254.746 92.728V91.328H256.034V99H254.746V97.572C254.494 98.02 254.116 98.3933 253.612 98.692C253.118 98.9813 252.539 99.126 251.876 99.126C251.195 99.126 250.579 98.958 250.028 98.622C249.478 98.286 249.044 97.8147 248.726 97.208C248.409 96.6013 248.25 95.9107 248.25 95.136ZM254.746 95.15C254.746 94.5713 254.63 94.0673 254.396 93.638C254.163 93.2087 253.846 92.882 253.444 92.658C253.052 92.4247 252.618 92.308 252.142 92.308C251.666 92.308 251.232 92.42 250.84 92.644C250.448 92.868 250.136 93.1947 249.902 93.624C249.669 94.0533 249.552 94.5573 249.552 95.136C249.552 95.724 249.669 96.2373 249.902 96.676C250.136 97.1053 250.448 97.4367 250.84 97.67C251.232 97.894 251.666 98.006 252.142 98.006C252.618 98.006 253.052 97.894 253.444 97.67C253.846 97.4367 254.163 97.1053 254.396 96.676C254.63 96.2373 254.746 95.7287 254.746 95.15ZM260.903 99.126C260.315 99.126 259.788 99.028 259.321 98.832C258.855 98.6267 258.486 98.3467 258.215 97.992C257.945 97.628 257.795 97.2127 257.767 96.746H259.083C259.121 97.1287 259.298 97.4413 259.615 97.684C259.942 97.9267 260.367 98.048 260.889 98.048C261.375 98.048 261.757 97.9407 262.037 97.726C262.317 97.5113 262.457 97.2407 262.457 96.914C262.457 96.578 262.308 96.3307 262.009 96.172C261.711 96.004 261.249 95.8407 260.623 95.682C260.054 95.5327 259.587 95.3833 259.223 95.234C258.869 95.0753 258.561 94.8467 258.299 94.548C258.047 94.24 257.921 93.8387 257.921 93.344C257.921 92.952 258.038 92.5927 258.271 92.266C258.505 91.9393 258.836 91.6827 259.265 91.496C259.695 91.3 260.185 91.202 260.735 91.202C261.585 91.202 262.271 91.4167 262.793 91.846C263.316 92.2753 263.596 92.8633 263.633 93.61H262.359C262.331 93.2087 262.168 92.8867 261.869 92.644C261.58 92.4013 261.188 92.28 260.693 92.28C260.236 92.28 259.872 92.378 259.601 92.574C259.331 92.77 259.195 93.0267 259.195 93.344C259.195 93.596 259.275 93.806 259.433 93.974C259.601 94.1327 259.807 94.2633 260.049 94.366C260.301 94.4593 260.647 94.5667 261.085 94.688C261.636 94.8373 262.084 94.9867 262.429 95.136C262.775 95.276 263.069 95.4907 263.311 95.78C263.563 96.0693 263.694 96.4473 263.703 96.914C263.703 97.334 263.587 97.712 263.353 98.048C263.12 98.384 262.789 98.65 262.359 98.846C261.939 99.0327 261.454 99.126 260.903 99.126ZM268.218 99.126C267.63 99.126 267.102 99.028 266.636 98.832C266.169 98.6267 265.8 98.3467 265.53 97.992C265.259 97.628 265.11 97.2127 265.082 96.746H266.398C266.435 97.1287 266.612 97.4413 266.93 97.684C267.256 97.9267 267.681 98.048 268.204 98.048C268.689 98.048 269.072 97.9407 269.352 97.726C269.632 97.5113 269.772 97.2407 269.772 96.914C269.772 96.578 269.622 96.3307 269.324 96.172C269.025 96.004 268.563 95.8407 267.938 95.682C267.368 95.5327 266.902 95.3833 266.538 95.234C266.183 95.0753 265.875 94.8467 265.614 94.548C265.362 94.24 265.236 93.8387 265.236 93.344C265.236 92.952 265.352 92.5927 265.586 92.266C265.819 91.9393 266.15 91.6827 266.58 91.496C267.009 91.3 267.499 91.202 268.05 91.202C268.899 91.202 269.585 91.4167 270.108 91.846C270.63 92.2753 270.91 92.8633 270.948 93.61H269.674C269.646 93.2087 269.482 92.8867 269.184 92.644C268.894 92.4013 268.502 92.28 268.008 92.28C267.55 92.28 267.186 92.378 266.916 92.574C266.645 92.77 266.51 93.0267 266.51 93.344C266.51 93.596 266.589 93.806 266.748 93.974C266.916 94.1327 267.121 94.2633 267.364 94.366C267.616 94.4593 267.961 94.5667 268.4 94.688C268.95 94.8373 269.398 94.9867 269.744 95.136C270.089 95.276 270.383 95.4907 270.626 95.78C270.878 96.0693 271.008 96.4473 271.018 96.914C271.018 97.334 270.901 97.712 270.668 98.048C270.434 98.384 270.103 98.65 269.674 98.846C269.254 99.0327 268.768 99.126 268.218 99.126ZM273.474 90.082C273.232 90.082 273.026 89.998 272.858 89.83C272.69 89.662 272.606 89.4567 272.606 89.214C272.606 88.9713 272.69 88.766 272.858 88.598C273.026 88.43 273.232 88.346 273.474 88.346C273.708 88.346 273.904 88.43 274.062 88.598C274.23 88.766 274.314 88.9713 274.314 89.214C274.314 89.4567 274.23 89.662 274.062 89.83C273.904 89.998 273.708 90.082 273.474 90.082ZM274.09 91.328V99H272.816V91.328H274.09ZM278.978 99.126C278.39 99.126 277.862 99.028 277.396 98.832C276.929 98.6267 276.56 98.3467 276.29 97.992C276.019 97.628 275.87 97.2127 275.842 96.746H277.158C277.195 97.1287 277.372 97.4413 277.69 97.684C278.016 97.9267 278.441 98.048 278.964 98.048C279.449 98.048 279.832 97.9407 280.112 97.726C280.392 97.5113 280.532 97.2407 280.532 96.914C280.532 96.578 280.382 96.3307 280.084 96.172C279.785 96.004 279.323 95.8407 278.698 95.682C278.128 95.5327 277.662 95.3833 277.298 95.234C276.943 95.0753 276.635 94.8467 276.374 94.548C276.122 94.24 275.996 93.8387 275.996 93.344C275.996 92.952 276.112 92.5927 276.346 92.266C276.579 91.9393 276.91 91.6827 277.34 91.496C277.769 91.3 278.259 91.202 278.81 91.202C279.659 91.202 280.345 91.4167 280.868 91.846C281.39 92.2753 281.67 92.8633 281.708 93.61H280.434C280.406 93.2087 280.242 92.8867 279.944 92.644C279.654 92.4013 279.262 92.28 278.768 92.28C278.31 92.28 277.946 92.378 277.676 92.574C277.405 92.77 277.27 93.0267 277.27 93.344C277.27 93.596 277.349 93.806 277.508 93.974C277.676 94.1327 277.881 94.2633 278.124 94.366C278.376 94.4593 278.721 94.5667 279.16 94.688C279.71 94.8373 280.158 94.9867 280.504 95.136C280.849 95.276 281.143 95.4907 281.386 95.78C281.638 96.0693 281.768 96.4473 281.778 96.914C281.778 97.334 281.661 97.712 281.428 98.048C281.194 98.384 280.863 98.65 280.434 98.846C280.014 99.0327 279.528 99.126 278.978 99.126ZM285.13 92.378V96.9C285.13 97.2733 285.209 97.5393 285.368 97.698C285.527 97.8473 285.802 97.922 286.194 97.922H287.132V99H285.984C285.275 99 284.743 98.8367 284.388 98.51C284.033 98.1833 283.856 97.6467 283.856 96.9V92.378H282.862V91.328H283.856V89.396H285.13V91.328H287.132V92.378H285.13ZM289.334 90.082C289.091 90.082 288.886 89.998 288.718 89.83C288.55 89.662 288.466 89.4567 288.466 89.214C288.466 88.9713 288.55 88.766 288.718 88.598C288.886 88.43 289.091 88.346 289.334 88.346C289.567 88.346 289.763 88.43 289.922 88.598C290.09 88.766 290.174 88.9713 290.174 89.214C290.174 89.4567 290.09 89.662 289.922 89.83C289.763 89.998 289.567 90.082 289.334 90.082ZM289.95 91.328V99H288.676V91.328H289.95ZM298.925 91.328V99H297.651V97.866C297.408 98.258 297.068 98.566 296.629 98.79C296.2 99.0047 295.724 99.112 295.201 99.112C294.604 99.112 294.067 98.9907 293.591 98.748C293.115 98.496 292.737 98.1227 292.457 97.628C292.186 97.1333 292.051 96.5313 292.051 95.822V91.328H293.311V95.654C293.311 96.41 293.502 96.9933 293.885 97.404C294.268 97.8053 294.79 98.006 295.453 98.006C296.134 98.006 296.671 97.796 297.063 97.376C297.455 96.956 297.651 96.3447 297.651 95.542V91.328H298.925ZM49.352 113.742C49.604 113.303 49.9773 112.939 50.472 112.65C50.976 112.351 51.5593 112.202 52.222 112.202C52.9033 112.202 53.5193 112.365 54.07 112.692C54.63 113.019 55.0687 113.481 55.386 114.078C55.7033 114.666 55.862 115.352 55.862 116.136C55.862 116.911 55.7033 117.601 55.386 118.208C55.0687 118.815 54.63 119.286 54.07 119.622C53.5193 119.958 52.9033 120.126 52.222 120.126C51.5687 120.126 50.99 119.981 50.486 119.692C49.9913 119.393 49.6133 119.025 49.352 118.586V123.64H48.078V112.328H49.352V113.742ZM54.56 116.136C54.56 115.557 54.4433 115.053 54.21 114.624C53.9767 114.195 53.6593 113.868 53.258 113.644C52.866 113.42 52.432 113.308 51.956 113.308C51.4893 113.308 51.0553 113.425 50.654 113.658C50.262 113.882 49.9447 114.213 49.702 114.652C49.4687 115.081 49.352 115.581 49.352 116.15C49.352 116.729 49.4687 117.237 49.702 117.676C49.9447 118.105 50.262 118.437 50.654 118.67C51.0553 118.894 51.4893 119.006 51.956 119.006C52.432 119.006 52.866 118.894 53.258 118.67C53.6593 118.437 53.9767 118.105 54.21 117.676C54.4433 117.237 54.56 116.724 54.56 116.136ZM60.8849 120.126C60.1663 120.126 59.5129 119.963 58.9249 119.636C58.3463 119.309 57.8889 118.847 57.5529 118.25C57.2263 117.643 57.0629 116.943 57.0629 116.15C57.0629 115.366 57.2309 114.675 57.5669 114.078C57.9123 113.471 58.3789 113.009 58.9669 112.692C59.5549 112.365 60.2129 112.202 60.9409 112.202C61.6689 112.202 62.3269 112.365 62.9149 112.692C63.5029 113.009 63.9649 113.467 64.3009 114.064C64.6463 114.661 64.8189 115.357 64.8189 116.15C64.8189 116.943 64.6416 117.643 64.2869 118.25C63.9416 118.847 63.4703 119.309 62.8729 119.636C62.2756 119.963 61.6129 120.126 60.8849 120.126ZM60.8849 119.006C61.3423 119.006 61.7716 118.899 62.1729 118.684C62.5743 118.469 62.8963 118.147 63.1389 117.718C63.3909 117.289 63.5169 116.766 63.5169 116.15C63.5169 115.534 63.3956 115.011 63.1529 114.582C62.9103 114.153 62.5929 113.835 62.2009 113.63C61.8089 113.415 61.3843 113.308 60.9269 113.308C60.4603 113.308 60.0309 113.415 59.6389 113.63C59.2563 113.835 58.9483 114.153 58.7149 114.582C58.4816 115.011 58.3649 115.534 58.3649 116.15C58.3649 116.775 58.4769 117.303 58.7009 117.732C58.9343 118.161 59.2423 118.483 59.6249 118.698C60.0076 118.903 60.4276 119.006 60.8849 119.006ZM66.018 116.136C66.018 115.352 66.1767 114.666 66.494 114.078C66.8113 113.481 67.2453 113.019 67.796 112.692C68.356 112.365 68.9813 112.202 69.672 112.202C70.2693 112.202 70.8247 112.342 71.338 112.622C71.8513 112.893 72.2433 113.252 72.514 113.7V109.64H73.802V120H72.514V118.558C72.262 119.015 71.8887 119.393 71.394 119.692C70.8993 119.981 70.3207 120.126 69.658 120.126C68.9767 120.126 68.356 119.958 67.796 119.622C67.2453 119.286 66.8113 118.815 66.494 118.208C66.1767 117.601 66.018 116.911 66.018 116.136ZM72.514 116.15C72.514 115.571 72.3973 115.067 72.164 114.638C71.9307 114.209 71.6133 113.882 71.212 113.658C70.82 113.425 70.386 113.308 69.91 113.308C69.434 113.308 69 113.42 68.608 113.644C68.216 113.868 67.9033 114.195 67.67 114.624C67.4367 115.053 67.32 115.557 67.32 116.136C67.32 116.724 67.4367 117.237 67.67 117.676C67.9033 118.105 68.216 118.437 68.608 118.67C69 118.894 69.434 119.006 69.91 119.006C70.386 119.006 70.82 118.894 71.212 118.67C71.6133 118.437 71.9307 118.105 72.164 117.676C72.3973 117.237 72.514 116.729 72.514 116.15ZM82.955 115.87C82.955 116.113 82.941 116.369 82.913 116.64H76.781C76.8276 117.396 77.0843 117.989 77.551 118.418C78.027 118.838 78.601 119.048 79.273 119.048C79.8236 119.048 80.281 118.922 80.645 118.67C81.0183 118.409 81.2796 118.063 81.429 117.634H82.801C82.5956 118.371 82.185 118.973 81.569 119.44C80.953 119.897 80.1876 120.126 79.273 120.126C78.545 120.126 77.8916 119.963 77.313 119.636C76.7436 119.309 76.2956 118.847 75.969 118.25C75.6423 117.643 75.479 116.943 75.479 116.15C75.479 115.357 75.6376 114.661 75.955 114.064C76.2723 113.467 76.7156 113.009 77.285 112.692C77.8636 112.365 78.5263 112.202 79.273 112.202C80.001 112.202 80.645 112.361 81.205 112.678C81.765 112.995 82.1943 113.434 82.493 113.994C82.801 114.545 82.955 115.17 82.955 115.87ZM81.639 115.604C81.639 115.119 81.5316 114.703 81.317 114.358C81.1023 114.003 80.8083 113.737 80.435 113.56C80.071 113.373 79.665 113.28 79.217 113.28C78.573 113.28 78.0223 113.485 77.565 113.896C77.117 114.307 76.8603 114.876 76.795 115.604H81.639ZM97.595 112.188C98.1923 112.188 98.7243 112.314 99.191 112.566C99.6577 112.809 100.026 113.177 100.297 113.672C100.568 114.167 100.703 114.769 100.703 115.478V120H99.443V115.66C99.443 114.895 99.2517 114.311 98.869 113.91C98.4957 113.499 97.987 113.294 97.343 113.294C96.6803 113.294 96.153 113.509 95.761 113.938C95.369 114.358 95.173 114.969 95.173 115.772V120H93.913V115.66C93.913 114.895 93.7217 114.311 93.339 113.91C92.9657 113.499 92.457 113.294 91.813 113.294C91.1503 113.294 90.623 113.509 90.231 113.938C89.839 114.358 89.643 114.969 89.643 115.772V120H88.369V112.328H89.643V113.434C89.895 113.033 90.231 112.725 90.651 112.51C91.0803 112.295 91.5517 112.188 92.065 112.188C92.709 112.188 93.2783 112.333 93.773 112.622C94.2677 112.911 94.6363 113.336 94.879 113.896C95.0937 113.355 95.4483 112.935 95.943 112.636C96.4377 112.337 96.9883 112.188 97.595 112.188ZM102.317 116.136C102.317 115.352 102.476 114.666 102.793 114.078C103.11 113.481 103.544 113.019 104.095 112.692C104.655 112.365 105.276 112.202 105.957 112.202C106.629 112.202 107.212 112.347 107.707 112.636C108.202 112.925 108.57 113.289 108.813 113.728V112.328H110.101V120H108.813V118.572C108.561 119.02 108.183 119.393 107.679 119.692C107.184 119.981 106.606 120.126 105.943 120.126C105.262 120.126 104.646 119.958 104.095 119.622C103.544 119.286 103.11 118.815 102.793 118.208C102.476 117.601 102.317 116.911 102.317 116.136ZM108.813 116.15C108.813 115.571 108.696 115.067 108.463 114.638C108.23 114.209 107.912 113.882 107.511 113.658C107.119 113.425 106.685 113.308 106.209 113.308C105.733 113.308 105.299 113.42 104.907 113.644C104.515 113.868 104.202 114.195 103.969 114.624C103.736 115.053 103.619 115.557 103.619 116.136C103.619 116.724 103.736 117.237 103.969 117.676C104.202 118.105 104.515 118.437 104.907 118.67C105.299 118.894 105.733 119.006 106.209 119.006C106.685 119.006 107.119 118.894 107.511 118.67C107.912 118.437 108.23 118.105 108.463 117.676C108.696 117.237 108.813 116.729 108.813 116.15ZM113.528 113.574C113.752 113.135 114.069 112.795 114.48 112.552C114.9 112.309 115.408 112.188 116.006 112.188V113.504H115.67C114.242 113.504 113.528 114.279 113.528 115.828V120H112.254V112.328H113.528V113.574ZM117 116.15C117 115.357 117.159 114.666 117.476 114.078C117.794 113.481 118.232 113.019 118.792 112.692C119.362 112.365 120.01 112.202 120.738 112.202C121.681 112.202 122.456 112.431 123.062 112.888C123.678 113.345 124.084 113.98 124.28 114.792H122.908C122.778 114.325 122.521 113.957 122.138 113.686C121.765 113.415 121.298 113.28 120.738 113.28C120.01 113.28 119.422 113.532 118.974 114.036C118.526 114.531 118.302 115.235 118.302 116.15C118.302 117.074 118.526 117.788 118.974 118.292C119.422 118.796 120.01 119.048 120.738 119.048C121.298 119.048 121.765 118.917 122.138 118.656C122.512 118.395 122.768 118.021 122.908 117.536H124.28C124.075 118.32 123.664 118.95 123.048 119.426C122.432 119.893 121.662 120.126 120.738 120.126C120.01 120.126 119.362 119.963 118.792 119.636C118.232 119.309 117.794 118.847 117.476 118.25C117.159 117.653 117 116.953 117 116.15ZM125.504 116.136C125.504 115.352 125.663 114.666 125.98 114.078C126.298 113.481 126.732 113.019 127.282 112.692C127.842 112.365 128.463 112.202 129.144 112.202C129.816 112.202 130.4 112.347 130.894 112.636C131.389 112.925 131.758 113.289 132 113.728V112.328H133.288V120H132V118.572C131.748 119.02 131.37 119.393 130.866 119.692C130.372 119.981 129.793 120.126 129.13 120.126C128.449 120.126 127.833 119.958 127.282 119.622C126.732 119.286 126.298 118.815 125.98 118.208C125.663 117.601 125.504 116.911 125.504 116.136ZM132 116.15C132 115.571 131.884 115.067 131.65 114.638C131.417 114.209 131.1 113.882 130.698 113.658C130.306 113.425 129.872 113.308 129.396 113.308C128.92 113.308 128.486 113.42 128.094 113.644C127.702 113.868 127.39 114.195 127.156 114.624C126.923 115.053 126.806 115.557 126.806 116.136C126.806 116.724 126.923 117.237 127.156 117.676C127.39 118.105 127.702 118.437 128.094 118.67C128.486 118.894 128.92 119.006 129.396 119.006C129.872 119.006 130.306 118.894 130.698 118.67C131.1 118.437 131.417 118.105 131.65 117.676C131.884 117.237 132 116.729 132 116.15ZM136.715 113.574C136.939 113.135 137.257 112.795 137.667 112.552C138.087 112.309 138.596 112.188 139.193 112.188V113.504H138.857C137.429 113.504 136.715 114.279 136.715 115.828V120H135.441V112.328H136.715V113.574ZM143.92 116.15C143.92 115.357 144.079 114.666 144.396 114.078C144.714 113.481 145.152 113.019 145.712 112.692C146.282 112.365 146.93 112.202 147.658 112.202C148.601 112.202 149.376 112.431 149.982 112.888C150.598 113.345 151.004 113.98 151.2 114.792H149.828C149.698 114.325 149.441 113.957 149.058 113.686C148.685 113.415 148.218 113.28 147.658 113.28C146.93 113.28 146.342 113.532 145.894 114.036C145.446 114.531 145.222 115.235 145.222 116.15C145.222 117.074 145.446 117.788 145.894 118.292C146.342 118.796 146.93 119.048 147.658 119.048C148.218 119.048 148.685 118.917 149.058 118.656C149.432 118.395 149.688 118.021 149.828 117.536H151.2C150.995 118.32 150.584 118.95 149.968 119.426C149.352 119.893 148.582 120.126 147.658 120.126C146.93 120.126 146.282 119.963 145.712 119.636C145.152 119.309 144.714 118.847 144.396 118.25C144.079 117.653 143.92 116.953 143.92 116.15ZM156.246 120.126C155.528 120.126 154.874 119.963 154.286 119.636C153.708 119.309 153.25 118.847 152.914 118.25C152.588 117.643 152.424 116.943 152.424 116.15C152.424 115.366 152.592 114.675 152.928 114.078C153.274 113.471 153.74 113.009 154.328 112.692C154.916 112.365 155.574 112.202 156.302 112.202C157.03 112.202 157.688 112.365 158.276 112.692C158.864 113.009 159.326 113.467 159.662 114.064C160.008 114.661 160.18 115.357 160.18 116.15C160.18 116.943 160.003 117.643 159.648 118.25C159.303 118.847 158.832 119.309 158.234 119.636C157.637 119.963 156.974 120.126 156.246 120.126ZM156.246 119.006C156.704 119.006 157.133 118.899 157.534 118.684C157.936 118.469 158.258 118.147 158.5 117.718C158.752 117.289 158.878 116.766 158.878 116.15C158.878 115.534 158.757 115.011 158.514 114.582C158.272 114.153 157.954 113.835 157.562 113.63C157.17 113.415 156.746 113.308 156.288 113.308C155.822 113.308 155.392 113.415 155 113.63C154.618 113.835 154.31 114.153 154.076 114.582C153.843 115.011 153.726 115.534 153.726 116.15C153.726 116.775 153.838 117.303 154.062 117.732C154.296 118.161 154.604 118.483 154.986 118.698C155.369 118.903 155.789 119.006 156.246 119.006ZM171.081 112.188C171.679 112.188 172.211 112.314 172.677 112.566C173.144 112.809 173.513 113.177 173.783 113.672C174.054 114.167 174.189 114.769 174.189 115.478V120H172.929V115.66C172.929 114.895 172.738 114.311 172.355 113.91C171.982 113.499 171.473 113.294 170.829 113.294C170.167 113.294 169.639 113.509 169.247 113.938C168.855 114.358 168.659 114.969 168.659 115.772V120H167.399V115.66C167.399 114.895 167.208 114.311 166.825 113.91C166.452 113.499 165.943 113.294 165.299 113.294C164.637 113.294 164.109 113.509 163.717 113.938C163.325 114.358 163.129 114.969 163.129 115.772V120H161.855V112.328H163.129V113.434C163.381 113.033 163.717 112.725 164.137 112.51C164.567 112.295 165.038 112.188 165.551 112.188C166.195 112.188 166.765 112.333 167.259 112.622C167.754 112.911 168.123 113.336 168.365 113.896C168.58 113.355 168.935 112.935 169.429 112.636C169.924 112.337 170.475 112.188 171.081 112.188ZM179.625 120.126C178.907 120.126 178.253 119.963 177.665 119.636C177.087 119.309 176.629 118.847 176.293 118.25C175.967 117.643 175.803 116.943 175.803 116.15C175.803 115.366 175.971 114.675 176.307 114.078C176.653 113.471 177.119 113.009 177.707 112.692C178.295 112.365 178.953 112.202 179.681 112.202C180.409 112.202 181.067 112.365 181.655 112.692C182.243 113.009 182.705 113.467 183.041 114.064C183.387 114.661 183.559 115.357 183.559 116.15C183.559 116.943 183.382 117.643 183.027 118.25C182.682 118.847 182.211 119.309 181.613 119.636C181.016 119.963 180.353 120.126 179.625 120.126ZM179.625 119.006C180.083 119.006 180.512 118.899 180.913 118.684C181.315 118.469 181.637 118.147 181.879 117.718C182.131 117.289 182.257 116.766 182.257 116.15C182.257 115.534 182.136 115.011 181.893 114.582C181.651 114.153 181.333 113.835 180.941 113.63C180.549 113.415 180.125 113.308 179.667 113.308C179.201 113.308 178.771 113.415 178.379 113.63C177.997 113.835 177.689 114.153 177.455 114.582C177.222 115.011 177.105 115.534 177.105 116.15C177.105 116.775 177.217 117.303 177.441 117.732C177.675 118.161 177.983 118.483 178.365 118.698C178.748 118.903 179.168 119.006 179.625 119.006ZM188.491 116.136C188.491 115.352 188.649 114.666 188.967 114.078C189.284 113.481 189.718 113.019 190.269 112.692C190.829 112.365 191.449 112.202 192.131 112.202C192.803 112.202 193.386 112.347 193.881 112.636C194.375 112.925 194.744 113.289 194.987 113.728V112.328H196.275V120H194.987V118.572C194.735 119.02 194.357 119.393 193.853 119.692C193.358 119.981 192.779 120.126 192.117 120.126C191.435 120.126 190.819 119.958 190.269 119.622C189.718 119.286 189.284 118.815 188.967 118.208C188.649 117.601 188.491 116.911 188.491 116.136ZM194.987 116.15C194.987 115.571 194.87 115.067 194.637 114.638C194.403 114.209 194.086 113.882 193.685 113.658C193.293 113.425 192.859 113.308 192.383 113.308C191.907 113.308 191.473 113.42 191.081 113.644C190.689 113.868 190.376 114.195 190.143 114.624C189.909 115.053 189.793 115.557 189.793 116.136C189.793 116.724 189.909 117.237 190.143 117.676C190.376 118.105 190.689 118.437 191.081 118.67C191.473 118.894 191.907 119.006 192.383 119.006C192.859 119.006 193.293 118.894 193.685 118.67C194.086 118.437 194.403 118.105 194.637 117.676C194.87 117.237 194.987 116.729 194.987 116.15ZM201.144 120.126C200.556 120.126 200.028 120.028 199.562 119.832C199.095 119.627 198.726 119.347 198.456 118.992C198.185 118.628 198.036 118.213 198.008 117.746H199.324C199.361 118.129 199.538 118.441 199.856 118.684C200.182 118.927 200.607 119.048 201.13 119.048C201.615 119.048 201.998 118.941 202.278 118.726C202.558 118.511 202.698 118.241 202.698 117.914C202.698 117.578 202.548 117.331 202.25 117.172C201.951 117.004 201.489 116.841 200.864 116.682C200.294 116.533 199.828 116.383 199.464 116.234C199.109 116.075 198.801 115.847 198.54 115.548C198.288 115.24 198.162 114.839 198.162 114.344C198.162 113.952 198.278 113.593 198.512 113.266C198.745 112.939 199.076 112.683 199.506 112.496C199.935 112.3 200.425 112.202 200.976 112.202C201.825 112.202 202.511 112.417 203.034 112.846C203.556 113.275 203.836 113.863 203.874 114.61H202.6C202.572 114.209 202.408 113.887 202.11 113.644C201.82 113.401 201.428 113.28 200.934 113.28C200.476 113.28 200.112 113.378 199.842 113.574C199.571 113.77 199.436 114.027 199.436 114.344C199.436 114.596 199.515 114.806 199.674 114.974C199.842 115.133 200.047 115.263 200.29 115.366C200.542 115.459 200.887 115.567 201.326 115.688C201.876 115.837 202.324 115.987 202.67 116.136C203.015 116.276 203.309 116.491 203.552 116.78C203.804 117.069 203.934 117.447 203.944 117.914C203.944 118.334 203.827 118.712 203.594 119.048C203.36 119.384 203.029 119.65 202.6 119.846C202.18 120.033 201.694 120.126 201.144 120.126ZM208.458 120.126C207.87 120.126 207.343 120.028 206.876 119.832C206.409 119.627 206.041 119.347 205.77 118.992C205.499 118.628 205.35 118.213 205.322 117.746H206.638C206.675 118.129 206.853 118.441 207.17 118.684C207.497 118.927 207.921 119.048 208.444 119.048C208.929 119.048 209.312 118.941 209.592 118.726C209.872 118.511 210.012 118.241 210.012 117.914C210.012 117.578 209.863 117.331 209.564 117.172C209.265 117.004 208.803 116.841 208.178 116.682C207.609 116.533 207.142 116.383 206.778 116.234C206.423 116.075 206.115 115.847 205.854 115.548C205.602 115.24 205.476 114.839 205.476 114.344C205.476 113.952 205.593 113.593 205.826 113.266C206.059 112.939 206.391 112.683 206.82 112.496C207.249 112.3 207.739 112.202 208.29 112.202C209.139 112.202 209.825 112.417 210.348 112.846C210.871 113.275 211.151 113.863 211.188 114.61H209.914C209.886 114.209 209.723 113.887 209.424 113.644C209.135 113.401 208.743 113.28 208.248 113.28C207.791 113.28 207.427 113.378 207.156 113.574C206.885 113.77 206.75 114.027 206.75 114.344C206.75 114.596 206.829 114.806 206.988 114.974C207.156 115.133 207.361 115.263 207.604 115.366C207.856 115.459 208.201 115.567 208.64 115.688C209.191 115.837 209.639 115.987 209.984 116.136C210.329 116.276 210.623 116.491 210.866 116.78C211.118 117.069 211.249 117.447 211.258 117.914C211.258 118.334 211.141 118.712 210.908 119.048C210.675 119.384 210.343 119.65 209.914 119.846C209.494 120.033 209.009 120.126 208.458 120.126ZM213.715 111.082C213.472 111.082 213.267 110.998 213.099 110.83C212.931 110.662 212.847 110.457 212.847 110.214C212.847 109.971 212.931 109.766 213.099 109.598C213.267 109.43 213.472 109.346 213.715 109.346C213.948 109.346 214.144 109.43 214.303 109.598C214.471 109.766 214.555 109.971 214.555 110.214C214.555 110.457 214.471 110.662 214.303 110.83C214.144 110.998 213.948 111.082 213.715 111.082ZM214.331 112.328V120H213.057V112.328H214.331ZM219.218 120.126C218.63 120.126 218.102 120.028 217.636 119.832C217.169 119.627 216.8 119.347 216.53 118.992C216.259 118.628 216.11 118.213 216.082 117.746H217.398C217.435 118.129 217.612 118.441 217.93 118.684C218.256 118.927 218.681 119.048 219.204 119.048C219.689 119.048 220.072 118.941 220.352 118.726C220.632 118.511 220.772 118.241 220.772 117.914C220.772 117.578 220.622 117.331 220.324 117.172C220.025 117.004 219.563 116.841 218.938 116.682C218.368 116.533 217.902 116.383 217.538 116.234C217.183 116.075 216.875 115.847 216.614 115.548C216.362 115.24 216.236 114.839 216.236 114.344C216.236 113.952 216.352 113.593 216.586 113.266C216.819 112.939 217.15 112.683 217.58 112.496C218.009 112.3 218.499 112.202 219.05 112.202C219.899 112.202 220.585 112.417 221.108 112.846C221.63 113.275 221.91 113.863 221.948 114.61H220.674C220.646 114.209 220.482 113.887 220.184 113.644C219.894 113.401 219.502 113.28 219.008 113.28C218.55 113.28 218.186 113.378 217.916 113.574C217.645 113.77 217.51 114.027 217.51 114.344C217.51 114.596 217.589 114.806 217.748 114.974C217.916 115.133 218.121 115.263 218.364 115.366C218.616 115.459 218.961 115.567 219.4 115.688C219.95 115.837 220.398 115.987 220.744 116.136C221.089 116.276 221.383 116.491 221.626 116.78C221.878 117.069 222.008 117.447 222.018 117.914C222.018 118.334 221.901 118.712 221.668 119.048C221.434 119.384 221.103 119.65 220.674 119.846C220.254 120.033 219.768 120.126 219.218 120.126ZM225.37 113.378V117.9C225.37 118.273 225.45 118.539 225.608 118.698C225.767 118.847 226.042 118.922 226.434 118.922H227.372V120H226.224C225.515 120 224.983 119.837 224.628 119.51C224.274 119.183 224.096 118.647 224.096 117.9V113.378H223.102V112.328H224.096V110.396H225.37V112.328H227.372V113.378H225.37ZM229.574 111.082C229.331 111.082 229.126 110.998 228.958 110.83C228.79 110.662 228.706 110.457 228.706 110.214C228.706 109.971 228.79 109.766 228.958 109.598C229.126 109.43 229.331 109.346 229.574 109.346C229.807 109.346 230.003 109.43 230.162 109.598C230.33 109.766 230.414 109.971 230.414 110.214C230.414 110.457 230.33 110.662 230.162 110.83C230.003 110.998 229.807 111.082 229.574 111.082ZM230.19 112.328V120H228.916V112.328H230.19ZM231.885 116.136C231.885 115.352 232.044 114.666 232.361 114.078C232.679 113.481 233.113 113.019 233.663 112.692C234.223 112.365 234.849 112.202 235.539 112.202C236.137 112.202 236.692 112.342 237.205 112.622C237.719 112.893 238.111 113.252 238.381 113.7V109.64H239.669V120H238.381V118.558C238.129 119.015 237.756 119.393 237.261 119.692C236.767 119.981 236.188 120.126 235.525 120.126C234.844 120.126 234.223 119.958 233.663 119.622C233.113 119.286 232.679 118.815 232.361 118.208C232.044 117.601 231.885 116.911 231.885 116.136ZM238.381 116.15C238.381 115.571 238.265 115.067 238.031 114.638C237.798 114.209 237.481 113.882 237.079 113.658C236.687 113.425 236.253 113.308 235.777 113.308C235.301 113.308 234.867 113.42 234.475 113.644C234.083 113.868 233.771 114.195 233.537 114.624C233.304 115.053 233.187 115.557 233.187 116.136C233.187 116.724 233.304 117.237 233.537 117.676C233.771 118.105 234.083 118.437 234.475 118.67C234.867 118.894 235.301 119.006 235.777 119.006C236.253 119.006 236.687 118.894 237.079 118.67C237.481 118.437 237.798 118.105 238.031 117.676C238.265 117.237 238.381 116.729 238.381 116.15ZM245.168 120.126C244.449 120.126 243.796 119.963 243.208 119.636C242.629 119.309 242.172 118.847 241.836 118.25C241.509 117.643 241.346 116.943 241.346 116.15C241.346 115.366 241.514 114.675 241.85 114.078C242.195 113.471 242.662 113.009 243.25 112.692C243.838 112.365 244.496 112.202 245.224 112.202C245.952 112.202 246.61 112.365 247.198 112.692C247.786 113.009 248.248 113.467 248.584 114.064C248.929 114.661 249.102 115.357 249.102 116.15C249.102 116.943 248.925 117.643 248.57 118.25C248.225 118.847 247.753 119.309 247.156 119.636C246.559 119.963 245.896 120.126 245.168 120.126ZM245.168 119.006C245.625 119.006 246.055 118.899 246.456 118.684C246.857 118.469 247.179 118.147 247.422 117.718C247.674 117.289 247.8 116.766 247.8 116.15C247.8 115.534 247.679 115.011 247.436 114.582C247.193 114.153 246.876 113.835 246.484 113.63C246.092 113.415 245.667 113.308 245.21 113.308C244.743 113.308 244.314 113.415 243.922 113.63C243.539 113.835 243.231 114.153 242.998 114.582C242.765 115.011 242.648 115.534 242.648 116.15C242.648 116.775 242.76 117.303 242.984 117.732C243.217 118.161 243.525 118.483 243.908 118.698C244.291 118.903 244.711 119.006 245.168 119.006ZM252.093 118.236L250.525 122.002H249.671L250.693 118.236H252.093ZM256.809 116.136C256.809 115.352 256.968 114.666 257.285 114.078C257.602 113.481 258.036 113.019 258.587 112.692C259.147 112.365 259.768 112.202 260.449 112.202C261.121 112.202 261.704 112.347 262.199 112.636C262.694 112.925 263.062 113.289 263.305 113.728V112.328H264.593V120H263.305V118.572C263.053 119.02 262.675 119.393 262.171 119.692C261.676 119.981 261.098 120.126 260.435 120.126C259.754 120.126 259.138 119.958 258.587 119.622C258.036 119.286 257.602 118.815 257.285 118.208C256.968 117.601 256.809 116.911 256.809 116.136ZM263.305 116.15C263.305 115.571 263.188 115.067 262.955 114.638C262.722 114.209 262.404 113.882 262.003 113.658C261.611 113.425 261.177 113.308 260.701 113.308C260.225 113.308 259.791 113.42 259.399 113.644C259.007 113.868 258.694 114.195 258.461 114.624C258.228 115.053 258.111 115.557 258.111 116.136C258.111 116.724 258.228 117.237 258.461 117.676C258.694 118.105 259.007 118.437 259.399 118.67C259.791 118.894 260.225 119.006 260.701 119.006C261.177 119.006 261.611 118.894 262.003 118.67C262.404 118.437 262.722 118.105 262.955 117.676C263.188 117.237 263.305 116.729 263.305 116.15ZM269.462 120.126C268.874 120.126 268.347 120.028 267.88 119.832C267.413 119.627 267.045 119.347 266.774 118.992C266.503 118.628 266.354 118.213 266.326 117.746H267.642C267.679 118.129 267.857 118.441 268.174 118.684C268.501 118.927 268.925 119.048 269.448 119.048C269.933 119.048 270.316 118.941 270.596 118.726C270.876 118.511 271.016 118.241 271.016 117.914C271.016 117.578 270.867 117.331 270.568 117.172C270.269 117.004 269.807 116.841 269.182 116.682C268.613 116.533 268.146 116.383 267.782 116.234C267.427 116.075 267.119 115.847 266.858 115.548C266.606 115.24 266.48 114.839 266.48 114.344C266.48 113.952 266.597 113.593 266.83 113.266C267.063 112.939 267.395 112.683 267.824 112.496C268.253 112.3 268.743 112.202 269.294 112.202C270.143 112.202 270.829 112.417 271.352 112.846C271.875 113.275 272.155 113.863 272.192 114.61H270.918C270.89 114.209 270.727 113.887 270.428 113.644C270.139 113.401 269.747 113.28 269.252 113.28C268.795 113.28 268.431 113.378 268.16 113.574C267.889 113.77 267.754 114.027 267.754 114.344C267.754 114.596 267.833 114.806 267.992 114.974C268.16 115.133 268.365 115.263 268.608 115.366C268.86 115.459 269.205 115.567 269.644 115.688C270.195 115.837 270.643 115.987 270.988 116.136C271.333 116.276 271.627 116.491 271.87 116.78C272.122 117.069 272.253 117.447 272.262 117.914C272.262 118.334 272.145 118.712 271.912 119.048C271.679 119.384 271.347 119.65 270.918 119.846C270.498 120.033 270.013 120.126 269.462 120.126ZM276.776 120.126C276.188 120.126 275.661 120.028 275.194 119.832C274.728 119.627 274.359 119.347 274.088 118.992C273.818 118.628 273.668 118.213 273.64 117.746H274.956C274.994 118.129 275.171 118.441 275.488 118.684C275.815 118.927 276.24 119.048 276.762 119.048C277.248 119.048 277.63 118.941 277.91 118.726C278.19 118.511 278.33 118.241 278.33 117.914C278.33 117.578 278.181 117.331 277.882 117.172C277.584 117.004 277.122 116.841 276.496 116.682C275.927 116.533 275.46 116.383 275.096 116.234C274.742 116.075 274.434 115.847 274.172 115.548C273.92 115.24 273.794 114.839 273.794 114.344C273.794 113.952 273.911 113.593 274.144 113.266C274.378 112.939 274.709 112.683 275.138 112.496C275.568 112.3 276.058 112.202 276.608 112.202C277.458 112.202 278.144 112.417 278.666 112.846C279.189 113.275 279.469 113.863 279.506 114.61H278.232C278.204 114.209 278.041 113.887 277.742 113.644C277.453 113.401 277.061 113.28 276.566 113.28C276.109 113.28 275.745 113.378 275.474 113.574C275.204 113.77 275.068 114.027 275.068 114.344C275.068 114.596 275.148 114.806 275.306 114.974C275.474 115.133 275.68 115.263 275.922 115.366C276.174 115.459 276.52 115.567 276.958 115.688C277.509 115.837 277.957 115.987 278.302 116.136C278.648 116.276 278.942 116.491 279.184 116.78C279.436 117.069 279.567 117.447 279.576 117.914C279.576 118.334 279.46 118.712 279.226 119.048C278.993 119.384 278.662 119.65 278.232 119.846C277.812 120.033 277.327 120.126 276.776 120.126ZM282.033 111.082C281.79 111.082 281.585 110.998 281.417 110.83C281.249 110.662 281.165 110.457 281.165 110.214C281.165 109.971 281.249 109.766 281.417 109.598C281.585 109.43 281.79 109.346 282.033 109.346C282.266 109.346 282.462 109.43 282.621 109.598C282.789 109.766 282.873 109.971 282.873 110.214C282.873 110.457 282.789 110.662 282.621 110.83C282.462 110.998 282.266 111.082 282.033 111.082ZM282.649 112.328V120H281.375V112.328H282.649ZM294.046 112.188C294.644 112.188 295.176 112.314 295.642 112.566C296.109 112.809 296.478 113.177 296.748 113.672C297.019 114.167 297.154 114.769 297.154 115.478V120H295.894V115.66C295.894 114.895 295.703 114.311 295.32 113.91C294.947 113.499 294.438 113.294 293.794 113.294C293.132 113.294 292.604 113.509 292.212 113.938C291.82 114.358 291.624 114.969 291.624 115.772V120H290.364V115.66C290.364 114.895 290.173 114.311 289.79 113.91C289.417 113.499 288.908 113.294 288.264 113.294C287.602 113.294 287.074 113.509 286.682 113.938C286.29 114.358 286.094 114.969 286.094 115.772V120H284.82V112.328H286.094V113.434C286.346 113.033 286.682 112.725 287.102 112.51C287.532 112.295 288.003 112.188 288.516 112.188C289.16 112.188 289.73 112.333 290.224 112.622C290.719 112.911 291.088 113.336 291.33 113.896C291.545 113.355 291.9 112.935 292.394 112.636C292.889 112.337 293.44 112.188 294.046 112.188ZM306.714 112.188C307.648 112.188 308.404 112.473 308.982 113.042C309.561 113.602 309.85 114.414 309.85 115.478V120H308.59V115.66C308.59 114.895 308.399 114.311 308.016 113.91C307.634 113.499 307.111 113.294 306.448 113.294C305.776 113.294 305.24 113.504 304.838 113.924C304.446 114.344 304.25 114.955 304.25 115.758V120H302.976V112.328H304.25V113.42C304.502 113.028 304.843 112.725 305.272 112.51C305.711 112.295 306.192 112.188 306.714 112.188ZM311.456 116.136C311.456 115.352 311.614 114.666 311.932 114.078C312.249 113.481 312.683 113.019 313.234 112.692C313.794 112.365 314.414 112.202 315.096 112.202C315.768 112.202 316.351 112.347 316.846 112.636C317.34 112.925 317.709 113.289 317.952 113.728V112.328H319.24V120H317.952V118.572C317.7 119.02 317.322 119.393 316.818 119.692C316.323 119.981 315.744 120.126 315.082 120.126C314.4 120.126 313.784 119.958 313.234 119.622C312.683 119.286 312.249 118.815 311.932 118.208C311.614 117.601 311.456 116.911 311.456 116.136ZM317.952 116.15C317.952 115.571 317.835 115.067 317.602 114.638C317.368 114.209 317.051 113.882 316.65 113.658C316.258 113.425 315.824 113.308 315.348 113.308C314.872 113.308 314.438 113.42 314.046 113.644C313.654 113.868 313.341 114.195 313.108 114.624C312.874 115.053 312.758 115.557 312.758 116.136C312.758 116.724 312.874 117.237 313.108 117.676C313.341 118.105 313.654 118.437 314.046 118.67C314.438 118.894 314.872 119.006 315.348 119.006C315.824 119.006 316.258 118.894 316.65 118.67C317.051 118.437 317.368 118.105 317.602 117.676C317.835 117.237 317.952 116.729 317.952 116.15ZM313.542 111.502C313.607 111.026 313.761 110.662 314.004 110.41C314.256 110.158 314.568 110.032 314.942 110.032C315.119 110.032 315.268 110.065 315.39 110.13C315.52 110.186 315.674 110.27 315.852 110.382C315.982 110.475 316.099 110.55 316.202 110.606C316.304 110.653 316.416 110.676 316.538 110.676C316.696 110.676 316.832 110.625 316.944 110.522C317.056 110.419 317.126 110.27 317.154 110.074H317.882C317.826 110.541 317.672 110.9 317.42 111.152C317.168 111.404 316.855 111.53 316.482 111.53C316.304 111.53 316.146 111.502 316.006 111.446C315.875 111.381 315.726 111.287 315.558 111.166C315.408 111.073 315.287 111.003 315.194 110.956C315.11 110.909 315.007 110.886 314.886 110.886C314.727 110.886 314.592 110.937 314.48 111.04C314.377 111.143 314.312 111.297 314.284 111.502H313.542ZM324.738 120.126C324.02 120.126 323.366 119.963 322.778 119.636C322.2 119.309 321.742 118.847 321.406 118.25C321.08 117.643 320.916 116.943 320.916 116.15C320.916 115.366 321.084 114.675 321.42 114.078C321.766 113.471 322.232 113.009 322.82 112.692C323.408 112.365 324.066 112.202 324.794 112.202C325.522 112.202 326.18 112.365 326.768 112.692C327.356 113.009 327.818 113.467 328.154 114.064C328.5 114.661 328.672 115.357 328.672 116.15C328.672 116.943 328.495 117.643 328.14 118.25C327.795 118.847 327.324 119.309 326.726 119.636C326.129 119.963 325.466 120.126 324.738 120.126ZM324.738 119.006C325.196 119.006 325.625 118.899 326.026 118.684C326.428 118.469 326.75 118.147 326.992 117.718C327.244 117.289 327.37 116.766 327.37 116.15C327.37 115.534 327.249 115.011 327.006 114.582C326.764 114.153 326.446 113.835 326.054 113.63C325.662 113.415 325.238 113.308 324.78 113.308C324.314 113.308 323.884 113.415 323.492 113.63C323.11 113.835 322.802 114.153 322.568 114.582C322.335 115.011 322.218 115.534 322.218 116.15C322.218 116.775 322.33 117.303 322.554 117.732C322.788 118.161 323.096 118.483 323.478 118.698C323.861 118.903 324.281 119.006 324.738 119.006ZM49.352 134.742C49.604 134.303 49.9773 133.939 50.472 133.65C50.976 133.351 51.5593 133.202 52.222 133.202C52.9033 133.202 53.5193 133.365 54.07 133.692C54.63 134.019 55.0687 134.481 55.386 135.078C55.7033 135.666 55.862 136.352 55.862 137.136C55.862 137.911 55.7033 138.601 55.386 139.208C55.0687 139.815 54.63 140.286 54.07 140.622C53.5193 140.958 52.9033 141.126 52.222 141.126C51.5687 141.126 50.99 140.981 50.486 140.692C49.9913 140.393 49.6133 140.025 49.352 139.586V144.64H48.078V133.328H49.352V134.742ZM54.56 137.136C54.56 136.557 54.4433 136.053 54.21 135.624C53.9767 135.195 53.6593 134.868 53.258 134.644C52.866 134.42 52.432 134.308 51.956 134.308C51.4893 134.308 51.0553 134.425 50.654 134.658C50.262 134.882 49.9447 135.213 49.702 135.652C49.4687 136.081 49.352 136.581 49.352 137.15C49.352 137.729 49.4687 138.237 49.702 138.676C49.9447 139.105 50.262 139.437 50.654 139.67C51.0553 139.894 51.4893 140.006 51.956 140.006C52.432 140.006 52.866 139.894 53.258 139.67C53.6593 139.437 53.9767 139.105 54.21 138.676C54.4433 138.237 54.56 137.724 54.56 137.136ZM58.8129 134.574C59.0369 134.135 59.3543 133.795 59.7649 133.552C60.1849 133.309 60.6936 133.188 61.2909 133.188V134.504H60.9549C59.5269 134.504 58.8129 135.279 58.8129 136.828V141H57.5389V133.328H58.8129V134.574ZM69.7616 136.87C69.7616 137.113 69.7476 137.369 69.7196 137.64H63.5876C63.6343 138.396 63.8909 138.989 64.3576 139.418C64.8336 139.838 65.4076 140.048 66.0796 140.048C66.6303 140.048 67.0876 139.922 67.4516 139.67C67.8249 139.409 68.0863 139.063 68.2356 138.634H69.6076C69.4023 139.371 68.9916 139.973 68.3756 140.44C67.7596 140.897 66.9943 141.126 66.0796 141.126C65.3516 141.126 64.6983 140.963 64.1196 140.636C63.5503 140.309 63.1023 139.847 62.7756 139.25C62.4489 138.643 62.2856 137.943 62.2856 137.15C62.2856 136.357 62.4443 135.661 62.7616 135.064C63.0789 134.467 63.5223 134.009 64.0916 133.692C64.6703 133.365 65.3329 133.202 66.0796 133.202C66.8076 133.202 67.4516 133.361 68.0116 133.678C68.5716 133.995 69.0009 134.434 69.2996 134.994C69.6076 135.545 69.7616 136.17 69.7616 136.87ZM68.4456 136.604C68.4456 136.119 68.3383 135.703 68.1236 135.358C67.9089 135.003 67.6149 134.737 67.2416 134.56C66.8776 134.373 66.4716 134.28 66.0236 134.28C65.3796 134.28 64.8289 134.485 64.3716 134.896C63.9236 135.307 63.6669 135.876 63.6016 136.604H68.4456ZM70.9672 137.15C70.9672 136.357 71.1259 135.666 71.4432 135.078C71.7606 134.481 72.1992 134.019 72.7592 133.692C73.3286 133.365 73.9772 133.202 74.7052 133.202C75.6479 133.202 76.4226 133.431 77.0292 133.888C77.6452 134.345 78.0512 134.98 78.2472 135.792H76.8752C76.7446 135.325 76.4879 134.957 76.1052 134.686C75.7319 134.415 75.2652 134.28 74.7052 134.28C73.9772 134.28 73.3892 134.532 72.9412 135.036C72.4932 135.531 72.2692 136.235 72.2692 137.15C72.2692 138.074 72.4932 138.788 72.9412 139.292C73.3892 139.796 73.9772 140.048 74.7052 140.048C75.2652 140.048 75.7319 139.917 76.1052 139.656C76.4786 139.395 76.7352 139.021 76.8752 138.536H78.2472C78.0419 139.32 77.6312 139.95 77.0152 140.426C76.3992 140.893 75.6292 141.126 74.7052 141.126C73.9772 141.126 73.3286 140.963 72.7592 140.636C72.1992 140.309 71.7606 139.847 71.4432 139.25C71.1259 138.653 70.9672 137.953 70.9672 137.15ZM80.6051 132.082C80.3625 132.082 80.1571 131.998 79.9891 131.83C79.8211 131.662 79.7371 131.457 79.7371 131.214C79.7371 130.971 79.8211 130.766 79.9891 130.598C80.1571 130.43 80.3625 130.346 80.6051 130.346C80.8385 130.346 81.0345 130.43 81.1931 130.598C81.3611 130.766 81.4451 130.971 81.4451 131.214C81.4451 131.457 81.3611 131.662 81.1931 131.83C81.0345 131.998 80.8385 132.082 80.6051 132.082ZM81.2211 133.328V141H79.9471V133.328H81.2211ZM86.1085 141.126C85.5205 141.126 84.9931 141.028 84.5265 140.832C84.0598 140.627 83.6911 140.347 83.4205 139.992C83.1498 139.628 83.0005 139.213 82.9725 138.746H84.2885C84.3258 139.129 84.5031 139.441 84.8205 139.684C85.1471 139.927 85.5718 140.048 86.0945 140.048C86.5798 140.048 86.9625 139.941 87.2425 139.726C87.5225 139.511 87.6625 139.241 87.6625 138.914C87.6625 138.578 87.5131 138.331 87.2145 138.172C86.9158 138.004 86.4538 137.841 85.8285 137.682C85.2591 137.533 84.7925 137.383 84.4285 137.234C84.0738 137.075 83.7658 136.847 83.5045 136.548C83.2525 136.24 83.1265 135.839 83.1265 135.344C83.1265 134.952 83.2431 134.593 83.4765 134.266C83.7098 133.939 84.0411 133.683 84.4705 133.496C84.8998 133.3 85.3898 133.202 85.9405 133.202C86.7898 133.202 87.4758 133.417 87.9985 133.846C88.5211 134.275 88.8011 134.863 88.8385 135.61H87.5645C87.5365 135.209 87.3731 134.887 87.0745 134.644C86.7851 134.401 86.3931 134.28 85.8985 134.28C85.4411 134.28 85.0771 134.378 84.8065 134.574C84.5358 134.77 84.4005 135.027 84.4005 135.344C84.4005 135.596 84.4798 135.806 84.6385 135.974C84.8065 136.133 85.0118 136.263 85.2545 136.366C85.5065 136.459 85.8518 136.567 86.2905 136.688C86.8411 136.837 87.2891 136.987 87.6345 137.136C87.9798 137.276 88.2738 137.491 88.5165 137.78C88.7685 138.069 88.8991 138.447 88.9085 138.914C88.9085 139.334 88.7918 139.712 88.5585 140.048C88.3251 140.384 87.9938 140.65 87.5645 140.846C87.1445 141.033 86.6591 141.126 86.1085 141.126ZM90.2309 137.136C90.2309 136.352 90.3896 135.666 90.7069 135.078C91.0242 134.481 91.4582 134.019 92.0089 133.692C92.5689 133.365 93.1896 133.202 93.8709 133.202C94.5429 133.202 95.1262 133.347 95.6209 133.636C96.1156 133.925 96.4842 134.289 96.7269 134.728V133.328H98.0149V141H96.7269V139.572C96.4749 140.02 96.0969 140.393 95.5929 140.692C95.0982 140.981 94.5196 141.126 93.8569 141.126C93.1756 141.126 92.5596 140.958 92.0089 140.622C91.4582 140.286 91.0242 139.815 90.7069 139.208C90.3896 138.601 90.2309 137.911 90.2309 137.136ZM96.7269 137.15C96.7269 136.571 96.6102 136.067 96.3769 135.638C96.1436 135.209 95.8262 134.882 95.4249 134.658C95.0329 134.425 94.5989 134.308 94.1229 134.308C93.6469 134.308 93.2129 134.42 92.8209 134.644C92.4289 134.868 92.1162 135.195 91.8829 135.624C91.6496 136.053 91.5329 136.557 91.5329 137.136C91.5329 137.724 91.6496 138.237 91.8829 138.676C92.1162 139.105 92.4289 139.437 92.8209 139.67C93.2129 139.894 93.6469 140.006 94.1229 140.006C94.5989 140.006 95.0329 139.894 95.4249 139.67C95.8262 139.437 96.1436 139.105 96.3769 138.676C96.6102 138.237 96.7269 137.729 96.7269 137.15ZM101.442 134.574C101.666 134.135 101.983 133.795 102.394 133.552C102.814 133.309 103.323 133.188 103.92 133.188V134.504H103.584C102.156 134.504 101.442 135.279 101.442 136.828V141H100.168V133.328H101.442V134.574ZM104.915 137.136C104.915 136.352 105.073 135.666 105.391 135.078C105.708 134.481 106.142 134.019 106.693 133.692C107.253 133.365 107.873 133.202 108.555 133.202C109.227 133.202 109.81 133.347 110.305 133.636C110.799 133.925 111.168 134.289 111.411 134.728V133.328H112.699V141H111.411V139.572C111.159 140.02 110.781 140.393 110.277 140.692C109.782 140.981 109.203 141.126 108.541 141.126C107.859 141.126 107.243 140.958 106.693 140.622C106.142 140.286 105.708 139.815 105.391 139.208C105.073 138.601 104.915 137.911 104.915 137.136ZM111.411 137.15C111.411 136.571 111.294 136.067 111.061 135.638C110.827 135.209 110.51 134.882 110.109 134.658C109.717 134.425 109.283 134.308 108.807 134.308C108.331 134.308 107.897 134.42 107.505 134.644C107.113 134.868 106.8 135.195 106.567 135.624C106.333 136.053 106.217 136.557 106.217 137.136C106.217 137.724 106.333 138.237 106.567 138.676C106.8 139.105 107.113 139.437 107.505 139.67C107.897 139.894 108.331 140.006 108.807 140.006C109.283 140.006 109.717 139.894 110.109 139.67C110.51 139.437 110.827 139.105 111.061 138.676C111.294 138.237 111.411 137.729 111.411 137.15ZM110.417 131.158L107.435 132.754V131.802L110.417 130.052V131.158ZM119.858 130.64V141H118.584V130.64H119.858ZM129.029 136.87C129.029 137.113 129.015 137.369 128.987 137.64H122.855C122.902 138.396 123.159 138.989 123.625 139.418C124.101 139.838 124.675 140.048 125.347 140.048C125.898 140.048 126.355 139.922 126.719 139.67C127.093 139.409 127.354 139.063 127.503 138.634H128.875C128.67 139.371 128.259 139.973 127.643 140.44C127.027 140.897 126.262 141.126 125.347 141.126C124.619 141.126 123.966 140.963 123.387 140.636C122.818 140.309 122.37 139.847 122.043 139.25C121.717 138.643 121.553 137.943 121.553 137.15C121.553 136.357 121.712 135.661 122.029 135.064C122.347 134.467 122.79 134.009 123.359 133.692C123.938 133.365 124.601 133.202 125.347 133.202C126.075 133.202 126.719 133.361 127.279 133.678C127.839 133.995 128.269 134.434 128.567 134.994C128.875 135.545 129.029 136.17 129.029 136.87ZM127.713 136.604C127.713 136.119 127.606 135.703 127.391 135.358C127.177 135.003 126.883 134.737 126.509 134.56C126.145 134.373 125.739 134.28 125.291 134.28C124.647 134.28 124.097 134.485 123.639 134.896C123.191 135.307 122.935 135.876 122.869 136.604H127.713ZM139.937 133.188C140.534 133.188 141.066 133.314 141.533 133.566C141.999 133.809 142.368 134.177 142.639 134.672C142.909 135.167 143.045 135.769 143.045 136.478V141H141.785V136.66C141.785 135.895 141.593 135.311 141.211 134.91C140.837 134.499 140.329 134.294 139.685 134.294C139.022 134.294 138.495 134.509 138.103 134.938C137.711 135.358 137.515 135.969 137.515 136.772V141H136.255V136.66C136.255 135.895 136.063 135.311 135.681 134.91C135.307 134.499 134.799 134.294 134.155 134.294C133.492 134.294 132.965 134.509 132.573 134.938C132.181 135.358 131.985 135.969 131.985 136.772V141H130.711V133.328H131.985V134.434C132.237 134.033 132.573 133.725 132.993 133.51C133.422 133.295 133.893 133.188 134.407 133.188C135.051 133.188 135.62 133.333 136.115 133.622C136.609 133.911 136.978 134.336 137.221 134.896C137.435 134.355 137.79 133.935 138.285 133.636C138.779 133.337 139.33 133.188 139.937 133.188ZM146.409 134.756C146.67 134.299 147.053 133.925 147.557 133.636C148.061 133.347 148.635 133.202 149.279 133.202C149.969 133.202 150.59 133.365 151.141 133.692C151.691 134.019 152.125 134.481 152.443 135.078C152.76 135.666 152.919 136.352 152.919 137.136C152.919 137.911 152.76 138.601 152.443 139.208C152.125 139.815 151.687 140.286 151.127 140.622C150.576 140.958 149.96 141.126 149.279 141.126C148.616 141.126 148.033 140.981 147.529 140.692C147.034 140.403 146.661 140.034 146.409 139.586V141H145.135V130.64H146.409V134.756ZM151.617 137.136C151.617 136.557 151.5 136.053 151.267 135.624C151.033 135.195 150.716 134.868 150.315 134.644C149.923 134.42 149.489 134.308 149.013 134.308C148.546 134.308 148.112 134.425 147.711 134.658C147.319 134.882 147.001 135.213 146.759 135.652C146.525 136.081 146.409 136.581 146.409 137.15C146.409 137.729 146.525 138.237 146.759 138.676C147.001 139.105 147.319 139.437 147.711 139.67C148.112 139.894 148.546 140.006 149.013 140.006C149.489 140.006 149.923 139.894 150.315 139.67C150.716 139.437 151.033 139.105 151.267 138.676C151.5 138.237 151.617 137.724 151.617 137.136ZM155.87 134.574C156.094 134.135 156.411 133.795 156.822 133.552C157.242 133.309 157.75 133.188 158.348 133.188V134.504H158.012C156.584 134.504 155.87 135.279 155.87 136.828V141H154.596V133.328H155.87V134.574ZM159.342 137.136C159.342 136.352 159.501 135.666 159.818 135.078C160.136 134.481 160.57 134.019 161.12 133.692C161.68 133.365 162.301 133.202 162.982 133.202C163.654 133.202 164.238 133.347 164.732 133.636C165.227 133.925 165.596 134.289 165.838 134.728V133.328H167.126V141H165.838V139.572C165.586 140.02 165.208 140.393 164.704 140.692C164.21 140.981 163.631 141.126 162.968 141.126C162.287 141.126 161.671 140.958 161.12 140.622C160.57 140.286 160.136 139.815 159.818 139.208C159.501 138.601 159.342 137.911 159.342 137.136ZM165.838 137.15C165.838 136.571 165.722 136.067 165.488 135.638C165.255 135.209 164.938 134.882 164.536 134.658C164.144 134.425 163.71 134.308 163.234 134.308C162.758 134.308 162.324 134.42 161.932 134.644C161.54 134.868 161.228 135.195 160.994 135.624C160.761 136.053 160.644 136.557 160.644 137.136C160.644 137.724 160.761 138.237 160.994 138.676C161.228 139.105 161.54 139.437 161.932 139.67C162.324 139.894 162.758 140.006 163.234 140.006C163.71 140.006 164.144 139.894 164.536 139.67C164.938 139.437 165.255 139.105 165.488 138.676C165.722 138.237 165.838 137.729 165.838 137.15ZM170.553 134.574C170.777 134.135 171.095 133.795 171.505 133.552C171.925 133.309 172.434 133.188 173.031 133.188V134.504H172.695C171.267 134.504 170.553 135.279 170.553 136.828V141H169.279V133.328H170.553V134.574ZM180.95 141.126C180.362 141.126 179.835 141.028 179.368 140.832C178.902 140.627 178.533 140.347 178.262 139.992C177.992 139.628 177.842 139.213 177.814 138.746H179.13C179.168 139.129 179.345 139.441 179.662 139.684C179.989 139.927 180.414 140.048 180.936 140.048C181.422 140.048 181.804 139.941 182.084 139.726C182.364 139.511 182.504 139.241 182.504 138.914C182.504 138.578 182.355 138.331 182.056 138.172C181.758 138.004 181.296 137.841 180.67 137.682C180.101 137.533 179.634 137.383 179.27 137.234C178.916 137.075 178.608 136.847 178.346 136.548C178.094 136.24 177.968 135.839 177.968 135.344C177.968 134.952 178.085 134.593 178.318 134.266C178.552 133.939 178.883 133.683 179.312 133.496C179.742 133.3 180.232 133.202 180.782 133.202C181.632 133.202 182.318 133.417 182.84 133.846C183.363 134.275 183.643 134.863 183.68 135.61H182.406C182.378 135.209 182.215 134.887 181.916 134.644C181.627 134.401 181.235 134.28 180.74 134.28C180.283 134.28 179.919 134.378 179.648 134.574C179.378 134.77 179.242 135.027 179.242 135.344C179.242 135.596 179.322 135.806 179.48 135.974C179.648 136.133 179.854 136.263 180.096 136.366C180.348 136.459 180.694 136.567 181.132 136.688C181.683 136.837 182.131 136.987 182.476 137.136C182.822 137.276 183.116 137.491 183.358 137.78C183.61 138.069 183.741 138.447 183.75 138.914C183.75 139.334 183.634 139.712 183.4 140.048C183.167 140.384 182.836 140.65 182.406 140.846C181.986 141.033 181.501 141.126 180.95 141.126ZM192.549 136.87C192.549 137.113 192.535 137.369 192.507 137.64H186.375C186.421 138.396 186.678 138.989 187.145 139.418C187.621 139.838 188.195 140.048 188.867 140.048C189.417 140.048 189.875 139.922 190.239 139.67C190.612 139.409 190.873 139.063 191.023 138.634H192.395C192.189 139.371 191.779 139.973 191.163 140.44C190.547 140.897 189.781 141.126 188.867 141.126C188.139 141.126 187.485 140.963 186.907 140.636C186.337 140.309 185.889 139.847 185.563 139.25C185.236 138.643 185.073 137.943 185.073 137.15C185.073 136.357 185.231 135.661 185.549 135.064C185.866 134.467 186.309 134.009 186.879 133.692C187.457 133.365 188.12 133.202 188.867 133.202C189.595 133.202 190.239 133.361 190.799 133.678C191.359 133.995 191.788 134.434 192.087 134.994C192.395 135.545 192.549 136.17 192.549 136.87ZM191.233 136.604C191.233 136.119 191.125 135.703 190.911 135.358C190.696 135.003 190.402 134.737 190.029 134.56C189.665 134.373 189.259 134.28 188.811 134.28C188.167 134.28 187.616 134.485 187.159 134.896C186.711 135.307 186.454 135.876 186.389 136.604H191.233ZM198.649 132.082C198.406 132.082 198.201 131.998 198.033 131.83C197.874 131.662 197.795 131.457 197.795 131.214C197.795 130.971 197.874 130.766 198.033 130.598C198.201 130.43 198.406 130.346 198.649 130.346C198.891 130.346 199.092 130.43 199.251 130.598C199.419 130.766 199.503 130.971 199.503 131.214C199.503 131.457 199.419 131.662 199.251 131.83C199.092 131.998 198.891 132.082 198.649 132.082ZM199.279 142.666C199.279 143.347 199.106 143.847 198.761 144.164C198.415 144.481 197.911 144.64 197.249 144.64H196.507V143.562H197.039C197.393 143.562 197.641 143.492 197.781 143.352C197.93 143.212 198.005 142.974 198.005 142.638V133.328H199.279V142.666ZM200.959 137.136C200.959 136.352 201.118 135.666 201.435 135.078C201.753 134.481 202.187 134.019 202.737 133.692C203.297 133.365 203.918 133.202 204.599 133.202C205.271 133.202 205.855 133.347 206.349 133.636C206.844 133.925 207.213 134.289 207.455 134.728V133.328H208.743V141H207.455V139.572C207.203 140.02 206.825 140.393 206.321 140.692C205.827 140.981 205.248 141.126 204.585 141.126C203.904 141.126 203.288 140.958 202.737 140.622C202.187 140.286 201.753 139.815 201.435 139.208C201.118 138.601 200.959 137.911 200.959 137.136ZM207.455 137.15C207.455 136.571 207.339 136.067 207.105 135.638C206.872 135.209 206.555 134.882 206.153 134.658C205.761 134.425 205.327 134.308 204.851 134.308C204.375 134.308 203.941 134.42 203.549 134.644C203.157 134.868 202.845 135.195 202.611 135.624C202.378 136.053 202.261 136.557 202.261 137.136C202.261 137.724 202.378 138.237 202.611 138.676C202.845 139.105 203.157 139.437 203.549 139.67C203.941 139.894 204.375 140.006 204.851 140.006C205.327 140.006 205.761 139.894 206.153 139.67C206.555 139.437 206.872 139.105 207.105 138.676C207.339 138.237 207.455 137.729 207.455 137.15ZM206.461 131.158L203.479 132.754V131.802L206.461 130.052V131.158ZM221.629 136.87C221.629 137.113 221.615 137.369 221.587 137.64H215.455C215.501 138.396 215.758 138.989 216.225 139.418C216.701 139.838 217.275 140.048 217.947 140.048C218.497 140.048 218.955 139.922 219.319 139.67C219.692 139.409 219.953 139.063 220.103 138.634H221.475C221.269 139.371 220.859 139.973 220.243 140.44C219.627 140.897 218.861 141.126 217.947 141.126C217.219 141.126 216.565 140.963 215.987 140.636C215.417 140.309 214.969 139.847 214.643 139.25C214.316 138.643 214.153 137.943 214.153 137.15C214.153 136.357 214.311 135.661 214.629 135.064C214.946 134.467 215.389 134.009 215.959 133.692C216.537 133.365 217.2 133.202 217.947 133.202C218.675 133.202 219.319 133.361 219.879 133.678C220.439 133.995 220.868 134.434 221.167 134.994C221.475 135.545 221.629 136.17 221.629 136.87ZM220.313 136.604C220.313 136.119 220.205 135.703 219.991 135.358C219.776 135.003 219.482 134.737 219.109 134.56C218.745 134.373 218.339 134.28 217.891 134.28C217.247 134.28 216.696 134.485 216.239 134.896C215.791 135.307 215.534 135.876 215.469 136.604H220.313ZM226.026 141.126C225.438 141.126 224.911 141.028 224.444 140.832C223.978 140.627 223.609 140.347 223.338 139.992C223.068 139.628 222.918 139.213 222.89 138.746H224.206C224.244 139.129 224.421 139.441 224.738 139.684C225.065 139.927 225.49 140.048 226.012 140.048C226.498 140.048 226.88 139.941 227.16 139.726C227.44 139.511 227.58 139.241 227.58 138.914C227.58 138.578 227.431 138.331 227.132 138.172C226.834 138.004 226.372 137.841 225.746 137.682C225.177 137.533 224.71 137.383 224.346 137.234C223.992 137.075 223.684 136.847 223.422 136.548C223.17 136.24 223.044 135.839 223.044 135.344C223.044 134.952 223.161 134.593 223.394 134.266C223.628 133.939 223.959 133.683 224.388 133.496C224.818 133.3 225.308 133.202 225.858 133.202C226.708 133.202 227.394 133.417 227.916 133.846C228.439 134.275 228.719 134.863 228.756 135.61H227.482C227.454 135.209 227.291 134.887 226.992 134.644C226.703 134.401 226.311 134.28 225.816 134.28C225.359 134.28 224.995 134.378 224.724 134.574C224.454 134.77 224.318 135.027 224.318 135.344C224.318 135.596 224.398 135.806 224.556 135.974C224.724 136.133 224.93 136.263 225.172 136.366C225.424 136.459 225.77 136.567 226.208 136.688C226.759 136.837 227.207 136.987 227.552 137.136C227.898 137.276 228.192 137.491 228.434 137.78C228.686 138.069 228.817 138.447 228.826 138.914C228.826 139.334 228.71 139.712 228.476 140.048C228.243 140.384 227.912 140.65 227.482 140.846C227.062 141.033 226.577 141.126 226.026 141.126ZM232.179 134.378V138.9C232.179 139.273 232.258 139.539 232.417 139.698C232.576 139.847 232.851 139.922 233.243 139.922H234.181V141H233.033C232.324 141 231.792 140.837 231.437 140.51C231.082 140.183 230.905 139.647 230.905 138.9V134.378H229.911V133.328H230.905V131.396H232.179V133.328H234.181V134.378H232.179ZM242.528 133.328V141H241.254V139.866C241.012 140.258 240.671 140.566 240.232 140.79C239.803 141.005 239.327 141.112 238.804 141.112C238.207 141.112 237.67 140.991 237.194 140.748C236.718 140.496 236.34 140.123 236.06 139.628C235.79 139.133 235.654 138.531 235.654 137.822V133.328H236.914V137.654C236.914 138.41 237.106 138.993 237.488 139.404C237.871 139.805 238.394 140.006 239.056 140.006C239.738 140.006 240.274 139.796 240.666 139.376C241.058 138.956 241.254 138.345 241.254 137.542V133.328H242.528ZM244.204 137.136C244.204 136.352 244.362 135.666 244.68 135.078C244.997 134.481 245.431 134.019 245.982 133.692C246.542 133.365 247.167 133.202 247.858 133.202C248.455 133.202 249.01 133.342 249.524 133.622C250.037 133.893 250.429 134.252 250.7 134.7V130.64H251.988V141H250.7V139.558C250.448 140.015 250.074 140.393 249.58 140.692C249.085 140.981 248.506 141.126 247.844 141.126C247.162 141.126 246.542 140.958 245.982 140.622C245.431 140.286 244.997 139.815 244.68 139.208C244.362 138.601 244.204 137.911 244.204 137.136ZM250.7 137.15C250.7 136.571 250.583 136.067 250.35 135.638C250.116 135.209 249.799 134.882 249.398 134.658C249.006 134.425 248.572 134.308 248.096 134.308C247.62 134.308 247.186 134.42 246.794 134.644C246.402 134.868 246.089 135.195 245.856 135.624C245.622 136.053 245.506 136.557 245.506 137.136C245.506 137.724 245.622 138.237 245.856 138.676C246.089 139.105 246.402 139.437 246.794 139.67C247.186 139.894 247.62 140.006 248.096 140.006C248.572 140.006 249.006 139.894 249.398 139.67C249.799 139.437 250.116 139.105 250.35 138.676C250.583 138.237 250.7 137.729 250.7 137.15ZM257.487 141.126C256.768 141.126 256.115 140.963 255.527 140.636C254.948 140.309 254.491 139.847 254.155 139.25C253.828 138.643 253.665 137.943 253.665 137.15C253.665 136.366 253.833 135.675 254.169 135.078C254.514 134.471 254.981 134.009 255.569 133.692C256.157 133.365 256.815 133.202 257.543 133.202C258.271 133.202 258.929 133.365 259.517 133.692C260.105 134.009 260.567 134.467 260.903 135.064C261.248 135.661 261.421 136.357 261.421 137.15C261.421 137.943 261.243 138.643 260.889 139.25C260.543 139.847 260.072 140.309 259.475 140.636C258.877 140.963 258.215 141.126 257.487 141.126ZM257.487 140.006C257.944 140.006 258.373 139.899 258.775 139.684C259.176 139.469 259.498 139.147 259.741 138.718C259.993 138.289 260.119 137.766 260.119 137.15C260.119 136.534 259.997 136.011 259.755 135.582C259.512 135.153 259.195 134.835 258.803 134.63C258.411 134.415 257.986 134.308 257.529 134.308C257.062 134.308 256.633 134.415 256.241 134.63C255.858 134.835 255.55 135.153 255.317 135.582C255.083 136.011 254.967 136.534 254.967 137.15C254.967 137.775 255.079 138.303 255.303 138.732C255.536 139.161 255.844 139.483 256.227 139.698C256.609 139.903 257.029 140.006 257.487 140.006ZM269.9 133.328V141H268.626V139.866C268.383 140.258 268.042 140.566 267.604 140.79C267.174 141.005 266.698 141.112 266.176 141.112C265.578 141.112 265.042 140.991 264.566 140.748C264.09 140.496 263.712 140.123 263.432 139.628C263.161 139.133 263.026 138.531 263.026 137.822V133.328H264.286V137.654C264.286 138.41 264.477 138.993 264.86 139.404C265.242 139.805 265.765 140.006 266.428 140.006C267.109 140.006 267.646 139.796 268.038 139.376C268.43 138.956 268.626 138.345 268.626 137.542V133.328H269.9ZM275.307 137.136C275.307 136.352 275.466 135.666 275.783 135.078C276.1 134.481 276.534 134.019 277.085 133.692C277.645 133.365 278.266 133.202 278.947 133.202C279.619 133.202 280.202 133.347 280.697 133.636C281.192 133.925 281.56 134.289 281.803 134.728V133.328H283.091V141H281.803V139.572C281.551 140.02 281.173 140.393 280.669 140.692C280.174 140.981 279.596 141.126 278.933 141.126C278.252 141.126 277.636 140.958 277.085 140.622C276.534 140.286 276.1 139.815 275.783 139.208C275.466 138.601 275.307 137.911 275.307 137.136ZM281.803 137.15C281.803 136.571 281.686 136.067 281.453 135.638C281.22 135.209 280.902 134.882 280.501 134.658C280.109 134.425 279.675 134.308 279.199 134.308C278.723 134.308 278.289 134.42 277.897 134.644C277.505 134.868 277.192 135.195 276.959 135.624C276.726 136.053 276.609 136.557 276.609 137.136C276.609 137.724 276.726 138.237 276.959 138.676C277.192 139.105 277.505 139.437 277.897 139.67C278.289 139.894 278.723 140.006 279.199 140.006C279.675 140.006 280.109 139.894 280.501 139.67C280.902 139.437 281.22 139.105 281.453 138.676C281.686 138.237 281.803 137.729 281.803 137.15ZM286.518 130.64V141H285.244V130.64H286.518ZM291.853 133.202C292.516 133.202 293.095 133.347 293.589 133.636C294.093 133.925 294.467 134.289 294.709 134.728V133.328H295.997V141.168C295.997 141.868 295.848 142.489 295.549 143.03C295.251 143.581 294.821 144.01 294.261 144.318C293.711 144.626 293.067 144.78 292.329 144.78C291.321 144.78 290.481 144.542 289.809 144.066C289.137 143.59 288.741 142.941 288.619 142.12H289.879C290.019 142.587 290.309 142.96 290.747 143.24C291.186 143.529 291.713 143.674 292.329 143.674C293.029 143.674 293.599 143.455 294.037 143.016C294.485 142.577 294.709 141.961 294.709 141.168V139.558C294.457 140.006 294.084 140.379 293.589 140.678C293.095 140.977 292.516 141.126 291.853 141.126C291.172 141.126 290.551 140.958 289.991 140.622C289.441 140.286 289.007 139.815 288.689 139.208C288.372 138.601 288.213 137.911 288.213 137.136C288.213 136.352 288.372 135.666 288.689 135.078C289.007 134.481 289.441 134.019 289.991 133.692C290.551 133.365 291.172 133.202 291.853 133.202ZM294.709 137.15C294.709 136.571 294.593 136.067 294.359 135.638C294.126 135.209 293.809 134.882 293.407 134.658C293.015 134.425 292.581 134.308 292.105 134.308C291.629 134.308 291.195 134.42 290.803 134.644C290.411 134.868 290.099 135.195 289.865 135.624C289.632 136.053 289.515 136.557 289.515 137.136C289.515 137.724 289.632 138.237 289.865 138.676C290.099 139.105 290.411 139.437 290.803 139.67C291.195 139.894 291.629 140.006 292.105 140.006C292.581 140.006 293.015 139.894 293.407 139.67C293.809 139.437 294.126 139.105 294.359 138.676C294.593 138.237 294.709 137.729 294.709 137.15ZM301.496 141.126C300.778 141.126 300.124 140.963 299.536 140.636C298.958 140.309 298.5 139.847 298.164 139.25C297.838 138.643 297.674 137.943 297.674 137.15C297.674 136.366 297.842 135.675 298.178 135.078C298.524 134.471 298.99 134.009 299.578 133.692C300.166 133.365 300.824 133.202 301.552 133.202C302.28 133.202 302.938 133.365 303.526 133.692C304.114 134.009 304.576 134.467 304.912 135.064C305.258 135.661 305.43 136.357 305.43 137.15C305.43 137.943 305.253 138.643 304.898 139.25C304.553 139.847 304.082 140.309 303.484 140.636C302.887 140.963 302.224 141.126 301.496 141.126ZM301.496 140.006C301.954 140.006 302.383 139.899 302.784 139.684C303.186 139.469 303.508 139.147 303.75 138.718C304.002 138.289 304.128 137.766 304.128 137.15C304.128 136.534 304.007 136.011 303.764 135.582C303.522 135.153 303.204 134.835 302.812 134.63C302.42 134.415 301.996 134.308 301.538 134.308C301.072 134.308 300.642 134.415 300.25 134.63C299.868 134.835 299.56 135.153 299.326 135.582C299.093 136.011 298.976 136.534 298.976 137.15C298.976 137.775 299.088 138.303 299.312 138.732C299.546 139.161 299.854 139.483 300.236 139.698C300.619 139.903 301.039 140.006 301.496 140.006ZM314.184 141.126C313.465 141.126 312.812 140.963 312.224 140.636C311.645 140.309 311.188 139.847 310.852 139.25C310.525 138.643 310.362 137.943 310.362 137.15C310.362 136.366 310.53 135.675 310.866 135.078C311.211 134.471 311.678 134.009 312.266 133.692C312.854 133.365 313.512 133.202 314.24 133.202C314.968 133.202 315.626 133.365 316.214 133.692C316.802 134.009 317.264 134.467 317.6 135.064C317.945 135.661 318.118 136.357 318.118 137.15C318.118 137.943 317.94 138.643 317.586 139.25C317.24 139.847 316.769 140.309 316.172 140.636C315.574 140.963 314.912 141.126 314.184 141.126ZM314.184 140.006C314.641 140.006 315.07 139.899 315.472 139.684C315.873 139.469 316.195 139.147 316.438 138.718C316.69 138.289 316.816 137.766 316.816 137.15C316.816 136.534 316.694 136.011 316.452 135.582C316.209 135.153 315.892 134.835 315.5 134.63C315.108 134.415 314.683 134.308 314.226 134.308C313.759 134.308 313.33 134.415 312.938 134.63C312.555 134.835 312.247 135.153 312.014 135.582C311.78 136.011 311.664 136.534 311.664 137.15C311.664 137.775 311.776 138.303 312 138.732C312.233 139.161 312.541 139.483 312.924 139.698C313.306 139.903 313.726 140.006 314.184 140.006ZM326.597 133.328V141H325.323V139.866C325.08 140.258 324.74 140.566 324.301 140.79C323.872 141.005 323.396 141.112 322.873 141.112C322.276 141.112 321.739 140.991 321.263 140.748C320.787 140.496 320.409 140.123 320.129 139.628C319.858 139.133 319.723 138.531 319.723 137.822V133.328H320.983V137.654C320.983 138.41 321.174 138.993 321.557 139.404C321.94 139.805 322.462 140.006 323.125 140.006C323.806 140.006 324.343 139.796 324.735 139.376C325.127 138.956 325.323 138.345 325.323 137.542V133.328H326.597ZM51.816 154.188C52.7493 154.188 53.5053 154.473 54.084 155.042C54.6627 155.602 54.952 156.414 54.952 157.478V162H53.692V157.66C53.692 156.895 53.5007 156.311 53.118 155.91C52.7353 155.499 52.2127 155.294 51.55 155.294C50.878 155.294 50.3413 155.504 49.94 155.924C49.548 156.344 49.352 156.955 49.352 157.758V162H48.078V154.328H49.352V155.42C49.604 155.028 49.9447 154.725 50.374 154.51C50.8127 154.295 51.2933 154.188 51.816 154.188ZM56.5571 158.136C56.5571 157.352 56.7157 156.666 57.0331 156.078C57.3504 155.481 57.7844 155.019 58.3351 154.692C58.8951 154.365 59.5157 154.202 60.1971 154.202C60.8691 154.202 61.4524 154.347 61.9471 154.636C62.4417 154.925 62.8104 155.289 63.0531 155.728V154.328H64.3411V162H63.0531V160.572C62.8011 161.02 62.4231 161.393 61.9191 161.692C61.4244 161.981 60.8457 162.126 60.1831 162.126C59.5017 162.126 58.8857 161.958 58.3351 161.622C57.7844 161.286 57.3504 160.815 57.0331 160.208C56.7157 159.601 56.5571 158.911 56.5571 158.136ZM63.0531 158.15C63.0531 157.571 62.9364 157.067 62.7031 156.638C62.4697 156.209 62.1524 155.882 61.7511 155.658C61.3591 155.425 60.9251 155.308 60.4491 155.308C59.9731 155.308 59.5391 155.42 59.1471 155.644C58.7551 155.868 58.4424 156.195 58.2091 156.624C57.9757 157.053 57.8591 157.557 57.8591 158.136C57.8591 158.724 57.9757 159.237 58.2091 159.676C58.4424 160.105 58.7551 160.437 59.1471 160.67C59.5391 160.894 59.9731 161.006 60.4491 161.006C60.9251 161.006 61.3591 160.894 61.7511 160.67C62.1524 160.437 62.4697 160.105 62.7031 159.676C62.9364 159.237 63.0531 158.729 63.0531 158.15ZM58.6431 153.502C58.7084 153.026 58.8624 152.662 59.1051 152.41C59.3571 152.158 59.6697 152.032 60.0431 152.032C60.2204 152.032 60.3697 152.065 60.4911 152.13C60.6217 152.186 60.7757 152.27 60.9531 152.382C61.0837 152.475 61.2004 152.55 61.3031 152.606C61.4057 152.653 61.5177 152.676 61.6391 152.676C61.7977 152.676 61.9331 152.625 62.0451 152.522C62.1571 152.419 62.2271 152.27 62.2551 152.074H62.9831C62.9271 152.541 62.7731 152.9 62.5211 153.152C62.2691 153.404 61.9564 153.53 61.5831 153.53C61.4057 153.53 61.2471 153.502 61.1071 153.446C60.9764 153.381 60.8271 153.287 60.6591 153.166C60.5097 153.073 60.3884 153.003 60.2951 152.956C60.2111 152.909 60.1084 152.886 59.9871 152.886C59.8284 152.886 59.6931 152.937 59.5811 153.04C59.4784 153.143 59.4131 153.297 59.3851 153.502H58.6431ZM69.84 162.126C69.1213 162.126 68.468 161.963 67.88 161.636C67.3013 161.309 66.844 160.847 66.508 160.25C66.1813 159.643 66.018 158.943 66.018 158.15C66.018 157.366 66.186 156.675 66.522 156.078C66.8673 155.471 67.334 155.009 67.922 154.692C68.51 154.365 69.168 154.202 69.896 154.202C70.624 154.202 71.282 154.365 71.87 154.692C72.458 155.009 72.92 155.467 73.256 156.064C73.6013 156.661 73.774 157.357 73.774 158.15C73.774 158.943 73.5967 159.643 73.242 160.25C72.8967 160.847 72.4253 161.309 71.828 161.636C71.2307 161.963 70.568 162.126 69.84 162.126ZM69.84 161.006C70.2973 161.006 70.7267 160.899 71.128 160.684C71.5293 160.469 71.8513 160.147 72.094 159.718C72.346 159.289 72.472 158.766 72.472 158.15C72.472 157.534 72.3507 157.011 72.108 156.582C71.8653 156.153 71.548 155.835 71.156 155.63C70.764 155.415 70.3393 155.308 69.882 155.308C69.4153 155.308 68.986 155.415 68.594 155.63C68.2113 155.835 67.9033 156.153 67.67 156.582C67.4367 157.011 67.32 157.534 67.32 158.15C67.32 158.775 67.432 159.303 67.656 159.732C67.8893 160.161 68.1973 160.483 68.58 160.698C68.9627 160.903 69.3827 161.006 69.84 161.006ZM75.8551 162.084C75.6124 162.084 75.4071 162 75.2391 161.832C75.0711 161.664 74.9871 161.459 74.9871 161.216C74.9871 160.973 75.0711 160.768 75.2391 160.6C75.4071 160.432 75.6124 160.348 75.8551 160.348C76.0884 160.348 76.2844 160.432 76.4431 160.6C76.6111 160.768 76.6951 160.973 76.6951 161.216C76.6951 161.459 76.6111 161.664 76.4431 161.832C76.2844 162 76.0884 162.084 75.8551 162.084Z" fill="white"/>
<path d="M77 215C77 204.507 85.5066 196 96 196H465C475.493 196 484 204.507 484 215V373H77V215Z" fill="#F2F2F2"/>
<rect x="235" y="262" width="108" height="45" rx="22.5" fill="#88B6FF"/>
<ellipse cx="254" cy="284.5" rx="35" ry="34.5" fill="#5B93FF"/>
<defs>
<linearGradient id="paint0_linear_19_3" x1="563" y1="0" x2="936" y2="563" gradientUnits="userSpaceOnUse">
<stop/>
<stop offset="1" stop-opacity="0"/>
</linearGradient>
</defs>
</svg>
