<svg width="159" height="272" viewBox="0 0 159 272" fill="none" xmlns="http://www.w3.org/2000/svg">
<path d="M128.96 65.77C128.96 66.0967 129.027 66.3733 129.16 66.6C129.273 66.7867 129.497 66.91 129.83 66.97C135.01 67.9033 139.017 70.4733 141.85 74.68C143.03 76.44 143.42 79.18 144.56 81.31C144.773 81.71 144.88 81.68 144.88 81.22V80.46C144.88 80.1667 145.017 80.0733 145.29 80.18L145.64 80.32C145.725 80.3543 145.8 80.4086 145.86 80.4783C145.919 80.548 145.961 80.631 145.982 80.7203C146.003 80.8096 146.001 80.9026 145.978 80.9913C145.955 81.08 145.911 81.1619 145.85 81.23C144.857 82.3033 144.96 83.3433 146.16 84.35C146.467 84.61 146.667 84.5433 146.76 84.15C147.133 82.6433 147.723 81.2367 148.53 79.93C149.637 78.13 150.35 76.8133 150.67 75.98C155.26 64.04 155.87 52.14 154.6 38.81C154.367 36.3367 153.74 33.7067 152.72 30.92C151.567 27.74 150.48 24.5333 149.46 21.3C148.74 19.0067 147.763 16.94 146.53 15.1C142.36 8.92 139.85 4.92 134.03 1.63C133.77 1.47666 133.497 1.45333 133.21 1.56C129.85 2.84 131.45 7.16 131.58 9.55C131.593 9.82333 131.737 9.99333 132.01 10.06C134.437 10.6667 136.05 12.1367 136.85 14.47C136.88 14.559 136.878 14.6558 136.844 14.7434C136.81 14.831 136.747 14.9039 136.664 14.9492C136.582 14.9946 136.486 15.0095 136.394 14.9913C136.302 14.9732 136.219 14.9231 136.16 14.85L134.63 12.94C134.545 12.833 134.439 12.7449 134.318 12.6812C134.198 12.6175 134.065 12.5796 133.93 12.57L128.44 12.14C128.284 12.1279 128.126 12.1521 127.981 12.2107C127.835 12.2693 127.705 12.3607 127.601 12.4778C127.496 12.5948 127.42 12.7345 127.378 12.8857C127.337 13.037 127.33 13.1959 127.36 13.35C128.06 17.1033 129.31 20.4733 131.11 23.46C131.857 24.6933 132.337 25.9567 132.55 27.25C133.057 30.31 133.853 33.29 134.94 36.19C135.58 37.8767 135.88 39.4767 135.84 40.99C135.733 45.4833 135.41 48.7833 134.87 50.89C134.083 53.99 133.753 56.5133 133.88 58.46C133.907 58.84 133.84 59.2033 133.68 59.55L130.77 65.64C130.61 65.98 130.37 66.0533 130.05 65.86L129.27 65.38" stroke="#808080" stroke-width="2"/>
<path d="M138.01 211.48C134.823 213.1 132.24 215.487 130.26 218.64C130.073 218.94 130.043 219.257 130.17 219.59C130.617 220.697 131.367 221.49 132.42 221.97C132.547 222.029 132.658 222.118 132.745 222.229C132.832 222.34 132.892 222.47 132.92 222.61L134.33 229.73C134.372 229.925 134.479 230.101 134.633 230.228C134.787 230.355 134.98 230.427 135.179 230.431C135.379 230.436 135.574 230.373 135.734 230.253C135.894 230.133 136.009 229.963 136.06 229.77C136.82 226.74 133.7 221.47 132.36 218.8C132.293 218.673 132.273 218.527 132.304 218.387C132.335 218.247 132.416 218.123 132.531 218.038C132.645 217.952 132.787 217.91 132.93 217.92C133.073 217.929 133.208 217.99 133.31 218.09C135.72 220.35 137.38 225.81 138.77 228.95C138.811 229.048 138.885 229.128 138.978 229.177C139.072 229.226 139.18 229.24 139.284 229.218C139.389 229.196 139.483 229.138 139.551 229.055C139.62 228.971 139.658 228.867 139.66 228.76L139.62 212.73" stroke="#808080" stroke-width="2"/>
<path d="M79.12 253C80.9 254.44 82.8333 255.037 84.92 254.79C85.2467 254.757 85.26 254.677 84.96 254.55C82.45 253.49 77.51 250.56 78.91 247.05C78.936 246.98 78.9431 246.905 78.9305 246.832C78.9179 246.759 78.8861 246.69 78.8383 246.633C78.7905 246.576 78.7284 246.533 78.6585 246.508C78.5885 246.483 78.5131 246.476 78.44 246.49C73.62 247.483 69.4533 249.447 65.94 252.38C65.5133 252.74 65.4 253.17 65.6 253.67" stroke="#808080" stroke-width="2"/>
<path d="M41.81 254.2C42.0767 253.007 41.9 251.75 41.28 250.43C41.2733 250.41 41.28 250.397 41.3 250.39C41.3133 250.39 41.3233 250.39 41.33 250.39C41.3767 250.377 41.3967 250.393 41.39 250.44L40.96 253.77" stroke="#808080" stroke-width="2"/>
<path d="M33.67 250.46C32.8433 246.767 32.68 242.913 33.18 238.9C33.22 238.593 33.0867 238.43 32.78 238.41C32.5267 238.397 32.38 238.457 32.34 238.59C31.0733 243.31 31.3333 247.893 33.12 252.34" stroke="#808080" stroke-width="2"/>
<path d="M17.58 252.96C15.82 254.84 15.6633 257.45 17.11 260.79" stroke="#808080" stroke-width="2"/>
<path d="M74.69 250.98C73.82 250.21 72.74 250.79 72.24 251.73C71.5267 253.083 70.82 254.443 70.12 255.81C69.9733 256.103 69.7333 256.24 69.4 256.22C68.6533 256.167 68.2767 255.67 68.27 254.73C68.27 254.397 68.38 254.103 68.6 253.85L70.91 251.2C71.05 251.033 71.07 250.857 70.97 250.67C70.9033 250.55 70.84 250.427 70.78 250.3C70.6533 250.047 70.4867 250.017 70.28 250.21L66.56 253.66" stroke="#808080" stroke-width="2"/>
<path d="M73.16 84.06L72.06 83.12C72.0015 83.0703 71.9305 83.0376 71.8547 83.0254C71.7789 83.0132 71.7013 83.0221 71.6302 83.0509C71.559 83.0798 71.4972 83.1276 71.4513 83.1891C71.4054 83.2507 71.3773 83.3236 71.37 83.4C71.2633 84.6133 71.2367 85.81 71.29 86.99C71.3233 87.6633 71.0867 88.0833 70.58 88.25C70.18 88.3833 69.9767 88.24 69.97 87.82L69.91 81.62C69.914 81.5113 69.8746 81.4054 69.8005 81.3257C69.7264 81.246 69.6237 81.199 69.515 81.195C69.4063 81.191 69.3004 81.2304 69.2207 81.3045C69.141 81.3786 69.094 81.4813 69.09 81.59L68.9 83.82C68.8956 83.8578 68.8824 83.894 68.8613 83.9257C68.8402 83.9573 68.8119 83.9835 68.7787 84.0021C68.7455 84.0206 68.7083 84.031 68.6703 84.0324C68.6323 84.0338 68.5945 84.0261 68.56 84.01C68.4867 83.9767 68.41 83.9433 68.33 83.91C68.0767 83.8167 67.9933 83.6433 68.08 83.39C68.8333 81.0767 68.3333 79.0867 66.58 77.42C66.3867 77.2333 66.22 77.2567 66.08 77.49C66.0333 77.5767 66.01 77.6667 66.01 77.76C65.97 78.4933 65.8 78.49 65.5 77.75C64.26 74.7167 63.0833 71.6633 61.97 68.59C60.7967 65.3633 60.1567 62.3333 60.05 59.5C59.7167 50.5867 61.4433 42.0833 65.23 33.99C67.03 30.13 70.17 28.6 71.32 24.12C71.9 21.8733 72.81 19.7567 74.05 17.77C74.2433 17.4567 74.29 17.1233 74.19 16.77C73.71 15.0167 72.58 13.8633 70.8 13.31C70.38 13.1767 70.11 13.3233 69.99 13.75L68.63 18.56C68.5955 18.6905 68.5247 18.8082 68.4258 18.8998C68.3269 18.9914 68.2037 19.0533 68.0704 19.0783C67.937 19.1033 67.7988 19.0904 67.6715 19.0413C67.5441 18.9921 67.4327 18.9085 67.35 18.8C66.36 17.5 66.61 15.77 67.2 14.09C68.38 10.7433 68.83 7.30001 68.55 3.76001C68.4433 2.42667 68.0133 1.58667 67.26 1.24C66.7533 1.00667 66.2833 1.06667 65.85 1.42C60.01 6.26 56.52 10.54 52.7 17.25C49.42 23 46.55 27.24 44.19 34.69C42.7167 39.3567 41.65 43.0733 40.99 45.84C37.9233 58.8067 38.47 71.7533 42.63 84.68C45.23 92.76 48.74 99.82 55.26 104.16C55.437 104.278 55.5827 104.437 55.6843 104.624C55.786 104.811 55.8407 105.019 55.8437 105.232C55.8466 105.445 55.7978 105.655 55.7013 105.844C55.6048 106.034 55.4637 106.197 55.29 106.32C51.52 108.98 43.92 97.75 42.46 95.17C42.2467 94.7967 42.08 94.8167 41.96 95.23C39.93 102.18 40.71 112.11 41.48 120.01C41.88 124.1 41.29 129.08 43.1 133.41C44.8 137.483 46.8867 140.73 49.36 143.15C53.4867 147.177 57.8133 150.923 62.34 154.39C62.4607 154.483 62.6049 154.54 62.7564 154.556C62.9079 154.571 63.0608 154.544 63.1978 154.478C63.3348 154.412 63.4507 154.308 63.5323 154.18C63.614 154.051 63.6582 153.902 63.66 153.75L63.94 138.28C63.9733 136.313 64.9067 135.693 66.74 136.42C69.5067 137.513 72.3567 138.347 75.29 138.92C75.65 138.987 75.9767 139.13 76.27 139.35L79.02 141.43C79.4467 141.75 79.6033 141.65 79.49 141.13C78.77 137.683 79.0533 134.07 80.34 130.29C83.2 121.88 88.9 110.47 100.06 117.04C100.367 117.227 100.517 117.5 100.51 117.86C100.47 119.393 101.037 120.587 102.21 121.44C102.483 121.647 102.637 121.92 102.67 122.26C102.9 124.65 103.54 126.45 102.84 128.85C101.92 132.01 101.7 135.12 100.31 138.15C99.73 139.423 99.2 140.72 98.72 142.04C97.45 145.53 93.13 149.55 89.42 146.27C89.2933 146.163 89.1567 146.14 89.01 146.2C88.9167 146.24 88.82 146.28 88.72 146.32C88.6852 146.333 88.6544 146.355 88.6308 146.383C88.6071 146.412 88.5915 146.446 88.5854 146.483C88.5793 146.519 88.583 146.557 88.5961 146.591C88.6092 146.626 88.6312 146.657 88.66 146.68C90.7067 148.36 92.9967 149.457 95.53 149.97C97.0833 150.283 98.4867 150.723 99.74 151.29C102.72 152.64 105.66 152.81 108.64 154.2C112.413 155.967 116.44 156.757 120.72 156.57C120.878 156.564 121.032 156.515 121.165 156.429C121.299 156.343 121.407 156.222 121.48 156.08L122.35 154.35C122.455 154.148 122.618 153.98 122.82 153.87C127.08 151.66 132.05 149.62 135.04 146.01C137.433 143.123 139.193 139.857 140.32 136.21C141.09 133.74 142.6 132.2 143.12 129.46C143.613 126.86 144.22 124.28 144.94 121.72C145.033 121.393 145.04 121.067 144.96 120.74C144.32 118.04 146.17 116.6 146.6 114.61C146.98 112.85 147.19 111.06 147.23 109.24C147.233 109.103 147.206 108.966 147.148 108.839C147.091 108.713 147.006 108.601 146.9 108.51L146.18 107.9C145.893 107.653 145.743 107.34 145.73 106.96C145.483 99.5533 144.457 92.5767 142.65 86.03C140.74 79.08 136.28 72.9 129.66 69.75C127.493 68.7233 125.283 67.8067 123.03 67C120.623 66.14 117.537 65.52 113.77 65.14C106.92 64.45 99.74 62.75 93.38 62.79C84.1067 62.8367 74.8 64.1267 65.46 66.66C65.2569 66.7159 65.0695 66.8182 64.9127 66.9588C64.7559 67.0995 64.6339 67.2747 64.5563 67.4705C64.4787 67.6664 64.4477 67.8776 64.4657 68.0875C64.4837 68.2974 64.5502 68.5002 64.66 68.68L73.79 83.53C73.8466 83.6133 73.8703 83.7138 73.8565 83.8127C73.8427 83.9115 73.7925 84.0019 73.7152 84.0669C73.6379 84.132 73.5389 84.1671 73.4367 84.1658C73.3345 84.1646 73.2361 84.1269 73.16 84.06Z" stroke="#808080" stroke-width="2"/>
<path d="M95.45 142.28C94.6767 142.68 94.03 143.22 93.51 143.9C93.1833 144.34 93.27 144.453 93.77 144.24C95.1433 143.647 96.1233 142.797 96.71 141.69C98.25 138.803 99.4767 135.41 100.39 131.51C101.163 128.203 101.043 124.523 100.03 120.47C100.017 120.403 99.9833 120.35 99.93 120.31C99.85 120.25 99.7667 120.187 99.68 120.12C99.6643 120.105 99.6438 120.096 99.6223 120.095C99.6007 120.095 99.5795 120.101 99.5626 120.115C99.5456 120.128 99.534 120.147 99.5298 120.168C99.5257 120.189 99.5293 120.211 99.54 120.23C101.7 126.48 98.82 136.03 96.16 141.55C96.0067 141.87 95.77 142.113 95.45 142.28Z" stroke="#808080" stroke-width="2"/>
<path d="M64.2 199.39L63.29 198.53C63.01 198.263 62.88 198.327 62.9 198.72C63.0733 201.553 63.1067 204.397 63 207.25C62.82 212.09 64.89 214.59 69.43 216.41C73.06 217.86 76.58 219.57 80.16 220.82C88.4867 223.733 96.7967 226.7 105.09 229.72C106.27 230.15 107.63 230.04 108.76 229.76C108.843 229.736 108.915 229.684 108.964 229.613C109.014 229.542 109.037 229.456 109.031 229.37C109.026 229.284 108.991 229.202 108.932 229.139C108.874 229.075 108.795 229.033 108.71 229.02C106.043 228.72 103.577 228.15 101.31 227.31C98.2767 226.19 96.18 225.483 95.02 225.19C91.2133 224.223 87.87 223.097 84.99 221.81C79.0367 219.15 73.0433 216.567 67.01 214.06C64.7433 213.12 64.0067 211.667 64.8 209.7C64.8178 209.667 64.8463 209.64 64.881 209.625C64.9156 209.609 64.9544 209.606 64.9912 209.615C65.028 209.624 65.0607 209.646 65.084 209.675C65.1073 209.705 65.12 209.742 65.12 209.78C65.03 210.63 65.56 211.44 66.33 211.91C74.2367 216.857 82.7166 220.317 91.77 222.29C96.53 223.323 99.81 224.113 101.61 224.66C104.903 225.66 108.18 226.703 111.44 227.79C111.813 227.917 112.157 227.857 112.47 227.61L113.92 226.47C114.028 226.384 114.161 226.335 114.299 226.331C114.436 226.328 114.57 226.369 114.68 226.45L115.78 227.26C116.027 227.433 116.283 227.45 116.55 227.31C118.29 226.41 119.827 225.29 121.16 223.95C125.38 219.71 129.87 216.18 134.53 212.44C135.63 211.553 136.42 210.477 136.9 209.21C138.807 204.163 140.233 198.977 141.18 193.65C141.24 193.343 141.343 193.053 141.49 192.78L142.5 190.92C142.58 190.777 142.618 190.614 142.609 190.451C142.601 190.288 142.545 190.132 142.45 190L138.73 184.87C138.517 184.57 138.467 184.243 138.58 183.89C139.8 180.09 142.237 177.347 145.89 175.66C146.223 175.507 146.483 175.273 146.67 174.96C148.183 172.44 149.377 169.373 150.25 165.76C151.063 162.387 152.513 158.673 154.6 154.62C156.19 151.52 156.24 148.77 156.94 145.52C156.978 145.361 156.956 145.194 156.878 145.052C156.8 144.91 156.671 144.801 156.516 144.748C156.361 144.695 156.191 144.7 156.039 144.763C155.886 144.826 155.762 144.943 155.69 145.09C153.92 148.64 151.23 149.27 149.05 151.13C143.143 156.163 138.633 159.65 135.52 161.59C132.14 163.69 128.51 161.5 125.13 161.31C123.557 161.223 122.327 161.05 121.44 160.79C118.44 159.917 115.44 159.067 112.44 158.24C110.767 157.773 108.583 156.903 105.89 155.63C103.443 154.477 100.893 153.603 98.24 153.01C95.9466 152.503 94.0467 151.863 92.54 151.09C89.5467 149.57 86.56 148.033 83.58 146.48C83.2733 146.327 81.6667 145.283 78.76 143.35C77.02 142.19 75.07 141.403 72.91 140.99C72.6777 140.938 72.4716 140.803 72.33 140.61C71.49 139.417 70.31 138.977 68.79 139.29C68.5961 139.329 68.397 139.297 68.23 139.2L66.55 138.3C66.11 138.067 65.88 138.2 65.86 138.7L64.64 165.39C64.6267 165.657 64.6533 165.923 64.72 166.19C65.0733 167.623 65.06 169.043 64.68 170.45C64.6481 170.568 64.5758 170.671 64.4757 170.741C64.3755 170.811 64.254 170.843 64.1323 170.832C64.0106 170.822 63.8966 170.768 63.8103 170.682C63.7239 170.596 63.6707 170.482 63.66 170.36L63.53 168.83C63.5215 168.712 63.4779 168.6 63.4048 168.507C63.3317 168.414 63.2325 168.346 63.12 168.31L61.45 167.76C61.0567 167.627 60.9433 167.373 61.11 167C61.53 166.04 62.22 165.423 63.18 165.15C63.315 165.114 63.4334 165.031 63.5153 164.917C63.5972 164.802 63.6377 164.662 63.63 164.52L63.36 159.64C63.3467 159.367 63.21 159.197 62.95 159.13C58.8967 158.063 55.57 155.863 52.97 152.53C52.8729 152.404 52.7347 152.316 52.5794 152.281C52.4241 152.246 52.2615 152.267 52.12 152.34C47.14 154.84 42.23 156.91 37.92 160.4C28.83 167.75 20.08 176.16 13.98 186.16C10.9333 191.153 8.63666 195.77 7.08999 200.01C4.41666 207.297 3.07 215.25 3.05 223.87C3.03666 229.203 3.66332 234.063 4.92999 238.45C6.30999 243.223 8.29999 247.757 10.9 252.05C11.75 253.45 13.09 254.67 14.19 255.92C14.55 256.333 14.7233 256.267 14.71 255.72C14.5633 251.327 15.2833 247.11 16.87 243.07C17.81 240.69 17.21 239.8 16.37 237.6C15.6033 235.593 15.61 233.407 16.39 231.04C16.5633 230.527 16.6967 230.533 16.79 231.06C17.8433 237.04 19.4667 242.093 21.66 246.22C22.5 247.793 23.1467 249.153 23.6 250.3C25.39 254.84 28.11 258.7 30.26 263.08C30.4667 263.493 30.63 263.477 30.75 263.03C31.0633 261.903 31.02 260.567 30.62 259.02C29.8733 256.14 29.31 252.76 28.93 248.88C28.63 245.86 28.6267 242.44 28.92 238.62C29.2933 233.867 29.7033 229.113 30.15 224.36C30.5633 219.9 31.3467 215.21 32.5 210.29C33.6733 205.25 34.8 200.193 35.88 195.12C36.78 190.89 39.6 187.36 41.06 183.13C41.1259 182.939 41.2353 182.765 41.38 182.62L42.38 181.65C42.54 181.49 42.6067 181.297 42.58 181.07C42.2733 178.977 42.3867 176.917 42.92 174.89C42.9454 174.787 43.0031 174.695 43.0849 174.628C43.1666 174.56 43.2681 174.521 43.3749 174.516C43.4816 174.51 43.588 174.539 43.6787 174.597C43.7695 174.655 43.84 174.74 43.88 174.84L44.98 177.63C45.0064 177.696 45.0503 177.755 45.1069 177.799C45.1636 177.842 45.2307 177.87 45.301 177.878C45.3712 177.886 45.4419 177.875 45.5053 177.845C45.5686 177.816 45.6221 177.769 45.66 177.71C46.3333 176.677 47.0733 175.697 47.88 174.77C49.42 172.99 52.28 167.75 55.35 168.43C55.65 168.497 55.92 168.437 56.16 168.25C57 167.603 57.9367 167.21 58.97 167.07C59.35 167.023 59.5667 167.19 59.62 167.57C59.94 169.817 61.1733 171.213 63.32 171.76C64.1533 171.973 64.6767 172.35 64.89 172.89C64.9633 173.097 65.0767 173.28 65.23 173.44C70.09 178.44 73.69 183.87 71.89 191.24C70.55 196.73 62.67 195.9 58.5 195.16C55.68 194.66 52.95 192.8 49.63 192.38C49.11 192.313 48.4833 191.913 47.75 191.18C47.4633 190.893 47.2933 190.95 47.24 191.35C47.1933 191.67 47.3733 191.957 47.78 192.21C51.7933 194.683 55.9733 196.1 60.32 196.46C60.5867 196.48 60.7767 196.61 60.89 196.85L61.3 197.72C61.4733 198.093 61.6533 198.097 61.84 197.73C61.9133 197.583 61.9167 197.447 61.85 197.32C61.5367 196.707 61.6333 196.43 62.14 196.49L63.92 196.7C64.2667 196.74 64.4567 196.937 64.49 197.29L64.64 199.19C64.6733 199.637 64.5267 199.703 64.2 199.39Z" stroke="#808080" stroke-width="2"/>
<path d="M86.2469 145.167C86.2719 145.128 86.2556 145.063 86.1989 144.976C86.1422 144.889 86.0463 144.781 85.9166 144.658C85.7868 144.535 85.6259 144.401 85.4429 144.261C85.26 144.122 85.0585 143.981 84.8501 143.846C84.6417 143.711 84.4304 143.585 84.2283 143.476C84.0262 143.366 83.8373 143.274 83.6723 143.206C83.5073 143.138 83.3694 143.095 83.2666 143.079C83.1638 143.063 83.0981 143.075 83.0731 143.113C83.0481 143.152 83.0644 143.217 83.1211 143.304C83.1778 143.391 83.2737 143.499 83.4034 143.622C83.5332 143.745 83.6941 143.879 83.8771 144.019C84.0601 144.158 84.2615 144.299 84.4699 144.434C84.6783 144.569 84.8896 144.695 85.0917 144.804C85.2938 144.914 85.4827 145.006 85.6477 145.074C85.8127 145.142 85.9506 145.185 86.0534 145.201C86.1562 145.217 86.222 145.205 86.2469 145.167Z" stroke="#808080" stroke-width="2"/>
<path d="M88.6481 251.269C88.8175 251.141 88.838 250.83 88.705 250.404C88.572 249.979 88.2964 249.473 87.9389 248.999C87.7619 248.764 87.57 248.543 87.3744 248.351C87.1787 248.158 86.983 247.996 86.7985 247.875C86.614 247.753 86.4442 247.674 86.299 247.643C86.1537 247.612 86.0358 247.628 85.9519 247.691C85.7825 247.819 85.762 248.13 85.895 248.556C86.028 248.981 86.3036 249.487 86.6611 249.961C86.8381 250.196 87.03 250.417 87.2256 250.609C87.4213 250.802 87.617 250.964 87.8015 251.085C87.986 251.207 88.1557 251.286 88.301 251.317C88.4463 251.349 88.5642 251.332 88.6481 251.269Z" stroke="#808080" stroke-width="2"/>
<path d="M72.3 86.95C72.1933 87.3433 72.2433 87.7 72.45 88.02C72.63 88.2933 72.7933 88.2867 72.94 88C73.5133 86.9 73.3867 85.96 72.56 85.18C72.536 85.1584 72.5068 85.1433 72.4753 85.1361C72.4438 85.1289 72.411 85.1298 72.38 85.1388C72.3489 85.1478 72.3207 85.1646 72.298 85.1876C72.2752 85.2105 72.2587 85.2389 72.25 85.27C72.1367 85.6567 72.1433 86.04 72.27 86.42C72.33 86.5933 72.34 86.77 72.3 86.95Z" stroke="#808080" stroke-width="2"/>
<path d="M121.74 129.83C119.81 133.5 117.24 141.42 119.27 146.04C119.339 146.2 119.45 146.337 119.591 146.438C119.732 146.538 119.898 146.598 120.07 146.61C122.157 146.77 123.6 146.523 124.4 145.87C130.827 140.61 134.957 133.953 136.79 125.9C136.863 125.58 137.007 125.26 137.22 124.94C138.63 122.8 137.25 119.55 136.44 117.37C136.333 117.077 136.15 116.84 135.89 116.66C133.583 115.053 131.477 115.033 129.57 116.6C127.597 118.22 126.017 120.857 124.83 124.51C124.73 124.817 124.553 125.063 124.3 125.25C122.72 126.46 122.38 128.6 121.74 129.83Z" stroke="#808080" stroke-width="2"/>
<path d="M134.34 119L135.22 119.35C135.291 119.377 135.369 119.382 135.443 119.366C135.518 119.35 135.586 119.313 135.639 119.26C135.692 119.207 135.728 119.14 135.743 119.067C135.757 118.994 135.749 118.919 135.72 118.85C135.407 118.097 134.83 117.587 133.99 117.32C133.243 117.08 132.917 117.347 133.01 118.12C133.143 119.22 133.077 120.36 132.81 121.54C132.74 121.913 132.816 122.282 133.025 122.575C133.233 122.868 133.558 123.065 133.937 123.128C134.316 123.19 134.721 123.113 135.075 122.912C135.428 122.711 135.705 122.4 135.85 122.04C135.983 121.673 135.38 120.81 134.04 119.45C133.999 119.404 133.975 119.345 133.971 119.284C133.967 119.222 133.983 119.161 134.017 119.11C134.052 119.059 134.102 119.02 134.16 119C134.218 118.98 134.282 118.98 134.34 119Z" stroke="#808080" stroke-width="2"/>
<path d="M133.34 127.87L134.97 124.68C135.117 124.4 135.047 124.187 134.76 124.04L133.49 123.41C133.243 123.29 133.08 123.36 133 123.62L132.37 125.6C132.339 125.697 132.33 125.8 132.344 125.902C132.358 126.004 132.394 126.102 132.45 126.19C132.99 127.01 133.043 127.777 132.61 128.49C131.4 130.47 130.74 132.73 130.18 134.97C130.087 135.357 130.213 135.453 130.56 135.26C130.707 135.173 130.817 135.043 130.89 134.87C131.65 132.99 133.43 130.65 133.17 128.9C133.123 128.54 133.18 128.197 133.34 127.87Z" stroke="#808080" stroke-width="2"/>
<path d="M125.33 141.785C125.381 141.834 125.494 141.818 125.663 141.737C125.832 141.656 126.053 141.512 126.314 141.313C126.575 141.114 126.87 140.865 127.183 140.578C127.497 140.292 127.821 139.975 128.139 139.644C128.781 138.978 129.355 138.298 129.736 137.757C130.117 137.215 130.273 136.855 130.17 136.755C130.119 136.706 130.006 136.722 129.837 136.803C129.668 136.884 129.447 137.028 129.186 137.227C128.925 137.426 128.63 137.675 128.317 137.962C128.003 138.248 127.679 138.565 127.361 138.896C126.719 139.562 126.145 140.242 125.764 140.783C125.383 141.325 125.227 141.685 125.33 141.785Z" stroke="#808080" stroke-width="2"/>
<path d="M123.95 143.52L121.64 144.28C121.469 144.329 121.324 144.444 121.238 144.6C121.152 144.755 121.131 144.939 121.18 145.11C121.229 145.281 121.344 145.426 121.5 145.512C121.655 145.598 121.839 145.619 122.01 145.57C122.977 145.33 123.723 144.77 124.25 143.89C124.483 143.497 124.383 143.373 123.95 143.52Z" stroke="#808080" stroke-width="2"/>
<path d="M17.41 223.21L18.84 212.34C18.8867 211.993 19.01 211.683 19.21 211.41C20.1033 210.19 20.4667 208.81 20.3 207.27C20.2744 206.991 20.3448 206.71 20.5 206.47C22.52 203.44 22.83 199.86 24.01 197.11C25.97 192.523 28.1367 188.03 30.51 183.63C30.98 182.76 30.92 181.85 30.33 181.11C30.2376 180.99 30.1874 180.843 30.1874 180.693C30.1874 180.543 30.2376 180.397 30.33 180.28C31.4 178.94 32.62 178.01 33.46 176.49C35.44 172.89 38.11 169.867 41.47 167.42C41.5015 167.397 41.5264 167.367 41.5423 167.331C41.5582 167.296 41.5644 167.257 41.5603 167.218C41.5562 167.18 41.5421 167.143 41.5192 167.112C41.4963 167.08 41.4655 167.056 41.43 167.04C41.2967 166.973 41.1667 166.987 41.04 167.08C34.3067 171.693 29.5567 177.82 26.79 185.46C26.6233 185.933 26.58 186.667 26.66 187.66C26.6867 187.973 26.63 188.27 26.49 188.55C21.61 198.3 14.26 212.29 16.16 223.24C16.1826 223.392 16.26 223.53 16.3775 223.629C16.4951 223.728 16.6447 223.781 16.7983 223.777C16.9518 223.773 17.0988 223.714 17.2114 223.609C17.3241 223.505 17.3947 223.363 17.41 223.21Z" stroke="#808080" stroke-width="2"/>
<path d="M128.96 65.77C128.96 66.0967 129.027 66.3733 129.16 66.6C129.273 66.7867 129.497 66.91 129.83 66.97C135.01 67.9033 139.017 70.4733 141.85 74.68C143.03 76.44 143.42 79.18 144.56 81.31C144.773 81.71 144.88 81.68 144.88 81.22V80.46C144.88 80.1667 145.017 80.0733 145.29 80.18L145.64 80.32C145.725 80.3543 145.8 80.4086 145.86 80.4783C145.919 80.548 145.961 80.631 145.982 80.7203C146.003 80.8096 146.001 80.9026 145.978 80.9913C145.955 81.08 145.911 81.1619 145.85 81.23C144.857 82.3033 144.96 83.3433 146.16 84.35C146.467 84.61 146.667 84.5433 146.76 84.15C147.133 82.6433 147.723 81.2367 148.53 79.93C149.637 78.13 150.35 76.8133 150.67 75.98C155.26 64.04 155.87 52.14 154.6 38.81C154.367 36.3367 153.74 33.7067 152.72 30.92C151.567 27.74 150.48 24.5333 149.46 21.3C148.74 19.0067 147.763 16.94 146.53 15.1C142.36 8.92 139.85 4.92 134.03 1.63C133.77 1.47667 133.497 1.45333 133.21 1.56C129.85 2.84 131.45 7.16 131.58 9.55C131.593 9.82334 131.737 9.99333 132.01 10.06C134.437 10.6667 136.05 12.1367 136.85 14.47C136.88 14.559 136.878 14.6558 136.844 14.7434C136.81 14.831 136.747 14.9039 136.664 14.9492C136.582 14.9946 136.486 15.0095 136.394 14.9913C136.302 14.9732 136.219 14.9231 136.16 14.85L134.63 12.94C134.545 12.833 134.439 12.7449 134.318 12.6812C134.198 12.6175 134.065 12.5796 133.93 12.57L128.44 12.14C128.284 12.1279 128.126 12.1521 127.981 12.2107C127.835 12.2693 127.705 12.3607 127.601 12.4778C127.496 12.5948 127.42 12.7345 127.378 12.8858C127.337 13.037 127.33 13.1959 127.36 13.35C128.06 17.1033 129.31 20.4733 131.11 23.46C131.857 24.6933 132.337 25.9567 132.55 27.25C133.057 30.31 133.853 33.29 134.94 36.19C135.58 37.8767 135.88 39.4767 135.84 40.99C135.733 45.4833 135.41 48.7833 134.87 50.89C134.083 53.99 133.753 56.5133 133.88 58.46C133.907 58.84 133.84 59.2033 133.68 59.55L130.77 65.64C130.61 65.98 130.37 66.0533 130.05 65.86L129.27 65.38C129.85 63.3333 130.49 61.2967 131.19 59.27C131.943 57.0967 132.383 55.0233 132.51 53.05C132.883 47.2233 133.043 41.39 132.99 35.55C132.983 35.2233 132.897 34.9167 132.73 34.63C132.37 34.01 132.26 33.3067 132.4 32.52C132.428 32.3675 132.421 32.2101 132.38 32.0595C132.338 31.9089 132.263 31.7689 132.16 31.65C131.047 30.3833 130.34 28.9167 130.04 27.25C129.98 26.9167 129.857 26.6033 129.67 26.31C129.423 25.9167 129.16 25.3133 128.88 24.5C127.627 20.9333 126.333 17.3667 125 13.8C124.872 13.4543 124.883 13.074 125.03 12.74C125.75 11.0733 126.993 10.1 128.76 9.82C128.949 9.79026 129.128 9.71829 129.286 9.60945C129.443 9.50062 129.573 9.35773 129.667 9.19144C129.762 9.02514 129.817 8.83973 129.83 8.64902C129.842 8.45831 129.812 8.26722 129.74 8.09C128.65 5.33 128.32 0.170004 133 0.760004C137.17 1.27 142.21 5.06 145.03 8.63C150.457 15.5167 153.993 23.3133 155.64 32.02C156.15 34.72 157.49 38 157.62 41.01C157.767 44.2633 157.86 48.6433 157.9 54.15C157.927 57.6167 157.57 60.82 156.83 63.76C155.68 68.32 152.14 82.67 147.74 84.68C147.474 84.8012 147.235 84.9742 147.036 85.1891C146.837 85.404 146.683 85.6564 146.583 85.9317C146.482 86.207 146.438 86.4998 146.451 86.793C146.464 87.0862 146.535 87.3741 146.66 87.64C149.84 94.43 150.49 100.67 149.57 108.52C148.61 116.767 146.903 124.85 144.45 132.77C141.16 143.39 137.47 149.33 128.01 154.31C127.801 154.419 127.62 154.577 127.484 154.77C127.348 154.963 127.261 155.186 127.228 155.42C127.196 155.654 127.22 155.892 127.299 156.115C127.377 156.337 127.508 156.538 127.68 156.7C128.453 157.42 128.85 158.27 128.87 159.25C128.876 159.421 128.93 159.586 129.025 159.727C129.121 159.869 129.254 159.981 129.41 160.05C132.17 161.29 133.97 159.19 135.96 158.45C137.4 157.92 138.37 157.73 139.65 156.76C145.137 152.633 150.52 148.377 155.8 143.99C156.033 143.79 156.3 143.733 156.6 143.82C161.08 145.16 156.99 153.8 155.36 157.52C154.1 160.4 153.5 163.98 151.85 167.08C150.7 169.23 150.6 171.26 150.03 173.54C149.984 173.716 150.003 173.904 150.084 174.069C150.165 174.233 150.301 174.365 150.47 174.44L152.35 175.26C152.474 175.312 152.578 175.396 152.65 175.5C156.23 180.56 152.84 185.61 148.79 188.78C148.547 188.972 148.238 189.062 147.93 189.03C145.75 188.78 144.65 189.44 143.98 191.57C141.887 198.17 139.897 204.807 138.01 211.48C134.823 213.1 132.24 215.487 130.26 218.64C130.073 218.94 130.043 219.257 130.17 219.59C130.617 220.697 131.367 221.49 132.42 221.97C132.547 222.029 132.658 222.118 132.745 222.229C132.832 222.34 132.892 222.47 132.92 222.61L134.33 229.73C134.372 229.925 134.479 230.101 134.633 230.228C134.787 230.355 134.98 230.427 135.179 230.431C135.379 230.436 135.574 230.373 135.734 230.253C135.894 230.133 136.009 229.963 136.06 229.77C136.82 226.74 133.7 221.47 132.36 218.8C132.293 218.673 132.273 218.527 132.304 218.387C132.335 218.247 132.416 218.123 132.531 218.038C132.645 217.952 132.787 217.91 132.93 217.92C133.073 217.929 133.208 217.99 133.31 218.09C135.72 220.35 137.38 225.81 138.77 228.95C138.811 229.048 138.885 229.128 138.978 229.177C139.072 229.226 139.18 229.24 139.284 229.218C139.389 229.196 139.483 229.138 139.551 229.055C139.62 228.971 139.658 228.867 139.66 228.76L139.62 212.73C144.33 218.16 141.56 229.38 139.3 235.36C139.235 235.524 139.116 235.662 138.964 235.751C138.811 235.84 138.633 235.875 138.458 235.851C138.283 235.827 138.121 235.745 137.998 235.617C137.875 235.49 137.798 235.326 137.78 235.15C137.6 233.09 137.33 229.63 134.07 230.58C133.783 230.667 133.607 230.857 133.54 231.15C133.207 232.683 133.077 234.797 133.15 237.49C133.243 241.057 131.683 244.27 128.47 247.13C128.157 247.41 127.967 247.343 127.9 246.93C127.29 243.02 124.63 239.88 123.33 236.18C123.256 235.967 123.114 235.783 122.927 235.656C122.74 235.529 122.517 235.466 122.291 235.477C122.066 235.487 121.849 235.569 121.674 235.712C121.499 235.855 121.375 236.051 121.32 236.27C119.86 242 120.79 248.41 118.05 253.68C117.899 253.968 117.83 254.293 117.85 254.62C117.923 255.993 117.657 257.26 117.05 258.42C116.663 259.173 116.173 259.563 115.58 259.59C114.88 259.623 114.233 259.207 113.64 258.34C112.493 256.667 111.507 255.267 110.68 254.14C109.947 253.127 109.463 253.233 109.23 254.46C108.243 259.553 106.497 264.243 103.99 268.53C103.257 269.797 102.593 270.76 102 271.42C101.882 271.55 101.728 271.641 101.559 271.682C101.389 271.723 101.212 271.712 101.05 271.65C95.81 269.63 97.71 265.52 94.49 261.96C93.2567 260.607 92.6867 258.947 92.78 256.98C92.7865 256.792 92.7339 256.609 92.63 256.46L89.47 251.69C89.3697 251.536 89.2254 251.417 89.0559 251.347C88.8864 251.276 88.6997 251.259 88.5202 251.297C88.3408 251.335 88.1769 251.426 88.0502 251.559C87.9234 251.691 87.8397 251.859 87.81 252.04C87.47 254.013 86.35 255.397 84.45 256.19C84.1767 256.31 83.8967 256.327 83.61 256.24C81.7033 255.693 80.2067 254.613 79.12 253C80.9 254.44 82.8333 255.037 84.92 254.79C85.2467 254.757 85.26 254.677 84.96 254.55C82.45 253.49 77.51 250.56 78.91 247.05C78.936 246.98 78.9431 246.905 78.9305 246.832C78.9179 246.759 78.8861 246.69 78.8383 246.633C78.7905 246.576 78.7284 246.533 78.6585 246.508C78.5885 246.483 78.5131 246.476 78.44 246.49C73.62 247.483 69.4533 249.447 65.94 252.38C65.5133 252.74 65.4 253.17 65.6 253.67C63.3 255.243 61.61 257.127 60.53 259.32C59.67 261.067 58.9033 262.36 58.23 263.2C56.44 265.45 53.13 271.82 49.33 271.14C48.2567 270.953 47.57 270.473 47.27 269.7C46.1033 266.673 44.8433 263.687 43.49 260.74C42.67 258.95 42.76 257.26 42.63 255.35C42.61 255.017 42.4667 254.74 42.2 254.52L41.81 254.2C42.0767 253.007 41.9 251.75 41.28 250.43C41.2733 250.41 41.28 250.397 41.3 250.39C41.3133 250.39 41.3233 250.39 41.33 250.39C41.3767 250.377 41.3967 250.393 41.39 250.44L40.96 253.77C40.2133 253.877 39.8533 254.453 39.88 255.5C39.9133 256.967 39.9 258.437 39.84 259.91C39.8351 259.973 39.8088 260.033 39.7656 260.079C39.7223 260.126 39.6646 260.156 39.6019 260.165C39.5392 260.174 39.4751 260.162 39.4203 260.13C39.3655 260.099 39.3231 260.049 39.3 259.99C38.7267 258.23 37.57 256.993 35.83 256.28C35.6619 256.211 35.5116 256.106 35.3904 255.97C35.2691 255.835 35.1801 255.674 35.13 255.5L33.67 250.46C32.8433 246.767 32.68 242.913 33.18 238.9C33.22 238.593 33.0867 238.43 32.78 238.41C32.5267 238.397 32.38 238.457 32.34 238.59C31.0733 243.31 31.3333 247.893 33.12 252.34C32.25 255.12 33.35 260.78 34.03 264.06C34.0465 264.139 34.0447 264.221 34.0246 264.3C34.0044 264.379 33.9666 264.452 33.9137 264.514C33.8609 264.577 33.7945 264.627 33.7194 264.661C33.6443 264.695 33.5625 264.711 33.48 264.71C30.8 264.65 28.5233 263.457 26.65 261.13C23.3433 257.01 21.2367 252.477 20.33 247.53C20.07 246.097 19.3133 245.46 18.06 245.62C17.8861 245.644 17.7239 245.72 17.5952 245.838C17.4664 245.956 17.3774 246.11 17.34 246.28C16.8067 248.593 16.8867 250.82 17.58 252.96C15.82 254.84 15.6633 257.45 17.11 260.79C10.6233 256.397 5.97999 250.74 3.17999 243.82C3.06205 243.532 3.02408 243.214 3.07001 242.9C3.39667 240.547 2.80333 238.373 1.28999 236.38C1.04333 236.053 0.929996 235.69 0.949996 235.29L1.17 230.8C1.17575 230.679 1.14809 230.558 1.08998 230.451C1.03187 230.343 0.945469 230.253 0.839995 230.19C0.379995 229.903 0.156664 229.34 0.169997 228.5C0.209997 225.613 0.433328 223.203 0.839995 221.27C1.47 218.3 1.32 216.26 1.13 213.5C1.11 213.167 1.19334 212.863 1.38 212.59C2.17334 211.45 2.54667 210.543 2.5 209.87C2.2 205.563 2.98334 201.963 4.85001 199.07C6.47667 196.563 7.48667 194.24 7.88 192.1C7.93334 191.787 8.08333 191.527 8.33 191.32C11.29 188.847 13.2167 185.73 14.11 181.97C14.1945 181.633 14.3879 181.334 14.66 181.12C16.58 179.56 17.18 177.4 18.66 175.79C19.8067 174.523 20.8933 173.2 21.92 171.82C22.1149 171.566 22.3844 171.381 22.69 171.29C23.07 171.17 23.45 170.98 23.69 170.64C24.55 169.447 25.6267 168.48 26.92 167.74C27.1982 167.579 27.4135 167.324 27.53 167.02C28.0967 165.587 29.01 164.513 30.27 163.8C32.07 162.793 33.01 162.257 33.09 162.19C33.7767 161.67 34.4567 161.14 35.13 160.6C35.19 160.56 35.7967 159.947 36.95 158.76C37.8367 157.86 38.97 157.347 40.35 157.22C40.6433 157.193 40.8267 157.033 40.9 156.74C40.9933 156.393 41.1567 156.087 41.39 155.82C41.5567 155.627 41.8167 155.477 42.17 155.37C45.23 154.47 47.7433 152.977 49.71 150.89C50.2833 150.283 50.2633 149.7 49.65 149.14C48.2433 147.86 46.9067 146.737 45.64 145.77C44.2733 144.73 43.25 143.653 42.57 142.54C39.98 138.31 36.67 133.58 36.88 128.44C36.94 126.89 35.9 125.63 36.49 124.17C37.0233 122.823 37.28 121.437 37.26 120.01C37.26 119.83 37.3167 118.847 37.43 117.06C37.5033 115.853 37.1733 114.767 36.44 113.8C36.24 113.54 36.1433 113.247 36.15 112.92L36.2 101.48C36.2 101.107 36.2867 100.757 36.46 100.43C36.98 99.43 37.2567 98.12 37.29 96.5C37.3233 95.08 37.73 93.4133 38.51 91.5C39.11 90.0467 39.4033 88.74 39.39 87.58C39.37 86.22 39.27 84.8667 39.09 83.52C39.0833 83.48 39.0633 83.4667 39.03 83.48C38.9433 83.52 38.86 83.56 38.78 83.6C38.6533 83.6667 38.5733 83.63 38.54 83.49C37.8933 81.0633 37.3167 78.6267 36.81 76.18C35.38 69.3 36.13 61.18 36.14 54.12C36.15 51.84 36.73 49.91 37.4 47.8C37.88 46.3 37.9 44.15 38.54 42.49C38.8267 41.7233 39.0133 41.02 39.1 40.38C39.4 38.1533 40.06 36.04 41.08 34.04C41.7733 32.6933 42.2467 31.6033 42.5 30.77C42.86 29.61 43.2133 28.4367 43.56 27.25C43.6533 26.93 43.83 26.6733 44.09 26.48C45.47 25.47 44.97 24.35 45.51 23.14C49.1633 15.0267 54.49 8.25333 61.49 2.82C64.15 0.750002 66.18 -1.01 69.05 1.13C72.2 3.49 71.3 7.35 70.74 10.62C70.7032 10.8265 70.7087 11.0384 70.7562 11.2429C70.8037 11.4474 70.8921 11.6404 71.0163 11.8103C71.1405 11.9802 71.2978 12.1235 71.4788 12.2317C71.6599 12.3399 71.8609 12.4108 72.07 12.44C79.93 13.52 74.17 25.08 71.92 28.58C65.3533 38.7467 62.3933 49.88 63.04 61.98C63.0569 62.3036 63.1507 62.6185 63.3136 62.8988C63.4765 63.1791 63.7039 63.4168 63.9771 63.5924C64.2503 63.7681 64.5616 63.8767 64.8855 63.9093C65.2093 63.9419 65.5364 63.8976 65.84 63.78C67.83 63 69.84 62.34 71.77 61.25C72.73 60.7 73.82 61.3 74.6 60.96C74.7867 60.88 74.9533 60.7667 75.1 60.62C75.3333 60.3933 75.6067 60.2567 75.92 60.21C88.0733 58.5167 100.183 58.8 112.25 61.06C112.383 61.0867 112.513 61.1767 112.64 61.33C112.82 61.5633 113.05 61.7167 113.33 61.79L118.9 63.26C119.2 63.34 119.503 63.37 119.81 63.35C122.27 63.21 124.4 63.9567 126.2 65.59C126.713 66.0567 127.133 66.3067 127.46 66.34C127.987 66.3933 128.487 66.2033 128.96 65.77ZM73.16 84.06L72.06 83.12C72.0015 83.0703 71.9305 83.0376 71.8547 83.0254C71.7789 83.0132 71.7013 83.0221 71.6302 83.0509C71.559 83.0798 71.4972 83.1276 71.4513 83.1891C71.4054 83.2507 71.3773 83.3236 71.37 83.4C71.2633 84.6133 71.2367 85.81 71.29 86.99C71.3233 87.6633 71.0867 88.0833 70.58 88.25C70.18 88.3833 69.9767 88.24 69.97 87.82L69.91 81.62C69.914 81.5113 69.8746 81.4054 69.8005 81.3257C69.7264 81.246 69.6237 81.199 69.515 81.195C69.4063 81.191 69.3004 81.2304 69.2207 81.3045C69.141 81.3786 69.094 81.4813 69.09 81.59L68.9 83.82C68.8956 83.8578 68.8824 83.894 68.8613 83.9257C68.8402 83.9573 68.8119 83.9835 68.7787 84.0021C68.7454 84.0206 68.7083 84.031 68.6703 84.0324C68.6323 84.0338 68.5945 84.0261 68.56 84.01C68.4867 83.9767 68.41 83.9433 68.33 83.91C68.0767 83.8167 67.9933 83.6433 68.08 83.39C68.8333 81.0767 68.3333 79.0867 66.58 77.42C66.3867 77.2333 66.22 77.2567 66.08 77.49C66.0333 77.5767 66.01 77.6667 66.01 77.76C65.97 78.4933 65.8 78.49 65.5 77.75C64.26 74.7167 63.0833 71.6633 61.97 68.59C60.7967 65.3633 60.1567 62.3333 60.05 59.5C59.7167 50.5867 61.4433 42.0833 65.23 33.99C67.03 30.13 70.17 28.6 71.32 24.12C71.9 21.8733 72.81 19.7567 74.05 17.77C74.2433 17.4567 74.29 17.1233 74.19 16.77C73.71 15.0167 72.58 13.8633 70.8 13.31C70.38 13.1767 70.11 13.3233 69.99 13.75L68.63 18.56C68.5955 18.6905 68.5247 18.8082 68.4258 18.8998C68.3269 18.9914 68.2037 19.0533 68.0704 19.0783C67.937 19.1033 67.7988 19.0904 67.6715 19.0412C67.5441 18.9921 67.4327 18.9085 67.35 18.8C66.36 17.5 66.61 15.77 67.2 14.09C68.38 10.7433 68.83 7.3 68.55 3.76C68.4433 2.42667 68.0133 1.58667 67.26 1.24C66.7533 1.00667 66.2833 1.06667 65.85 1.42C60.01 6.26 56.52 10.54 52.7 17.25C49.42 23 46.55 27.24 44.19 34.69C42.7167 39.3567 41.65 43.0733 40.99 45.84C37.9233 58.8067 38.47 71.7533 42.63 84.68C45.23 92.76 48.74 99.82 55.26 104.16C55.437 104.278 55.5826 104.437 55.6843 104.624C55.786 104.811 55.8407 105.019 55.8437 105.232C55.8466 105.445 55.7978 105.655 55.7013 105.844C55.6048 106.034 55.4637 106.197 55.29 106.32C51.52 108.98 43.92 97.75 42.46 95.17C42.2467 94.7967 42.08 94.8167 41.96 95.23C39.93 102.18 40.71 112.11 41.48 120.01C41.88 124.1 41.29 129.08 43.1 133.41C44.8 137.483 46.8867 140.73 49.36 143.15C53.4867 147.177 57.8133 150.923 62.34 154.39C62.4607 154.483 62.6049 154.54 62.7564 154.556C62.9079 154.571 63.0608 154.544 63.1978 154.478C63.3348 154.412 63.4507 154.308 63.5323 154.18C63.614 154.051 63.6582 153.902 63.66 153.75L63.94 138.28C63.9733 136.313 64.9067 135.693 66.74 136.42C69.5067 137.513 72.3567 138.347 75.29 138.92C75.65 138.987 75.9767 139.13 76.27 139.35L79.02 141.43C79.4467 141.75 79.6033 141.65 79.49 141.13C78.77 137.683 79.0533 134.07 80.34 130.29C83.2 121.88 88.9 110.47 100.06 117.04C100.367 117.227 100.517 117.5 100.51 117.86C100.47 119.393 101.037 120.587 102.21 121.44C102.483 121.647 102.637 121.92 102.67 122.26C102.9 124.65 103.54 126.45 102.84 128.85C101.92 132.01 101.7 135.12 100.31 138.15C99.73 139.423 99.2 140.72 98.72 142.04C97.45 145.53 93.13 149.55 89.42 146.27C89.2933 146.163 89.1567 146.14 89.01 146.2C88.9167 146.24 88.82 146.28 88.72 146.32C88.6852 146.333 88.6544 146.355 88.6308 146.383C88.6071 146.412 88.5915 146.446 88.5854 146.483C88.5793 146.519 88.583 146.557 88.5961 146.591C88.6092 146.626 88.6312 146.657 88.66 146.68C90.7067 148.36 92.9967 149.457 95.53 149.97C97.0833 150.283 98.4867 150.723 99.74 151.29C102.72 152.64 105.66 152.81 108.64 154.2C112.413 155.967 116.44 156.757 120.72 156.57C120.878 156.564 121.032 156.515 121.165 156.429C121.299 156.343 121.407 156.222 121.48 156.08L122.35 154.35C122.455 154.148 122.618 153.98 122.82 153.87C127.08 151.66 132.05 149.62 135.04 146.01C137.433 143.123 139.193 139.857 140.32 136.21C141.09 133.74 142.6 132.2 143.12 129.46C143.613 126.86 144.22 124.28 144.94 121.72C145.033 121.393 145.04 121.067 144.96 120.74C144.32 118.04 146.17 116.6 146.6 114.61C146.98 112.85 147.19 111.06 147.23 109.24C147.233 109.103 147.206 108.966 147.148 108.839C147.091 108.713 147.006 108.601 146.9 108.51L146.18 107.9C145.893 107.653 145.743 107.34 145.73 106.96C145.483 99.5533 144.457 92.5767 142.65 86.03C140.74 79.08 136.28 72.9 129.66 69.75C127.493 68.7233 125.283 67.8067 123.03 67C120.623 66.14 117.537 65.52 113.77 65.14C106.92 64.45 99.74 62.75 93.38 62.79C84.1067 62.8367 74.8 64.1267 65.46 66.66C65.2569 66.7159 65.0695 66.8182 64.9127 66.9588C64.7559 67.0995 64.6339 67.2747 64.5563 67.4705C64.4787 67.6664 64.4477 67.8776 64.4657 68.0875C64.4837 68.2974 64.5502 68.5002 64.66 68.68L73.79 83.53C73.8466 83.6133 73.8702 83.7138 73.8565 83.8127C73.8427 83.9115 73.7925 84.0019 73.7152 84.0669C73.6379 84.1319 73.5389 84.1671 73.4367 84.1658C73.3345 84.1646 73.2361 84.1269 73.16 84.06ZM95.45 142.28C94.6767 142.68 94.03 143.22 93.51 143.9C93.1833 144.34 93.27 144.453 93.77 144.24C95.1433 143.647 96.1233 142.797 96.71 141.69C98.25 138.803 99.4767 135.41 100.39 131.51C101.163 128.203 101.043 124.523 100.03 120.47C100.017 120.403 99.9833 120.35 99.93 120.31C99.85 120.25 99.7667 120.187 99.68 120.12C99.6643 120.105 99.6438 120.096 99.6223 120.095C99.6007 120.095 99.5795 120.101 99.5626 120.115C99.5456 120.128 99.534 120.147 99.5298 120.168C99.5257 120.189 99.5293 120.211 99.54 120.23C101.7 126.48 98.82 136.03 96.16 141.55C96.0067 141.87 95.77 142.113 95.45 142.28ZM64.2 199.39L63.29 198.53C63.01 198.263 62.88 198.327 62.9 198.72C63.0733 201.553 63.1067 204.397 63 207.25C62.82 212.09 64.89 214.59 69.43 216.41C73.06 217.86 76.58 219.57 80.16 220.82C88.4867 223.733 96.7967 226.7 105.09 229.72C106.27 230.15 107.63 230.04 108.76 229.76C108.843 229.736 108.915 229.684 108.964 229.613C109.014 229.542 109.037 229.456 109.031 229.37C109.026 229.284 108.991 229.202 108.932 229.139C108.874 229.075 108.795 229.033 108.71 229.02C106.043 228.72 103.577 228.15 101.31 227.31C98.2767 226.19 96.18 225.483 95.02 225.19C91.2133 224.223 87.87 223.097 84.99 221.81C79.0367 219.15 73.0433 216.567 67.01 214.06C64.7433 213.12 64.0067 211.667 64.8 209.7C64.8178 209.667 64.8463 209.64 64.881 209.625C64.9156 209.609 64.9544 209.606 64.9912 209.615C65.028 209.624 65.0607 209.646 65.084 209.675C65.1073 209.705 65.12 209.742 65.12 209.78C65.03 210.63 65.56 211.44 66.33 211.91C74.2367 216.857 82.7167 220.317 91.77 222.29C96.53 223.323 99.81 224.113 101.61 224.66C104.903 225.66 108.18 226.703 111.44 227.79C111.813 227.917 112.157 227.857 112.47 227.61L113.92 226.47C114.028 226.384 114.161 226.335 114.299 226.331C114.436 226.328 114.57 226.369 114.68 226.45L115.78 227.26C116.027 227.433 116.283 227.45 116.55 227.31C118.29 226.41 119.827 225.29 121.16 223.95C125.38 219.71 129.87 216.18 134.53 212.44C135.63 211.553 136.42 210.477 136.9 209.21C138.807 204.163 140.233 198.977 141.18 193.65C141.24 193.343 141.343 193.053 141.49 192.78L142.5 190.92C142.58 190.777 142.618 190.614 142.609 190.451C142.601 190.288 142.545 190.132 142.45 190L138.73 184.87C138.517 184.57 138.467 184.243 138.58 183.89C139.8 180.09 142.237 177.347 145.89 175.66C146.223 175.507 146.483 175.273 146.67 174.96C148.183 172.44 149.377 169.373 150.25 165.76C151.063 162.387 152.513 158.673 154.6 154.62C156.19 151.52 156.24 148.77 156.94 145.52C156.978 145.361 156.956 145.194 156.878 145.052C156.8 144.91 156.671 144.801 156.516 144.748C156.361 144.695 156.191 144.7 156.039 144.763C155.886 144.826 155.762 144.943 155.69 145.09C153.92 148.64 151.23 149.27 149.05 151.13C143.143 156.163 138.633 159.65 135.52 161.59C132.14 163.69 128.51 161.5 125.13 161.31C123.557 161.223 122.327 161.05 121.44 160.79C118.44 159.917 115.44 159.067 112.44 158.24C110.767 157.773 108.583 156.903 105.89 155.63C103.443 154.477 100.893 153.603 98.24 153.01C95.9467 152.503 94.0467 151.863 92.54 151.09C89.5467 149.57 86.56 148.033 83.58 146.48C83.2733 146.327 81.6667 145.283 78.76 143.35C77.02 142.19 75.07 141.403 72.91 140.99C72.6777 140.938 72.4716 140.803 72.33 140.61C71.49 139.417 70.31 138.977 68.79 139.29C68.5961 139.328 68.397 139.297 68.23 139.2L66.55 138.3C66.11 138.067 65.88 138.2 65.86 138.7L64.64 165.39C64.6267 165.657 64.6533 165.923 64.72 166.19C65.0733 167.623 65.06 169.043 64.68 170.45C64.6481 170.568 64.5758 170.671 64.4757 170.741C64.3755 170.811 64.254 170.843 64.1323 170.832C64.0106 170.822 63.8966 170.768 63.8103 170.682C63.7239 170.596 63.6707 170.482 63.66 170.36L63.53 168.83C63.5215 168.712 63.4779 168.6 63.4048 168.507C63.3317 168.414 63.2325 168.346 63.12 168.31L61.45 167.76C61.0567 167.627 60.9433 167.373 61.11 167C61.53 166.04 62.22 165.423 63.18 165.15C63.315 165.114 63.4334 165.031 63.5153 164.917C63.5972 164.802 63.6377 164.662 63.63 164.52L63.36 159.64C63.3467 159.367 63.21 159.197 62.95 159.13C58.8967 158.063 55.57 155.863 52.97 152.53C52.8729 152.404 52.7347 152.316 52.5794 152.281C52.4241 152.246 52.2615 152.267 52.12 152.34C47.14 154.84 42.23 156.91 37.92 160.4C28.83 167.75 20.08 176.16 13.98 186.16C10.9333 191.153 8.63666 195.77 7.09 200.01C4.41666 207.297 3.07 215.25 3.05 223.87C3.03667 229.203 3.66333 234.063 4.92999 238.45C6.30999 243.223 8.29999 247.757 10.9 252.05C11.75 253.45 13.09 254.67 14.19 255.92C14.55 256.333 14.7233 256.267 14.71 255.72C14.5633 251.327 15.2833 247.11 16.87 243.07C17.81 240.69 17.21 239.8 16.37 237.6C15.6033 235.593 15.61 233.407 16.39 231.04C16.5633 230.527 16.6967 230.533 16.79 231.06C17.8433 237.04 19.4667 242.093 21.66 246.22C22.5 247.793 23.1467 249.153 23.6 250.3C25.39 254.84 28.11 258.7 30.26 263.08C30.4667 263.493 30.63 263.477 30.75 263.03C31.0633 261.903 31.02 260.567 30.62 259.02C29.8733 256.14 29.31 252.76 28.93 248.88C28.63 245.86 28.6267 242.44 28.92 238.62C29.2933 233.867 29.7033 229.113 30.15 224.36C30.5633 219.9 31.3467 215.21 32.5 210.29C33.6733 205.25 34.8 200.193 35.88 195.12C36.78 190.89 39.6 187.36 41.06 183.13C41.1259 182.939 41.2353 182.765 41.38 182.62L42.38 181.65C42.54 181.49 42.6067 181.297 42.58 181.07C42.2733 178.977 42.3867 176.917 42.92 174.89C42.9454 174.787 43.0031 174.695 43.0849 174.628C43.1666 174.56 43.2681 174.521 43.3749 174.516C43.4816 174.51 43.588 174.539 43.6787 174.597C43.7695 174.655 43.84 174.74 43.88 174.84L44.98 177.63C45.0064 177.696 45.0503 177.755 45.1069 177.799C45.1636 177.842 45.2307 177.87 45.301 177.878C45.3712 177.886 45.4419 177.875 45.5053 177.845C45.5686 177.816 45.6221 177.769 45.66 177.71C46.3333 176.677 47.0733 175.697 47.88 174.77C49.42 172.99 52.28 167.75 55.35 168.43C55.65 168.497 55.92 168.437 56.16 168.25C57 167.603 57.9367 167.21 58.97 167.07C59.35 167.023 59.5667 167.19 59.62 167.57C59.94 169.817 61.1733 171.213 63.32 171.76C64.1533 171.973 64.6767 172.35 64.89 172.89C64.9633 173.097 65.0767 173.28 65.23 173.44C70.09 178.44 73.69 183.87 71.89 191.24C70.55 196.73 62.67 195.9 58.5 195.16C55.68 194.66 52.95 192.8 49.63 192.38C49.11 192.313 48.4833 191.913 47.75 191.18C47.4633 190.893 47.2933 190.95 47.24 191.35C47.1933 191.67 47.3733 191.957 47.78 192.21C51.7933 194.683 55.9733 196.1 60.32 196.46C60.5867 196.48 60.7767 196.61 60.89 196.85L61.3 197.72C61.4733 198.093 61.6533 198.097 61.84 197.73C61.9133 197.583 61.9167 197.447 61.85 197.32C61.5367 196.707 61.6333 196.43 62.14 196.49L63.92 196.7C64.2667 196.74 64.4567 196.937 64.49 197.29L64.64 199.19C64.6733 199.637 64.5267 199.703 64.2 199.39ZM86.2469 145.167C86.2719 145.128 86.2555 145.063 86.1989 144.976C86.1422 144.889 86.0463 144.781 85.9165 144.658C85.7868 144.535 85.6259 144.401 85.4429 144.261C85.2599 144.122 85.0585 143.981 84.8501 143.846C84.6417 143.711 84.4304 143.585 84.2283 143.476C84.0262 143.366 83.8373 143.274 83.6723 143.206C83.5073 143.138 83.3694 143.095 83.2666 143.079C83.1638 143.063 83.0981 143.075 83.0731 143.113C83.0481 143.152 83.0644 143.217 83.1211 143.304C83.1778 143.391 83.2737 143.499 83.4034 143.622C83.5331 143.745 83.6941 143.879 83.8771 144.019C84.0601 144.158 84.2615 144.299 84.4699 144.434C84.6783 144.569 84.8896 144.695 85.0917 144.804C85.2938 144.914 85.4827 145.006 85.6477 145.074C85.8127 145.142 85.9506 145.185 86.0534 145.201C86.1562 145.217 86.222 145.205 86.2469 145.167ZM88.6481 251.269C88.8175 251.141 88.838 250.83 88.705 250.404C88.572 249.979 88.2964 249.473 87.9389 248.999C87.7619 248.764 87.57 248.543 87.3744 248.351C87.1787 248.158 86.983 247.996 86.7985 247.875C86.614 247.753 86.4443 247.674 86.299 247.643C86.1537 247.612 86.0358 247.628 85.9519 247.691C85.7825 247.819 85.762 248.13 85.895 248.556C86.028 248.981 86.3036 249.487 86.6611 249.961C86.8381 250.196 87.03 250.417 87.2256 250.609C87.4213 250.802 87.617 250.964 87.8015 251.085C87.986 251.207 88.1558 251.286 88.301 251.317C88.4463 251.349 88.5642 251.332 88.6481 251.269Z" fill="black"/>
<path d="M73.16 84.06C73.2361 84.1269 73.3345 84.1646 73.4367 84.1658C73.5389 84.1671 73.6379 84.132 73.7152 84.0669C73.7925 84.0019 73.8427 83.9115 73.8565 83.8127C73.8703 83.7138 73.8466 83.6133 73.79 83.53L64.66 68.68C64.5502 68.5002 64.4837 68.2974 64.4657 68.0875C64.4477 67.8776 64.4787 67.6664 64.5563 67.4705C64.6339 67.2747 64.7559 67.0995 64.9127 66.9588C65.0695 66.8182 65.2569 66.7159 65.46 66.66C74.8 64.1267 84.1067 62.8367 93.38 62.79C99.74 62.75 106.92 64.45 113.77 65.14C117.537 65.52 120.623 66.14 123.03 67C125.283 67.8067 127.493 68.7233 129.66 69.75C136.28 72.9 140.74 79.08 142.65 86.03C144.457 92.5767 145.483 99.5533 145.73 106.96C145.743 107.34 145.893 107.653 146.18 107.9L146.9 108.51C147.006 108.601 147.091 108.713 147.148 108.839C147.206 108.966 147.233 109.103 147.23 109.24C147.19 111.06 146.98 112.85 146.6 114.61C146.17 116.6 144.32 118.04 144.96 120.74C145.04 121.067 145.033 121.393 144.94 121.72C144.22 124.28 143.613 126.86 143.12 129.46C142.6 132.2 141.09 133.74 140.32 136.21C139.193 139.857 137.433 143.123 135.04 146.01C132.05 149.62 127.08 151.66 122.82 153.87C122.618 153.98 122.455 154.148 122.35 154.35L121.48 156.08C121.407 156.222 121.299 156.343 121.165 156.429C121.032 156.515 120.878 156.564 120.72 156.57C116.44 156.757 112.413 155.967 108.64 154.2C105.66 152.81 102.72 152.64 99.74 151.29C98.4867 150.723 97.0833 150.283 95.53 149.97C92.9967 149.457 90.7067 148.36 88.66 146.68C88.6312 146.657 88.6092 146.626 88.5961 146.591C88.583 146.557 88.5793 146.519 88.5854 146.483C88.5915 146.446 88.6071 146.412 88.6308 146.383C88.6544 146.355 88.6852 146.333 88.72 146.32C88.82 146.28 88.9167 146.24 89.01 146.2C89.1567 146.14 89.2933 146.163 89.42 146.27C93.13 149.55 97.45 145.53 98.72 142.04C99.2 140.72 99.73 139.423 100.31 138.15C101.7 135.12 101.92 132.01 102.84 128.85C103.54 126.45 102.9 124.65 102.67 122.26C102.637 121.92 102.483 121.647 102.21 121.44C101.037 120.587 100.47 119.393 100.51 117.86C100.517 117.5 100.367 117.227 100.06 117.04C88.9 110.47 83.2 121.88 80.34 130.29C79.0533 134.07 78.77 137.683 79.49 141.13C79.6033 141.65 79.4467 141.75 79.02 141.43L76.27 139.35C75.9767 139.13 75.65 138.987 75.29 138.92C72.3567 138.347 69.5067 137.513 66.74 136.42C64.9067 135.693 63.9733 136.313 63.94 138.28L63.66 153.75C63.6582 153.902 63.614 154.051 63.5323 154.18C63.4507 154.308 63.3348 154.412 63.1978 154.478C63.0608 154.544 62.9079 154.571 62.7564 154.556C62.6049 154.54 62.4607 154.483 62.34 154.39C57.8133 150.923 53.4867 147.177 49.36 143.15C46.8867 140.73 44.8 137.483 43.1 133.41C41.29 129.08 41.88 124.1 41.48 120.01C40.71 112.11 39.93 102.18 41.96 95.23C42.08 94.8167 42.2467 94.7967 42.46 95.17C43.92 97.75 51.52 108.98 55.29 106.32C55.4637 106.197 55.6048 106.034 55.7013 105.844C55.7978 105.655 55.8466 105.445 55.8437 105.232C55.8407 105.019 55.786 104.811 55.6843 104.624C55.5827 104.437 55.437 104.278 55.26 104.16C48.74 99.82 45.23 92.76 42.63 84.68C38.47 71.7533 37.9233 58.8067 40.99 45.84C41.65 43.0733 42.7167 39.3567 44.19 34.69C46.55 27.24 49.42 23 52.7 17.25C56.52 10.54 60.01 6.26 65.85 1.42C66.2833 1.06667 66.7533 1.00667 67.26 1.24C68.0133 1.58667 68.4433 2.42667 68.55 3.76001C68.83 7.30001 68.38 10.7433 67.2 14.09C66.61 15.77 66.36 17.5 67.35 18.8C67.4327 18.9085 67.5441 18.9921 67.6715 19.0413C67.7988 19.0904 67.937 19.1033 68.0704 19.0783C68.2037 19.0533 68.3269 18.9914 68.4258 18.8998C68.5247 18.8082 68.5955 18.6905 68.63 18.56L69.99 13.75C70.11 13.3233 70.38 13.1767 70.8 13.31C72.58 13.8633 73.71 15.0167 74.19 16.77C74.29 17.1233 74.2433 17.4567 74.05 17.77C72.81 19.7567 71.9 21.8733 71.32 24.12C70.17 28.6 67.03 30.13 65.23 33.99C61.4433 42.0833 59.7167 50.5867 60.05 59.5C60.1567 62.3333 60.7967 65.3633 61.97 68.59C63.0833 71.6633 64.26 74.7167 65.5 77.75C65.8 78.49 65.97 78.4933 66.01 77.76C66.01 77.6667 66.0333 77.5767 66.08 77.49C66.22 77.2567 66.3867 77.2333 66.58 77.42C68.3333 79.0867 68.8333 81.0767 68.08 83.39C67.9933 83.6433 68.0767 83.8167 68.33 83.91C68.41 83.9433 68.4867 83.9767 68.56 84.01C68.5945 84.0261 68.6323 84.0338 68.6703 84.0324C68.7083 84.031 68.7455 84.0206 68.7787 84.0021C68.8119 83.9835 68.8402 83.9573 68.8613 83.9257C68.8824 83.894 68.8956 83.8578 68.9 83.82L69.09 81.59C69.094 81.4813 69.141 81.3786 69.2207 81.3045C69.3004 81.2304 69.4063 81.191 69.515 81.195C69.6237 81.199 69.7264 81.246 69.8005 81.3257C69.8746 81.4054 69.914 81.5113 69.91 81.62L69.97 87.82C69.9767 88.24 70.18 88.3833 70.58 88.25C71.0867 88.0833 71.3233 87.6633 71.29 86.99C71.2367 85.81 71.2633 84.6133 71.37 83.4C71.3773 83.3236 71.4054 83.2507 71.4513 83.1891C71.4972 83.1276 71.559 83.0798 71.6302 83.0509C71.7013 83.0221 71.7789 83.0132 71.8547 83.0254C71.9305 83.0376 72.0015 83.0703 72.06 83.12L73.16 84.06ZM72.3 86.95C72.1933 87.3433 72.2433 87.7 72.45 88.02C72.63 88.2933 72.7933 88.2867 72.94 88C73.5133 86.9 73.3867 85.96 72.56 85.18C72.536 85.1584 72.5068 85.1433 72.4753 85.1361C72.4438 85.1289 72.411 85.1298 72.38 85.1388C72.3489 85.1478 72.3207 85.1646 72.298 85.1876C72.2752 85.2105 72.2587 85.2389 72.25 85.27C72.1367 85.6567 72.1433 86.04 72.27 86.42C72.33 86.5933 72.34 86.77 72.3 86.95ZM121.74 129.83C119.81 133.5 117.24 141.42 119.27 146.04C119.339 146.2 119.45 146.337 119.591 146.438C119.732 146.538 119.898 146.598 120.07 146.61C122.157 146.77 123.6 146.523 124.4 145.87C130.827 140.61 134.957 133.953 136.79 125.9C136.863 125.58 137.007 125.26 137.22 124.94C138.63 122.8 137.25 119.55 136.44 117.37C136.333 117.077 136.15 116.84 135.89 116.66C133.583 115.053 131.477 115.033 129.57 116.6C127.597 118.22 126.017 120.857 124.83 124.51C124.73 124.817 124.553 125.063 124.3 125.25C122.72 126.46 122.38 128.6 121.74 129.83Z" fill="white"/>
<path d="M128.96 65.77C129.493 65.53 129.597 65.4 129.27 65.38L130.05 65.86C130.37 66.0533 130.61 65.98 130.77 65.64L133.68 59.55C133.84 59.2033 133.907 58.84 133.88 58.46C133.753 56.5133 134.083 53.99 134.87 50.89C135.41 48.7833 135.733 45.4833 135.84 40.99C135.88 39.4767 135.58 37.8767 134.94 36.19C133.853 33.29 133.057 30.31 132.55 27.25C132.337 25.9567 131.857 24.6933 131.11 23.46C129.31 20.4733 128.06 17.1033 127.36 13.35C127.33 13.1959 127.337 13.037 127.378 12.8857C127.42 12.7345 127.496 12.5948 127.601 12.4778C127.705 12.3607 127.835 12.2693 127.981 12.2107C128.126 12.1521 128.284 12.1279 128.44 12.14L133.93 12.57C134.065 12.5796 134.198 12.6175 134.318 12.6812C134.439 12.7449 134.545 12.833 134.63 12.94L136.16 14.85C136.219 14.9231 136.302 14.9732 136.394 14.9913C136.486 15.0095 136.582 14.9946 136.664 14.9492C136.747 14.9039 136.81 14.831 136.844 14.7434C136.878 14.6558 136.88 14.559 136.85 14.47C136.05 12.1367 134.437 10.6667 132.01 10.06C131.737 9.99333 131.593 9.82333 131.58 9.55C131.45 7.16 129.85 2.84 133.21 1.56C133.497 1.45333 133.77 1.47666 134.03 1.63C139.85 4.92 142.36 8.92 146.53 15.1C147.763 16.94 148.74 19.0067 149.46 21.3C150.48 24.5333 151.567 27.74 152.72 30.92C153.74 33.7067 154.367 36.3367 154.6 38.81C155.87 52.14 155.26 64.04 150.67 75.98C150.35 76.8133 149.637 78.13 148.53 79.93C147.723 81.2367 147.133 82.6433 146.76 84.15C146.667 84.5433 146.467 84.61 146.16 84.35C144.96 83.3433 144.857 82.3033 145.85 81.23C145.911 81.1619 145.955 81.08 145.978 80.9913C146.001 80.9026 146.003 80.8096 145.982 80.7203C145.961 80.631 145.919 80.548 145.86 80.4783C145.8 80.4086 145.725 80.3543 145.64 80.32L145.29 80.18C145.017 80.0733 144.88 80.1667 144.88 80.46V81.22C144.88 81.68 144.773 81.71 144.56 81.31C143.42 79.18 143.03 76.44 141.85 74.68C139.017 70.4733 135.01 67.9033 129.83 66.97C129.497 66.91 129.273 66.7867 129.16 66.6C129.027 66.3733 128.96 66.0967 128.96 65.77Z" fill="white"/>
<path d="M72.27 86.42C72.1433 86.04 72.1367 85.6567 72.25 85.27C72.2587 85.2389 72.2752 85.2105 72.298 85.1875C72.3207 85.1646 72.3489 85.1478 72.38 85.1388C72.411 85.1298 72.4438 85.1289 72.4753 85.1361C72.5068 85.1433 72.536 85.1584 72.56 85.18C73.3867 85.96 73.5133 86.9 72.94 88C72.7933 88.2867 72.63 88.2933 72.45 88.02C72.2433 87.7 72.1933 87.3433 72.3 86.95C72.34 86.77 72.33 86.5933 72.27 86.42Z" fill="black"/>
<path d="M121.74 129.83C122.38 128.6 122.72 126.46 124.3 125.25C124.553 125.063 124.73 124.817 124.83 124.51C126.017 120.857 127.597 118.22 129.57 116.6C131.477 115.033 133.583 115.053 135.89 116.66C136.15 116.84 136.333 117.077 136.44 117.37C137.25 119.55 138.63 122.8 137.22 124.94C137.007 125.26 136.863 125.58 136.79 125.9C134.957 133.953 130.827 140.61 124.4 145.87C123.6 146.523 122.157 146.77 120.07 146.61C119.898 146.598 119.732 146.538 119.591 146.438C119.45 146.337 119.339 146.2 119.27 146.04C117.24 141.42 119.81 133.5 121.74 129.83ZM134.34 119L135.22 119.35C135.291 119.377 135.369 119.382 135.443 119.366C135.518 119.35 135.586 119.313 135.639 119.26C135.692 119.207 135.728 119.14 135.742 119.067C135.757 118.994 135.749 118.919 135.72 118.85C135.407 118.097 134.83 117.587 133.99 117.32C133.243 117.08 132.917 117.347 133.01 118.12C133.143 119.22 133.077 120.36 132.81 121.54C132.74 121.913 132.816 122.282 133.025 122.575C133.233 122.868 133.558 123.065 133.937 123.128C134.316 123.19 134.721 123.113 135.075 122.912C135.428 122.711 135.705 122.4 135.85 122.04C135.983 121.673 135.38 120.81 134.04 119.45C133.999 119.404 133.975 119.345 133.971 119.284C133.967 119.222 133.983 119.161 134.017 119.11C134.052 119.059 134.102 119.02 134.16 119C134.218 118.98 134.282 118.98 134.34 119ZM133.34 127.87L134.97 124.68C135.117 124.4 135.047 124.187 134.76 124.04L133.49 123.41C133.243 123.29 133.08 123.36 133 123.62L132.37 125.6C132.339 125.697 132.33 125.8 132.344 125.902C132.358 126.004 132.394 126.102 132.45 126.19C132.99 127.01 133.043 127.777 132.61 128.49C131.4 130.47 130.74 132.73 130.18 134.97C130.087 135.357 130.213 135.453 130.56 135.26C130.707 135.173 130.817 135.043 130.89 134.87C131.65 132.99 133.43 130.65 133.17 128.9C133.123 128.54 133.18 128.197 133.34 127.87ZM125.33 141.785C125.381 141.834 125.494 141.818 125.663 141.737C125.832 141.656 126.053 141.512 126.314 141.313C126.575 141.114 126.87 140.865 127.183 140.578C127.497 140.292 127.821 139.975 128.139 139.644C128.781 138.978 129.355 138.298 129.736 137.757C130.117 137.215 130.273 136.855 130.17 136.755C130.119 136.706 130.006 136.722 129.837 136.803C129.668 136.884 129.447 137.028 129.186 137.227C128.925 137.426 128.63 137.675 128.317 137.962C128.003 138.248 127.679 138.565 127.361 138.896C126.719 139.562 126.145 140.242 125.764 140.783C125.383 141.325 125.227 141.685 125.33 141.785ZM123.95 143.52L121.64 144.28C121.469 144.329 121.324 144.444 121.238 144.6C121.152 144.755 121.131 144.939 121.18 145.11C121.229 145.281 121.344 145.426 121.5 145.512C121.655 145.598 121.839 145.619 122.01 145.57C122.977 145.33 123.723 144.77 124.25 143.89C124.483 143.497 124.383 143.373 123.95 143.52Z" fill="black"/>
<path d="M134.34 119C134.282 118.98 134.218 118.98 134.16 119C134.102 119.02 134.052 119.059 134.017 119.11C133.983 119.161 133.967 119.222 133.971 119.284C133.975 119.345 133.999 119.404 134.04 119.45C135.38 120.81 135.983 121.673 135.85 122.04C135.705 122.4 135.428 122.711 135.075 122.912C134.721 123.113 134.316 123.19 133.937 123.128C133.558 123.065 133.233 122.868 133.025 122.575C132.816 122.282 132.74 121.913 132.81 121.54C133.077 120.36 133.143 119.22 133.01 118.12C132.917 117.347 133.243 117.08 133.99 117.32C134.83 117.587 135.407 118.097 135.72 118.85C135.749 118.919 135.757 118.994 135.743 119.067C135.728 119.14 135.692 119.207 135.639 119.26C135.586 119.313 135.518 119.35 135.443 119.366C135.369 119.382 135.291 119.377 135.22 119.35L134.34 119Z" fill="white"/>
<path d="M96.16 141.55C98.82 136.03 101.7 126.48 99.54 120.23C99.5293 120.211 99.5257 120.189 99.5298 120.168C99.534 120.147 99.5456 120.128 99.5626 120.115C99.5795 120.101 99.6007 120.095 99.6223 120.095C99.6438 120.096 99.6643 120.105 99.68 120.12C99.7667 120.187 99.85 120.25 99.93 120.31C99.9833 120.35 100.017 120.403 100.03 120.47C101.043 124.523 101.163 128.203 100.39 131.51C99.4767 135.41 98.25 138.803 96.71 141.69C96.1233 142.797 95.1433 143.647 93.77 144.24C93.27 144.453 93.1833 144.34 93.51 143.9C94.03 143.22 94.6767 142.68 95.45 142.28C95.77 142.113 96.0067 141.87 96.16 141.55Z" fill="white"/>
<path d="M133.17 128.9C133.43 130.65 131.65 132.99 130.89 134.87C130.817 135.043 130.707 135.173 130.56 135.26C130.213 135.453 130.087 135.357 130.18 134.97C130.74 132.73 131.4 130.47 132.61 128.49C133.043 127.777 132.99 127.01 132.45 126.19C132.394 126.102 132.358 126.004 132.344 125.902C132.33 125.8 132.339 125.697 132.37 125.6L133 123.62C133.08 123.36 133.243 123.29 133.49 123.41L134.76 124.04C135.047 124.187 135.117 124.4 134.97 124.68L133.34 127.87C133.18 128.197 133.123 128.54 133.17 128.9Z" fill="white"/>
<path d="M127.361 138.896C126.024 140.284 125.115 141.578 125.33 141.785C125.545 141.992 126.803 141.033 128.139 139.644C129.476 138.256 130.385 136.962 130.17 136.755C129.955 136.548 128.697 137.507 127.361 138.896Z" fill="white"/>
<path d="M64.64 199.19L64.49 197.29C64.4567 196.937 64.2667 196.74 63.92 196.7L62.14 196.49C61.6333 196.43 61.5367 196.707 61.85 197.32C61.9167 197.447 61.9133 197.583 61.84 197.73C61.6533 198.097 61.4733 198.093 61.3 197.72L60.89 196.85C60.7767 196.61 60.5867 196.48 60.32 196.46C55.9733 196.1 51.7933 194.683 47.78 192.21C47.3733 191.957 47.1933 191.67 47.24 191.35C47.2933 190.95 47.4633 190.893 47.75 191.18C48.4833 191.913 49.11 192.313 49.63 192.38C52.95 192.8 55.68 194.66 58.5 195.16C62.67 195.9 70.55 196.73 71.89 191.24C73.69 183.87 70.09 178.44 65.23 173.44C65.0767 173.28 64.9633 173.097 64.89 172.89C64.6767 172.35 64.1533 171.973 63.32 171.76C61.1733 171.213 59.94 169.817 59.62 167.57C59.5667 167.19 59.35 167.023 58.97 167.07C57.9367 167.21 57 167.603 56.16 168.25C55.92 168.437 55.65 168.497 55.35 168.43C52.28 167.75 49.42 172.99 47.88 174.77C47.0733 175.697 46.3333 176.677 45.66 177.71C45.6221 177.769 45.5686 177.816 45.5053 177.845C45.4419 177.875 45.3712 177.886 45.301 177.878C45.2307 177.87 45.1636 177.842 45.1069 177.799C45.0503 177.755 45.0064 177.696 44.98 177.63L43.88 174.84C43.84 174.74 43.7695 174.655 43.6787 174.597C43.588 174.539 43.4816 174.51 43.3749 174.516C43.2681 174.521 43.1666 174.56 43.0849 174.628C43.0031 174.695 42.9454 174.787 42.92 174.89C42.3867 176.917 42.2733 178.977 42.58 181.07C42.6067 181.297 42.54 181.49 42.38 181.65L41.38 182.62C41.2353 182.765 41.1259 182.939 41.06 183.13C39.6 187.36 36.78 190.89 35.88 195.12C34.8 200.193 33.6733 205.25 32.5 210.29C31.3467 215.21 30.5633 219.9 30.15 224.36C29.7033 229.113 29.2933 233.867 28.92 238.62C28.6267 242.44 28.63 245.86 28.93 248.88C29.31 252.76 29.8733 256.14 30.62 259.02C31.02 260.567 31.0633 261.903 30.75 263.03C30.63 263.477 30.4667 263.493 30.26 263.08C28.11 258.7 25.39 254.84 23.6 250.3C23.1467 249.153 22.5 247.793 21.66 246.22C19.4667 242.093 17.8433 237.04 16.79 231.06C16.6967 230.533 16.5633 230.527 16.39 231.04C15.61 233.407 15.6033 235.593 16.37 237.6C17.21 239.8 17.81 240.69 16.87 243.07C15.2833 247.11 14.5633 251.327 14.71 255.72C14.7233 256.267 14.55 256.333 14.19 255.92C13.09 254.67 11.75 253.45 10.9 252.05C8.29999 247.757 6.30999 243.223 4.92999 238.45C3.66332 234.063 3.03666 229.203 3.05 223.87C3.07 215.25 4.41666 207.297 7.08999 200.01C8.63666 195.77 10.9333 191.153 13.98 186.16C20.08 176.16 28.83 167.75 37.92 160.4C42.23 156.91 47.14 154.84 52.12 152.34C52.2615 152.267 52.4241 152.246 52.5794 152.281C52.7347 152.316 52.8729 152.404 52.97 152.53C55.57 155.863 58.8967 158.063 62.95 159.13C63.21 159.197 63.3467 159.367 63.36 159.64L63.63 164.52C63.6377 164.662 63.5972 164.802 63.5153 164.917C63.4334 165.031 63.315 165.114 63.18 165.15C62.22 165.423 61.53 166.04 61.11 167C60.9433 167.373 61.0567 167.627 61.45 167.76L63.12 168.31C63.2325 168.346 63.3317 168.414 63.4048 168.507C63.4779 168.6 63.5215 168.712 63.53 168.83L63.66 170.36C63.6707 170.482 63.7239 170.596 63.8103 170.682C63.8966 170.768 64.0106 170.822 64.1323 170.832C64.254 170.843 64.3755 170.811 64.4757 170.741C64.5758 170.671 64.6481 170.568 64.68 170.45C65.06 169.043 65.0733 167.623 64.72 166.19C64.6533 165.923 64.6267 165.657 64.64 165.39L65.86 138.7C65.88 138.2 66.11 138.067 66.55 138.3L68.23 139.2C68.397 139.297 68.5961 139.328 68.79 139.29C70.31 138.977 71.49 139.417 72.33 140.61C72.4716 140.803 72.6777 140.938 72.91 140.99C75.07 141.403 77.02 142.19 78.76 143.35C81.6667 145.283 83.2733 146.327 83.58 146.48C86.56 148.033 89.5467 149.57 92.54 151.09C94.0467 151.863 95.9466 152.503 98.24 153.01C100.893 153.603 103.443 154.477 105.89 155.63C108.583 156.903 110.767 157.773 112.44 158.24C115.44 159.067 118.44 159.917 121.44 160.79C122.327 161.05 123.557 161.223 125.13 161.31C128.51 161.5 132.14 163.69 135.52 161.59C138.633 159.65 143.143 156.163 149.05 151.13C151.23 149.27 153.92 148.64 155.69 145.09C155.762 144.943 155.886 144.826 156.039 144.763C156.191 144.7 156.361 144.695 156.516 144.748C156.671 144.801 156.8 144.91 156.878 145.052C156.956 145.194 156.978 145.361 156.94 145.52C156.24 148.77 156.19 151.52 154.6 154.62C152.513 158.673 151.063 162.387 150.25 165.76C149.377 169.373 148.183 172.44 146.67 174.96C146.483 175.273 146.223 175.507 145.89 175.66C142.237 177.347 139.8 180.09 138.58 183.89C138.467 184.243 138.517 184.57 138.73 184.87L142.45 190C142.545 190.132 142.601 190.288 142.609 190.451C142.618 190.614 142.58 190.777 142.5 190.92L141.49 192.78C141.343 193.053 141.24 193.343 141.18 193.65C140.233 198.977 138.807 204.163 136.9 209.21C136.42 210.477 135.63 211.553 134.53 212.44C129.87 216.18 125.38 219.71 121.16 223.95C119.827 225.29 118.29 226.41 116.55 227.31C116.283 227.45 116.027 227.433 115.78 227.26L114.68 226.45C114.57 226.369 114.436 226.328 114.299 226.331C114.161 226.335 114.028 226.384 113.92 226.47L112.47 227.61C112.157 227.857 111.813 227.917 111.44 227.79C108.18 226.703 104.903 225.66 101.61 224.66C99.81 224.113 96.53 223.323 91.77 222.29C82.7166 220.317 74.2367 216.857 66.33 211.91C65.56 211.44 65.03 210.63 65.12 209.78C65.12 209.742 65.1073 209.705 65.084 209.675C65.0607 209.646 65.028 209.624 64.9912 209.615C64.9544 209.606 64.9156 209.609 64.881 209.625C64.8463 209.64 64.8178 209.667 64.8 209.7C64.0067 211.667 64.7433 213.12 67.01 214.06C73.0433 216.567 79.0367 219.15 84.99 221.81C87.87 223.097 91.2133 224.223 95.02 225.19C96.18 225.483 98.2767 226.19 101.31 227.31C103.577 228.15 106.043 228.72 108.71 229.02C108.795 229.033 108.874 229.075 108.932 229.139C108.991 229.202 109.026 229.284 109.031 229.37C109.037 229.456 109.014 229.542 108.964 229.613C108.915 229.684 108.843 229.736 108.76 229.76C107.63 230.04 106.27 230.15 105.09 229.72C96.7967 226.7 88.4867 223.733 80.16 220.82C76.58 219.57 73.06 217.86 69.43 216.41C64.89 214.59 62.82 212.09 63 207.25C63.1067 204.397 63.0733 201.553 62.9 198.72C62.88 198.327 63.01 198.263 63.29 198.53L64.2 199.39C64.5267 199.703 64.6733 199.637 64.64 199.19ZM17.41 223.21L18.84 212.34C18.8867 211.993 19.01 211.683 19.21 211.41C20.1033 210.19 20.4667 208.81 20.3 207.27C20.2744 206.991 20.3448 206.71 20.5 206.47C22.52 203.44 22.83 199.86 24.01 197.11C25.97 192.523 28.1367 188.03 30.51 183.63C30.98 182.76 30.92 181.85 30.33 181.11C30.2376 180.99 30.1874 180.843 30.1874 180.693C30.1874 180.543 30.2376 180.397 30.33 180.28C31.4 178.94 32.62 178.01 33.46 176.49C35.44 172.89 38.11 169.867 41.47 167.42C41.5015 167.397 41.5264 167.367 41.5423 167.331C41.5582 167.296 41.5644 167.257 41.5603 167.218C41.5562 167.18 41.542 167.143 41.5192 167.112C41.4963 167.08 41.4655 167.056 41.43 167.04C41.2967 166.973 41.1667 166.987 41.04 167.08C34.3067 171.693 29.5567 177.82 26.79 185.46C26.6233 185.933 26.58 186.667 26.66 187.66C26.6867 187.973 26.63 188.27 26.49 188.55C21.61 198.3 14.26 212.29 16.16 223.24C16.1826 223.392 16.26 223.53 16.3775 223.629C16.4951 223.728 16.6447 223.781 16.7982 223.777C16.9518 223.773 17.0987 223.714 17.2114 223.609C17.3241 223.505 17.3947 223.363 17.41 223.21Z" fill="white"/>
<path d="M84.4699 144.434C85.3463 145.001 86.1419 145.329 86.2469 145.167C86.3519 145.004 85.7265 144.413 84.8501 143.846C83.9737 143.279 83.1781 142.951 83.0731 143.113C82.9681 143.276 83.5935 143.867 84.4699 144.434Z" fill="white"/>
<path d="M123.95 143.52C124.383 143.373 124.483 143.497 124.25 143.89C123.723 144.77 122.977 145.33 122.01 145.57C121.839 145.619 121.655 145.598 121.5 145.512C121.344 145.426 121.229 145.281 121.18 145.11C121.131 144.939 121.152 144.755 121.238 144.6C121.324 144.444 121.469 144.329 121.64 144.28L123.95 143.52Z" fill="white"/>
<path d="M18.84 212.34L17.41 223.21C17.3947 223.363 17.3241 223.505 17.2114 223.609C17.0988 223.714 16.9518 223.773 16.7983 223.777C16.6447 223.781 16.4951 223.728 16.3775 223.629C16.26 223.53 16.1826 223.392 16.16 223.24C14.26 212.29 21.61 198.3 26.49 188.55C26.63 188.27 26.6867 187.973 26.66 187.66C26.58 186.667 26.6233 185.933 26.79 185.46C29.5567 177.82 34.3067 171.693 41.04 167.08C41.1667 166.987 41.2967 166.973 41.43 167.04C41.4655 167.056 41.4963 167.08 41.5192 167.112C41.5421 167.143 41.5562 167.18 41.5603 167.218C41.5644 167.257 41.5582 167.296 41.5423 167.331C41.5264 167.367 41.5015 167.397 41.47 167.42C38.11 169.867 35.44 172.89 33.46 176.49C32.62 178.01 31.4 178.94 30.33 180.28C30.2376 180.397 30.1874 180.543 30.1874 180.693C30.1874 180.843 30.2376 180.99 30.33 181.11C30.92 181.85 30.98 182.76 30.51 183.63C28.1367 188.03 25.97 192.523 24.01 197.11C22.83 199.86 22.52 203.44 20.5 206.47C20.3448 206.71 20.2744 206.991 20.3 207.27C20.4667 208.81 20.1033 210.19 19.21 211.41C19.01 211.683 18.8867 211.993 18.84 212.34Z" fill="black"/>
<path d="M138.01 211.48L139.62 212.73L139.66 228.76C139.658 228.867 139.62 228.971 139.551 229.055C139.483 229.138 139.389 229.196 139.284 229.218C139.18 229.24 139.072 229.226 138.978 229.177C138.885 229.128 138.811 229.048 138.77 228.95C137.38 225.81 135.72 220.35 133.31 218.09C133.208 217.99 133.073 217.929 132.93 217.92C132.787 217.91 132.645 217.952 132.531 218.038C132.416 218.123 132.335 218.247 132.304 218.387C132.273 218.527 132.293 218.673 132.36 218.8C133.7 221.47 136.82 226.74 136.06 229.77C136.009 229.963 135.894 230.133 135.734 230.253C135.574 230.373 135.379 230.436 135.179 230.431C134.98 230.427 134.787 230.355 134.633 230.228C134.479 230.101 134.372 229.925 134.33 229.73L132.92 222.61C132.892 222.47 132.832 222.34 132.745 222.229C132.658 222.118 132.547 222.029 132.42 221.97C131.367 221.49 130.617 220.697 130.17 219.59C130.043 219.257 130.073 218.94 130.26 218.64C132.24 215.487 134.823 213.1 138.01 211.48Z" fill="white"/>
<path d="M33.67 250.46C33.89 251.313 33.7067 251.94 33.12 252.34C31.3333 247.893 31.0733 243.31 32.34 238.59C32.38 238.457 32.5267 238.397 32.78 238.41C33.0867 238.43 33.22 238.593 33.18 238.9C32.68 242.913 32.8433 246.767 33.67 250.46Z" fill="white"/>
<path d="M79.12 253L77.52 250.77C77.3133 250.483 77.0333 250.34 76.68 250.34C76.04 250.333 75.3767 250.547 74.69 250.98C73.82 250.21 72.74 250.79 72.24 251.73C71.5267 253.083 70.82 254.443 70.12 255.81C69.9733 256.103 69.7333 256.24 69.4 256.22C68.6533 256.167 68.2767 255.67 68.27 254.73C68.27 254.397 68.38 254.103 68.6 253.85L70.91 251.2C71.05 251.033 71.07 250.857 70.97 250.67C70.9033 250.55 70.84 250.427 70.78 250.3C70.6533 250.047 70.4867 250.017 70.28 250.21L66.56 253.66C66.22 253.753 65.9 253.757 65.6 253.67C65.4 253.17 65.5133 252.74 65.94 252.38C69.4533 249.447 73.62 247.483 78.44 246.49C78.5131 246.476 78.5885 246.483 78.6585 246.508C78.7284 246.533 78.7905 246.576 78.8383 246.633C78.8861 246.69 78.9179 246.759 78.9305 246.832C78.9431 246.905 78.936 246.98 78.91 247.05C77.51 250.56 82.45 253.49 84.96 254.55C85.26 254.677 85.2467 254.757 84.92 254.79C82.8333 255.037 80.9 254.44 79.12 253Z" fill="white"/>
<path d="M86.6611 249.961C87.4056 250.949 88.2952 251.535 88.6481 251.269C89.0009 251.003 88.6834 249.987 87.9389 248.999C87.1944 248.011 86.3048 247.425 85.9519 247.691C85.5991 247.957 85.9166 248.973 86.6611 249.961Z" fill="white"/>
<path d="M41.81 254.2C41.53 254.26 41.2467 254.117 40.96 253.77L41.39 250.44C41.3967 250.393 41.3767 250.377 41.33 250.39C41.3233 250.39 41.3133 250.39 41.3 250.39C41.28 250.397 41.2733 250.41 41.28 250.43C41.9 251.75 42.0767 253.007 41.81 254.2Z" fill="white"/>
<path d="M74.69 250.98C73.6167 252.913 72.46 254.81 71.22 256.67C70.35 257.97 68.95 258.71 67.79 257.32C67.07 256.45 67.03 254.84 66.56 253.66L70.28 250.21C70.4867 250.017 70.6533 250.047 70.78 250.3C70.84 250.427 70.9033 250.55 70.97 250.67C71.07 250.857 71.05 251.033 70.91 251.2L68.6 253.85C68.38 254.103 68.27 254.397 68.27 254.73C68.2767 255.67 68.6533 256.167 69.4 256.22C69.7333 256.24 69.9733 256.103 70.12 255.81C70.82 254.443 71.5267 253.083 72.24 251.73C72.74 250.79 73.82 250.21 74.69 250.98Z" fill="black"/>
<path d="M17.58 252.96C18.4667 255.88 18.31 258.49 17.11 260.79C15.6633 257.45 15.82 254.84 17.58 252.96Z" fill="white"/>
</svg>
