<svg width="325" height="333" viewBox="0 0 325 333" fill="none" xmlns="http://www.w3.org/2000/svg">
<g clip-path="url(#clip0_4_50)">
<rect width="325" height="333" rx="8" fill="#FBFBFB"/>
<mask id="path-2-inside-1_4_50" fill="white">
<path d="M0 0H325V31H0V0Z"/>
</mask>
<path d="M325 30.5H0V31.5H325V30.5Z" fill="black" fill-opacity="0.1" mask="url(#path-2-inside-1_4_50)"/>
<circle cx="20" cy="16" r="5" fill="#88B6FF"/>
<circle cx="34" cy="16" r="5" fill="#CDE0FF"/>
<circle cx="48" cy="16" r="5" fill="#3684FF"/>
<rect x="19" y="50" width="287" height="99" rx="8" fill="white"/>
<rect x="19.25" y="50.25" width="286.5" height="98.5" rx="7.75" stroke="black" stroke-opacity="0.1" stroke-width="0.5"/>
<mask id="path-9-inside-2_4_50" fill="white">
<path d="M19 50H306V74H19V50Z"/>
</mask>
<path d="M306 73.5H19V74.5H306V73.5Z" fill="black" fill-opacity="0.1" mask="url(#path-9-inside-2_4_50)"/>
<path d="M29.6822 65V59.4H30.3222L32.6502 63.232H32.2342L34.5622 59.4H35.2022V65H34.2822V61.016L34.4902 61.072L32.7622 63.912H32.1222L30.3942 61.072L30.6022 61.016V65H29.6822ZM36.0006 65L38.3046 59.4H38.9446L41.2326 65H40.2406L38.4486 60.464H38.7846L36.9766 65H36.0006ZM37.1366 63.92V63.12H40.1046V63.92H37.1366ZM42.6683 65V59.56H43.5883V65H42.6683ZM40.8443 60.24V59.4H45.4123V60.24H40.8443ZM46.2135 65V59.4H47.1335V65H46.2135ZM46.8455 65V64.16H49.9815V65H46.8455ZM46.8455 62.544V61.736H49.7095V62.544H46.8455ZM46.8455 60.24V59.4H49.9415V60.24H46.8455ZM50.9322 65V59.4H51.5722L53.9002 63.232H53.4842L55.8122 59.4H56.4522V65H55.5322V61.016L55.7402 61.072L54.0122 63.912H53.3722L51.6442 61.072L51.8522 61.016V65H50.9322ZM57.2506 65L59.5546 59.4H60.1946L62.4826 65H61.4906L59.6986 60.464H60.0346L58.2266 65H57.2506ZM58.3866 63.92V63.12H61.3546V63.92H58.3866ZM59.4106 58.848L59.0106 58.448L60.0346 57.144L60.7146 57.824L59.4106 58.848ZM63.9183 65V59.56H64.8383V65H63.9183ZM62.0943 60.24V59.4H66.6623V60.24H62.0943ZM67.4635 65V59.4H68.3835V65H67.4635ZM72.1403 65.08C71.7349 65.08 71.3589 65.008 71.0123 64.864C70.6709 64.7147 70.3723 64.5093 70.1163 64.248C69.8603 63.9813 69.6629 63.6747 69.5243 63.328C69.3856 62.976 69.3163 62.6 69.3163 62.2C69.3163 61.8 69.3856 61.4267 69.5243 61.08C69.6629 60.728 69.8603 60.4213 70.1163 60.16C70.3723 59.8987 70.6709 59.6933 71.0123 59.544C71.3589 59.3947 71.7349 59.32 72.1403 59.32C72.5936 59.32 72.9856 59.3947 73.3163 59.544C73.6469 59.6933 73.9403 59.896 74.1963 60.152L73.5723 60.776C73.4069 60.5947 73.2043 60.4533 72.9643 60.352C72.7296 60.2507 72.4549 60.2 72.1403 60.2C71.8629 60.2 71.6096 60.248 71.3803 60.344C71.1509 60.44 70.9509 60.5787 70.7803 60.76C70.6149 60.936 70.4869 61.1467 70.3963 61.392C70.3056 61.6373 70.2603 61.9067 70.2603 62.2C70.2603 62.4933 70.3056 62.7627 70.3963 63.008C70.4869 63.2533 70.6149 63.4667 70.7803 63.648C70.9509 63.824 71.1509 63.96 71.3803 64.056C71.6096 64.152 71.8629 64.2 72.1403 64.2C72.4816 64.2 72.7696 64.1493 73.0043 64.048C73.2443 63.9413 73.4469 63.7973 73.6123 63.616L74.2363 64.24C73.9803 64.5013 73.6789 64.7067 73.3323 64.856C72.9856 65.0053 72.5883 65.08 72.1403 65.08ZM74.5006 65L76.8046 59.4H77.4446L79.7326 65H78.7406L76.9486 60.464H77.2846L75.4766 65H74.5006ZM75.6366 63.92V63.12H78.6046V63.92H75.6366Z" fill="#FBBF24"/>
<rect x="29" y="121" width="266" height="21" rx="8" fill="#FFDF38"/>
<path d="M148.209 134L146.27 129.079H147.299L148.797 133.062H148.398L149.91 129.079H150.925L148.965 134H148.209ZM151.57 134V129.079H152.522V134H151.57ZM152.27 134V133.16H154.993V134H152.27ZM152.27 131.893V131.081H154.748V131.893H152.27ZM152.27 129.919V129.079H154.958V129.919H152.27ZM156.481 131.942V131.2H157.622C157.855 131.2 158.035 131.142 158.161 131.025C158.292 130.904 158.357 130.738 158.357 130.528C158.357 130.337 158.292 130.178 158.161 130.052C158.035 129.921 157.855 129.856 157.622 129.856H156.481V129.079H157.706C158.023 129.079 158.301 129.142 158.539 129.268C158.782 129.389 158.968 129.557 159.099 129.772C159.234 129.987 159.302 130.234 159.302 130.514C159.302 130.803 159.234 131.055 159.099 131.27C158.968 131.48 158.782 131.646 158.539 131.767C158.296 131.884 158.014 131.942 157.692 131.942H156.481ZM155.781 134V129.079H156.733V134H155.781ZM158.469 134L156.845 131.872L157.72 131.599L159.624 134H158.469ZM161.626 134V129.079H162.298L164.293 132.271H163.908L165.896 129.079H166.568V134H165.623V130.71L165.805 130.766L164.419 132.992H163.775L162.389 130.766L162.578 130.71V134H161.626ZM167.209 134L169.19 129.079H169.967L171.941 134H170.926L169.4 129.961H169.75L168.203 134H167.209ZM168.259 133.083V132.285H170.905V133.083H168.259ZM172.522 134V129.079H173.474V134H172.522ZM175.816 134.07C175.42 134.07 175.079 134.002 174.794 133.867C174.514 133.732 174.26 133.529 174.031 133.258L174.661 132.628C174.806 132.819 174.974 132.969 175.165 133.076C175.357 133.179 175.59 133.23 175.865 133.23C176.113 133.23 176.309 133.181 176.453 133.083C176.603 132.985 176.677 132.85 176.677 132.677C176.677 132.528 176.635 132.406 176.551 132.313C176.467 132.22 176.355 132.14 176.215 132.075C176.08 132.01 175.928 131.951 175.76 131.9C175.597 131.844 175.431 131.781 175.263 131.711C175.1 131.641 174.948 131.555 174.808 131.452C174.673 131.345 174.563 131.209 174.479 131.046C174.395 130.878 174.353 130.668 174.353 130.416C174.353 130.117 174.426 129.863 174.57 129.653C174.715 129.443 174.913 129.282 175.165 129.17C175.417 129.058 175.702 129.002 176.019 129.002C176.355 129.002 176.659 129.065 176.929 129.191C177.2 129.317 177.422 129.48 177.594 129.681L176.964 130.311C176.82 130.152 176.67 130.036 176.516 129.961C176.367 129.886 176.197 129.849 176.005 129.849C175.786 129.849 175.613 129.891 175.487 129.975C175.361 130.059 175.298 130.18 175.298 130.339C175.298 130.474 175.34 130.584 175.424 130.668C175.508 130.752 175.618 130.824 175.753 130.885C175.893 130.946 176.045 131.004 176.208 131.06C176.376 131.116 176.542 131.179 176.705 131.249C176.873 131.319 177.025 131.41 177.16 131.522C177.3 131.634 177.412 131.779 177.496 131.956C177.58 132.129 177.622 132.343 177.622 132.6C177.622 133.057 177.461 133.417 177.139 133.678C176.817 133.939 176.376 134.07 175.816 134.07Z" fill="white"/>
<rect x="31" y="95" width="266" height="5" rx="2.5" fill="#EFEFEF"/>
<rect x="31" y="103" width="116" height="5" rx="2.5" fill="#EFEFEF"/>
<path d="M33.0811 88.06C32.7491 88.06 32.4671 88 32.2351 87.88C32.0031 87.76 31.7951 87.584 31.6111 87.352L32.0791 86.884C32.1951 87.052 32.3331 87.184 32.4931 87.28C32.6531 87.372 32.8571 87.418 33.1051 87.418C33.3371 87.418 33.5211 87.37 33.6571 87.274C33.7971 87.178 33.8671 87.046 33.8671 86.878C33.8671 86.738 33.8311 86.624 33.7591 86.536C33.6871 86.448 33.5911 86.376 33.4711 86.32C33.3551 86.26 33.2251 86.208 33.0811 86.164C32.9411 86.116 32.7991 86.064 32.6551 86.008C32.5151 85.948 32.3851 85.874 32.2651 85.786C32.1491 85.698 32.0551 85.584 31.9831 85.444C31.9111 85.304 31.8751 85.126 31.8751 84.91C31.8751 84.662 31.9351 84.452 32.0551 84.28C32.1791 84.104 32.3451 83.97 32.5531 83.878C32.7611 83.786 32.9931 83.74 33.2491 83.74C33.5251 83.74 33.7711 83.794 33.9871 83.902C34.2071 84.01 34.3851 84.148 34.5211 84.316L34.0531 84.784C33.9331 84.648 33.8071 84.548 33.6751 84.484C33.5471 84.416 33.3991 84.382 33.2311 84.382C33.0231 84.382 32.8591 84.424 32.7391 84.508C32.6231 84.592 32.5651 84.71 32.5651 84.862C32.5651 84.99 32.6011 85.094 32.6731 85.174C32.7451 85.25 32.8391 85.316 32.9551 85.372C33.0751 85.424 33.2051 85.474 33.3451 85.522C33.4891 85.57 33.6311 85.624 33.7711 85.684C33.9151 85.744 34.0451 85.822 34.1611 85.918C34.2811 86.01 34.3771 86.13 34.4491 86.278C34.5211 86.426 34.5571 86.612 34.5571 86.836C34.5571 87.212 34.4231 87.51 34.1551 87.73C33.8911 87.95 33.5331 88.06 33.0811 88.06ZM37.2122 88.06C36.9122 88.06 36.6322 88.004 36.3722 87.892C36.1122 87.78 35.8842 87.626 35.6882 87.43C35.4922 87.23 35.3382 87 35.2262 86.74C35.1182 86.476 35.0642 86.194 35.0642 85.894C35.0642 85.594 35.1182 85.314 35.2262 85.054C35.3382 84.794 35.4902 84.566 35.6822 84.37C35.8782 84.17 36.1042 84.016 36.3602 83.908C36.6202 83.796 36.9002 83.74 37.2002 83.74C37.5002 83.74 37.7782 83.796 38.0342 83.908C38.2942 84.016 38.5222 84.17 38.7182 84.37C38.9142 84.566 39.0662 84.796 39.1742 85.06C39.2862 85.32 39.3422 85.6 39.3422 85.9C39.3422 86.2 39.2862 86.482 39.1742 86.746C39.0662 87.006 38.9142 87.234 38.7182 87.43C38.5262 87.626 38.3002 87.78 38.0402 87.892C37.7842 88.004 37.5082 88.06 37.2122 88.06ZM37.2002 87.4C37.4842 87.4 37.7322 87.336 37.9442 87.208C38.1602 87.08 38.3282 86.904 38.4482 86.68C38.5722 86.452 38.6342 86.19 38.6342 85.894C38.6342 85.674 38.5982 85.474 38.5262 85.294C38.4582 85.11 38.3602 84.952 38.2322 84.82C38.1042 84.684 37.9522 84.58 37.7762 84.508C37.6042 84.436 37.4122 84.4 37.2002 84.4C36.9202 84.4 36.6722 84.464 36.4562 84.592C36.2442 84.716 36.0762 84.89 35.9522 85.114C35.8322 85.338 35.7722 85.598 35.7722 85.894C35.7722 86.114 35.8062 86.318 35.8742 86.506C35.9462 86.69 36.0442 86.848 36.1682 86.98C36.2962 87.112 36.4482 87.216 36.6242 87.292C36.8002 87.364 36.9922 87.4 37.2002 87.4ZM40.5179 88V87.4H41.7239C41.9359 87.4 42.0999 87.334 42.2159 87.202C42.3319 87.07 42.3899 86.918 42.3899 86.746C42.3899 86.63 42.3639 86.522 42.3119 86.422C42.2599 86.322 42.1839 86.242 42.0839 86.182C41.9839 86.122 41.8639 86.092 41.7239 86.092H40.5179V85.492H41.6219C41.8019 85.492 41.9459 85.446 42.0539 85.354C42.1619 85.262 42.2159 85.126 42.2159 84.946C42.2159 84.766 42.1619 84.63 42.0539 84.538C41.9459 84.446 41.8019 84.4 41.6219 84.4H40.5179V83.8H41.6399C41.9239 83.8 42.1599 83.852 42.3479 83.956C42.5359 84.06 42.6759 84.194 42.7679 84.358C42.8599 84.522 42.9059 84.698 42.9059 84.886C42.9059 85.106 42.8439 85.3 42.7199 85.468C42.5999 85.636 42.4219 85.772 42.1859 85.876L42.2399 85.66C42.5039 85.768 42.7099 85.92 42.8579 86.116C43.0059 86.312 43.0799 86.542 43.0799 86.806C43.0799 87.022 43.0259 87.22 42.9179 87.4C42.8139 87.58 42.6579 87.726 42.4499 87.838C42.2459 87.946 41.9939 88 41.6939 88H40.5179ZM40.0439 88V83.8H40.7339V88H40.0439ZM44.2503 86.218V85.648H45.3123C45.5243 85.648 45.6883 85.594 45.8043 85.486C45.9243 85.374 45.9843 85.22 45.9843 85.024C45.9843 84.848 45.9263 84.7 45.8103 84.58C45.6943 84.46 45.5303 84.4 45.3183 84.4H44.2503V83.8H45.3483C45.6123 83.8 45.8443 83.854 46.0443 83.962C46.2443 84.066 46.3983 84.21 46.5063 84.394C46.6183 84.574 46.6743 84.78 46.6743 85.012C46.6743 85.256 46.6183 85.468 46.5063 85.648C46.3983 85.828 46.2443 85.968 46.0443 86.068C45.8443 86.168 45.6123 86.218 45.3483 86.218H44.2503ZM43.7763 88V83.8H44.4663V88H43.7763ZM46.0803 88L44.6103 86.176L45.2523 85.942L46.9503 88H46.0803ZM47.4619 88V83.8H48.1519V88H47.4619ZM47.9359 88V87.37H50.2879V88H47.9359ZM47.9359 86.158V85.552H50.0839V86.158H47.9359ZM47.9359 84.43V83.8H50.2579V84.43H47.9359Z" fill="black"/>
<rect x="19" y="282" width="287" height="99" rx="8" fill="white"/>
<rect x="19.25" y="282.25" width="286.5" height="98.5" rx="7.75" stroke="black" stroke-opacity="0.1" stroke-width="0.5"/>
<mask id="path-19-inside-3_4_50" fill="white">
<path d="M19 282H306V306H19V282Z"/>
</mask>
<path d="M306 305.5H19V306.5H306V305.5Z" fill="black" fill-opacity="0.1" mask="url(#path-19-inside-3_4_50)"/>
<path d="M30.0728 297V291.4H30.9928V297H30.0728ZM30.7048 294.6V293.76H33.5528V294.6H30.7048ZM30.7048 292.24V291.4H33.6888V292.24H30.7048ZM34.6041 297V291.4H35.5241V297H34.6041ZM34.6121 290.848L34.2121 290.448L35.2361 289.144L35.9161 289.824L34.6121 290.848ZM38.1875 297.08C37.7449 297.08 37.3689 297 37.0595 296.84C36.7502 296.68 36.4729 296.445 36.2275 296.136L36.8515 295.512C37.0062 295.736 37.1902 295.912 37.4035 296.04C37.6169 296.163 37.8889 296.224 38.2195 296.224C38.5289 296.224 38.7742 296.16 38.9555 296.032C39.1422 295.904 39.2355 295.728 39.2355 295.504C39.2355 295.317 39.1875 295.165 39.0915 295.048C38.9955 294.931 38.8675 294.835 38.7075 294.76C38.5529 294.68 38.3795 294.611 38.1875 294.552C38.0009 294.488 37.8115 294.419 37.6195 294.344C37.4329 294.264 37.2595 294.165 37.0995 294.048C36.9449 293.931 36.8195 293.779 36.7235 293.592C36.6275 293.405 36.5795 293.168 36.5795 292.88C36.5795 292.549 36.6595 292.269 36.8195 292.04C36.9849 291.805 37.2062 291.627 37.4835 291.504C37.7609 291.381 38.0702 291.32 38.4115 291.32C38.7795 291.32 39.1075 291.392 39.3955 291.536C39.6889 291.68 39.9262 291.864 40.1075 292.088L39.4835 292.712C39.3235 292.531 39.1555 292.397 38.9795 292.312C38.8089 292.221 38.6115 292.176 38.3875 292.176C38.1102 292.176 37.8915 292.232 37.7315 292.344C37.5769 292.456 37.4995 292.613 37.4995 292.816C37.4995 292.987 37.5475 293.125 37.6435 293.232C37.7395 293.333 37.8649 293.421 38.0195 293.496C38.1795 293.565 38.3529 293.632 38.5395 293.696C38.7315 293.76 38.9209 293.832 39.1075 293.912C39.2995 293.992 39.4729 294.096 39.6275 294.224C39.7875 294.347 39.9155 294.507 40.0115 294.704C40.1075 294.901 40.1555 295.149 40.1555 295.448C40.1555 295.949 39.9769 296.347 39.6195 296.64C39.2675 296.933 38.7902 297.08 38.1875 297.08ZM41.0728 297V291.4H41.9928V297H41.0728ZM45.7497 297.08C45.3443 297.08 44.9683 297.008 44.6217 296.864C44.2803 296.715 43.9817 296.509 43.7257 296.248C43.4697 295.981 43.2723 295.675 43.1337 295.328C42.995 294.976 42.9257 294.6 42.9257 294.2C42.9257 293.8 42.995 293.427 43.1337 293.08C43.2723 292.728 43.4697 292.421 43.7257 292.16C43.9817 291.899 44.2803 291.693 44.6217 291.544C44.9683 291.395 45.3443 291.32 45.7497 291.32C46.203 291.32 46.595 291.395 46.9257 291.544C47.2563 291.693 47.5497 291.896 47.8057 292.152L47.1817 292.776C47.0163 292.595 46.8137 292.453 46.5737 292.352C46.339 292.251 46.0643 292.2 45.7497 292.2C45.4723 292.2 45.219 292.248 44.9897 292.344C44.7603 292.44 44.5603 292.579 44.3897 292.76C44.2243 292.936 44.0963 293.147 44.0057 293.392C43.915 293.637 43.8697 293.907 43.8697 294.2C43.8697 294.493 43.915 294.763 44.0057 295.008C44.0963 295.253 44.2243 295.467 44.3897 295.648C44.5603 295.824 44.7603 295.96 44.9897 296.056C45.219 296.152 45.4723 296.2 45.7497 296.2C46.091 296.2 46.379 296.149 46.6137 296.048C46.8537 295.941 47.0563 295.797 47.2217 295.616L47.8457 296.24C47.5897 296.501 47.2883 296.707 46.9417 296.856C46.595 297.005 46.1977 297.08 45.7497 297.08ZM48.11 297L50.414 291.4H51.054L53.342 297H52.35L50.558 292.464H50.894L49.086 297H48.11ZM49.246 295.92V295.12H52.214V295.92H49.246Z" fill="#FF3055"/>
<rect x="31" y="327" width="266" height="5" rx="2.5" fill="#EFEFEF"/>
<path d="M33.0811 320.06C32.7491 320.06 32.4671 320 32.2351 319.88C32.0031 319.76 31.7951 319.584 31.6111 319.352L32.0791 318.884C32.1951 319.052 32.3331 319.184 32.4931 319.28C32.6531 319.372 32.8571 319.418 33.1051 319.418C33.3371 319.418 33.5211 319.37 33.6571 319.274C33.7971 319.178 33.8671 319.046 33.8671 318.878C33.8671 318.738 33.8311 318.624 33.7591 318.536C33.6871 318.448 33.5911 318.376 33.4711 318.32C33.3551 318.26 33.2251 318.208 33.0811 318.164C32.9411 318.116 32.7991 318.064 32.6551 318.008C32.5151 317.948 32.3851 317.874 32.2651 317.786C32.1491 317.698 32.0551 317.584 31.9831 317.444C31.9111 317.304 31.8751 317.126 31.8751 316.91C31.8751 316.662 31.9351 316.452 32.0551 316.28C32.1791 316.104 32.3451 315.97 32.5531 315.878C32.7611 315.786 32.9931 315.74 33.2491 315.74C33.5251 315.74 33.7711 315.794 33.9871 315.902C34.2071 316.01 34.3851 316.148 34.5211 316.316L34.0531 316.784C33.9331 316.648 33.8071 316.548 33.6751 316.484C33.5471 316.416 33.3991 316.382 33.2311 316.382C33.0231 316.382 32.8591 316.424 32.7391 316.508C32.6231 316.592 32.5651 316.71 32.5651 316.862C32.5651 316.99 32.6011 317.094 32.6731 317.174C32.7451 317.25 32.8391 317.316 32.9551 317.372C33.0751 317.424 33.2051 317.474 33.3451 317.522C33.4891 317.57 33.6311 317.624 33.7711 317.684C33.9151 317.744 34.0451 317.822 34.1611 317.918C34.2811 318.01 34.3771 318.13 34.4491 318.278C34.5211 318.426 34.5571 318.612 34.5571 318.836C34.5571 319.212 34.4231 319.51 34.1551 319.73C33.8911 319.95 33.5331 320.06 33.0811 320.06ZM37.2122 320.06C36.9122 320.06 36.6322 320.004 36.3722 319.892C36.1122 319.78 35.8842 319.626 35.6882 319.43C35.4922 319.23 35.3382 319 35.2262 318.74C35.1182 318.476 35.0642 318.194 35.0642 317.894C35.0642 317.594 35.1182 317.314 35.2262 317.054C35.3382 316.794 35.4902 316.566 35.6822 316.37C35.8782 316.17 36.1042 316.016 36.3602 315.908C36.6202 315.796 36.9002 315.74 37.2002 315.74C37.5002 315.74 37.7782 315.796 38.0342 315.908C38.2942 316.016 38.5222 316.17 38.7182 316.37C38.9142 316.566 39.0662 316.796 39.1742 317.06C39.2862 317.32 39.3422 317.6 39.3422 317.9C39.3422 318.2 39.2862 318.482 39.1742 318.746C39.0662 319.006 38.9142 319.234 38.7182 319.43C38.5262 319.626 38.3002 319.78 38.0402 319.892C37.7842 320.004 37.5082 320.06 37.2122 320.06ZM37.2002 319.4C37.4842 319.4 37.7322 319.336 37.9442 319.208C38.1602 319.08 38.3282 318.904 38.4482 318.68C38.5722 318.452 38.6342 318.19 38.6342 317.894C38.6342 317.674 38.5982 317.474 38.5262 317.294C38.4582 317.11 38.3602 316.952 38.2322 316.82C38.1042 316.684 37.9522 316.58 37.7762 316.508C37.6042 316.436 37.4122 316.4 37.2002 316.4C36.9202 316.4 36.6722 316.464 36.4562 316.592C36.2442 316.716 36.0762 316.89 35.9522 317.114C35.8322 317.338 35.7722 317.598 35.7722 317.894C35.7722 318.114 35.8062 318.318 35.8742 318.506C35.9462 318.69 36.0442 318.848 36.1682 318.98C36.2962 319.112 36.4482 319.216 36.6242 319.292C36.8002 319.364 36.9922 319.4 37.2002 319.4ZM40.5179 320V319.4H41.7239C41.9359 319.4 42.0999 319.334 42.2159 319.202C42.3319 319.07 42.3899 318.918 42.3899 318.746C42.3899 318.63 42.3639 318.522 42.3119 318.422C42.2599 318.322 42.1839 318.242 42.0839 318.182C41.9839 318.122 41.8639 318.092 41.7239 318.092H40.5179V317.492H41.6219C41.8019 317.492 41.9459 317.446 42.0539 317.354C42.1619 317.262 42.2159 317.126 42.2159 316.946C42.2159 316.766 42.1619 316.63 42.0539 316.538C41.9459 316.446 41.8019 316.4 41.6219 316.4H40.5179V315.8H41.6399C41.9239 315.8 42.1599 315.852 42.3479 315.956C42.5359 316.06 42.6759 316.194 42.7679 316.358C42.8599 316.522 42.9059 316.698 42.9059 316.886C42.9059 317.106 42.8439 317.3 42.7199 317.468C42.5999 317.636 42.4219 317.772 42.1859 317.876L42.2399 317.66C42.5039 317.768 42.7099 317.92 42.8579 318.116C43.0059 318.312 43.0799 318.542 43.0799 318.806C43.0799 319.022 43.0259 319.22 42.9179 319.4C42.8139 319.58 42.6579 319.726 42.4499 319.838C42.2459 319.946 41.9939 320 41.6939 320H40.5179ZM40.0439 320V315.8H40.7339V320H40.0439ZM44.2503 318.218V317.648H45.3123C45.5243 317.648 45.6883 317.594 45.8043 317.486C45.9243 317.374 45.9843 317.22 45.9843 317.024C45.9843 316.848 45.9263 316.7 45.8103 316.58C45.6943 316.46 45.5303 316.4 45.3183 316.4H44.2503V315.8H45.3483C45.6123 315.8 45.8443 315.854 46.0443 315.962C46.2443 316.066 46.3983 316.21 46.5063 316.394C46.6183 316.574 46.6743 316.78 46.6743 317.012C46.6743 317.256 46.6183 317.468 46.5063 317.648C46.3983 317.828 46.2443 317.968 46.0443 318.068C45.8443 318.168 45.6123 318.218 45.3483 318.218H44.2503ZM43.7763 320V315.8H44.4663V320H43.7763ZM46.0803 320L44.6103 318.176L45.2523 317.942L46.9503 320H46.0803ZM47.4619 320V315.8H48.1519V320H47.4619ZM47.9359 320V319.37H50.2879V320H47.9359ZM47.9359 318.158V317.552H50.0839V318.158H47.9359ZM47.9359 316.43V315.8H50.2579V316.43H47.9359Z" fill="black"/>
<rect x="19" y="166" width="287" height="99" rx="8" fill="white"/>
<rect x="19.25" y="166.25" width="286.5" height="98.5" rx="7.75" stroke="black" stroke-opacity="0.1" stroke-width="0.5"/>
<mask id="path-26-inside-4_4_50" fill="white">
<path d="M19 166H306V190H19V166Z"/>
</mask>
<path d="M306 189.5H19V190.5H306V189.5Z" fill="black" fill-opacity="0.1" mask="url(#path-26-inside-4_4_50)"/>
<path d="M30.2634 178.888V178.088H31.6634C31.8554 178.088 32.0234 178.051 32.1674 177.976C32.3168 177.896 32.4341 177.787 32.5194 177.648C32.6048 177.504 32.6474 177.336 32.6474 177.144C32.6474 176.952 32.6048 176.787 32.5194 176.648C32.4341 176.504 32.3168 176.395 32.1674 176.32C32.0234 176.24 31.8554 176.2 31.6634 176.2H30.2634V175.4H31.7114C32.0634 175.4 32.3781 175.472 32.6554 175.616C32.9381 175.76 33.1594 175.963 33.3194 176.224C33.4848 176.485 33.5674 176.792 33.5674 177.144C33.5674 177.496 33.4848 177.803 33.3194 178.064C33.1594 178.325 32.9381 178.528 32.6554 178.672C32.3781 178.816 32.0634 178.888 31.7114 178.888H30.2634ZM29.6314 181V175.4H30.5514V181H29.6314ZM37.0356 181.08C36.6356 181.08 36.2622 181.005 35.9156 180.856C35.5689 180.707 35.2649 180.501 35.0036 180.24C34.7422 179.973 34.5369 179.667 34.3876 179.32C34.2436 178.968 34.1716 178.592 34.1716 178.192C34.1716 177.792 34.2436 177.419 34.3876 177.072C34.5369 176.725 34.7396 176.421 34.9956 176.16C35.2569 175.893 35.5582 175.688 35.8996 175.544C36.2462 175.395 36.6196 175.32 37.0196 175.32C37.4196 175.32 37.7902 175.395 38.1316 175.544C38.4782 175.688 38.7822 175.893 39.0436 176.16C39.3049 176.421 39.5076 176.728 39.6516 177.08C39.8009 177.427 39.8756 177.8 39.8756 178.2C39.8756 178.6 39.8009 178.976 39.6516 179.328C39.5076 179.675 39.3049 179.979 39.0436 180.24C38.7876 180.501 38.4862 180.707 38.1396 180.856C37.7982 181.005 37.4302 181.08 37.0356 181.08ZM37.0196 180.2C37.3982 180.2 37.7289 180.115 38.0116 179.944C38.2996 179.773 38.5236 179.539 38.6836 179.24C38.8489 178.936 38.9316 178.587 38.9316 178.192C38.9316 177.899 38.8836 177.632 38.7876 177.392C38.6969 177.147 38.5662 176.936 38.3956 176.76C38.2249 176.579 38.0222 176.44 37.7876 176.344C37.5582 176.248 37.3022 176.2 37.0196 176.2C36.6462 176.2 36.3156 176.285 36.0276 176.456C35.7449 176.621 35.5209 176.853 35.3556 177.152C35.1956 177.451 35.1156 177.797 35.1156 178.192C35.1156 178.485 35.1609 178.757 35.2516 179.008C35.3476 179.253 35.4782 179.464 35.6436 179.64C35.8142 179.816 36.0169 179.955 36.2516 180.056C36.4862 180.152 36.7422 180.2 37.0196 180.2ZM41.4431 178.624V177.864H42.8591C43.1418 177.864 43.3605 177.792 43.5151 177.648C43.6751 177.499 43.7551 177.293 43.7551 177.032C43.7551 176.797 43.6778 176.6 43.5231 176.44C43.3685 176.28 43.1498 176.2 42.8671 176.2H41.4431V175.4H42.9071C43.2591 175.4 43.5685 175.472 43.8351 175.616C44.1018 175.755 44.3071 175.947 44.4511 176.192C44.6005 176.432 44.6751 176.707 44.6751 177.016C44.6751 177.341 44.6005 177.624 44.4511 177.864C44.3071 178.104 44.1018 178.291 43.8351 178.424C43.5685 178.557 43.2591 178.624 42.9071 178.624H41.4431ZM40.8111 181V175.4H41.7311V181H40.8111ZM43.8831 181L41.9231 178.568L42.7791 178.256L45.0431 181H43.8831ZM46.8598 181V175.56H47.7798V181H46.8598ZM45.0358 176.24V175.4H49.6038V176.24H45.0358ZM52.4946 181.08C52.0732 181.08 51.6946 180.984 51.3586 180.792C51.0226 180.6 50.7559 180.339 50.5586 180.008C50.3666 179.672 50.2706 179.293 50.2706 178.872V175.4H51.1906V178.864C51.1906 179.136 51.2466 179.373 51.3586 179.576C51.4759 179.773 51.6332 179.928 51.8306 180.04C52.0279 180.147 52.2492 180.2 52.4946 180.2C52.7452 180.2 52.9666 180.147 53.1586 180.04C53.3506 179.928 53.5026 179.773 53.6146 179.576C53.7266 179.373 53.7826 179.139 53.7826 178.872V175.4H54.7026V178.88C54.7026 179.301 54.6066 179.677 54.4146 180.008C54.2226 180.339 53.9612 180.6 53.6306 180.792C53.2999 180.984 52.9212 181.08 52.4946 181.08ZM58.386 181.08C58.002 181.08 57.6393 181.005 57.298 180.856C56.9567 180.707 56.658 180.501 56.402 180.24C56.146 179.973 55.9433 179.667 55.794 179.32C55.65 178.968 55.578 178.592 55.578 178.192C55.578 177.792 55.65 177.419 55.794 177.072C55.9433 176.725 56.146 176.421 56.402 176.16C56.6633 175.893 56.9673 175.688 57.314 175.544C57.666 175.395 58.0447 175.32 58.45 175.32C58.8927 175.32 59.3033 175.405 59.682 175.576C60.0607 175.747 60.378 175.989 60.634 176.304L60.01 176.928C59.8447 176.693 59.6233 176.515 59.346 176.392C59.0687 176.264 58.77 176.2 58.45 176.2C58.066 176.2 57.7273 176.285 57.434 176.456C57.146 176.621 56.922 176.853 56.762 177.152C56.602 177.451 56.522 177.797 56.522 178.192C56.522 178.587 56.602 178.936 56.762 179.24C56.9273 179.539 57.1487 179.773 57.426 179.944C57.7033 180.115 58.018 180.2 58.37 180.2C58.7433 180.2 59.0633 180.133 59.33 180C59.602 179.861 59.81 179.659 59.954 179.392C60.098 179.12 60.17 178.787 60.17 178.392L60.746 178.808H58.354V177.968H61.122V178.096C61.122 178.763 61.002 179.317 60.762 179.76C60.5273 180.203 60.2047 180.533 59.794 180.752C59.3833 180.971 58.914 181.08 58.386 181.08ZM64.1977 181.08C63.7764 181.08 63.3977 180.984 63.0617 180.792C62.7257 180.6 62.459 180.339 62.2617 180.008C62.0697 179.672 61.9737 179.293 61.9737 178.872V175.4H62.8937V178.864C62.8937 179.136 62.9497 179.373 63.0617 179.576C63.179 179.773 63.3364 179.928 63.5337 180.04C63.731 180.147 63.9524 180.2 64.1977 180.2C64.4484 180.2 64.6697 180.147 64.8617 180.04C65.0537 179.928 65.2057 179.773 65.3177 179.576C65.4297 179.373 65.4857 179.139 65.4857 178.872V175.4H66.4057V178.88C66.4057 179.301 66.3097 179.677 66.1177 180.008C65.9257 180.339 65.6644 180.6 65.3337 180.792C65.003 180.984 64.6244 181.08 64.1977 181.08ZM67.5611 181V175.4H68.4811V181H67.5611ZM68.1931 181V180.16H71.3291V181H68.1931ZM68.1931 178.544V177.736H71.0571V178.544H68.1931ZM68.1931 176.24V175.4H71.2891V176.24H68.1931ZM68.4491 174.864L68.0491 174.464L69.1371 173.224H69.8011L70.8891 174.464L70.4891 174.864L69.1771 173.8L69.7691 173.808L68.4491 174.864ZM73.6993 181.08C73.2566 181.08 72.8806 181 72.5713 180.84C72.2619 180.68 71.9846 180.445 71.7393 180.136L72.3633 179.512C72.5179 179.736 72.7019 179.912 72.9153 180.04C73.1286 180.163 73.4006 180.224 73.7313 180.224C74.0406 180.224 74.2859 180.16 74.4673 180.032C74.6539 179.904 74.7473 179.728 74.7473 179.504C74.7473 179.317 74.6993 179.165 74.6033 179.048C74.5073 178.931 74.3793 178.835 74.2193 178.76C74.0646 178.68 73.8913 178.611 73.6993 178.552C73.5126 178.488 73.3233 178.419 73.1313 178.344C72.9446 178.264 72.7713 178.165 72.6113 178.048C72.4566 177.931 72.3313 177.779 72.2353 177.592C72.1393 177.405 72.0913 177.168 72.0913 176.88C72.0913 176.549 72.1713 176.269 72.3313 176.04C72.4966 175.805 72.7179 175.627 72.9953 175.504C73.2726 175.381 73.5819 175.32 73.9233 175.32C74.2913 175.32 74.6193 175.392 74.9073 175.536C75.2006 175.68 75.4379 175.864 75.6193 176.088L74.9953 176.712C74.8353 176.531 74.6673 176.397 74.4913 176.312C74.3206 176.221 74.1233 176.176 73.8993 176.176C73.6219 176.176 73.4033 176.232 73.2433 176.344C73.0886 176.456 73.0113 176.613 73.0113 176.816C73.0113 176.987 73.0593 177.125 73.1553 177.232C73.2513 177.333 73.3766 177.421 73.5312 177.496C73.6913 177.565 73.8646 177.632 74.0513 177.696C74.2433 177.76 74.4326 177.832 74.6193 177.912C74.8113 177.992 74.9846 178.096 75.1393 178.224C75.2993 178.347 75.4273 178.507 75.5233 178.704C75.6193 178.901 75.6673 179.149 75.6673 179.448C75.6673 179.949 75.4886 180.347 75.1313 180.64C74.7793 180.933 74.3019 181.08 73.6993 181.08Z" fill="#5B93FF"/>
<rect x="29" y="237" width="266" height="21" rx="8" fill="#88B6FF"/>
<path d="M149.209 250L147.27 245.079H148.299L149.797 249.062H149.398L150.91 245.079H151.925L149.965 250H149.209ZM152.57 250V245.079H153.522V250H152.57ZM153.27 250V249.16H155.993V250H153.27ZM153.27 247.893V247.081H155.748V247.893H153.27ZM153.27 245.919V245.079H155.958V245.919H153.27ZM157.481 247.942V247.2H158.622C158.855 247.2 159.035 247.142 159.161 247.025C159.292 246.904 159.357 246.738 159.357 246.528C159.357 246.337 159.292 246.178 159.161 246.052C159.035 245.921 158.855 245.856 158.622 245.856H157.481V245.079H158.706C159.023 245.079 159.301 245.142 159.539 245.268C159.782 245.389 159.968 245.557 160.099 245.772C160.234 245.987 160.302 246.234 160.302 246.514C160.302 246.803 160.234 247.055 160.099 247.27C159.968 247.48 159.782 247.646 159.539 247.767C159.296 247.884 159.014 247.942 158.692 247.942H157.481ZM156.781 250V245.079H157.733V250H156.781ZM159.469 250L157.845 247.872L158.72 247.599L160.624 250H159.469ZM162.626 250V245.079H163.298L165.293 248.271H164.908L166.896 245.079H167.568V250H166.623V246.71L166.805 246.766L165.419 248.992H164.775L163.389 246.766L163.578 246.71V250H162.626ZM168.209 250L170.19 245.079H170.967L172.941 250H171.926L170.4 245.961H170.75L169.203 250H168.209ZM169.259 249.083V248.285H171.905V249.083H169.259ZM173.522 250V245.079H174.474V250H173.522ZM176.816 250.07C176.42 250.07 176.079 250.002 175.794 249.867C175.514 249.732 175.26 249.529 175.031 249.258L175.661 248.628C175.806 248.819 175.974 248.969 176.165 249.076C176.357 249.179 176.59 249.23 176.865 249.23C177.113 249.23 177.309 249.181 177.453 249.083C177.603 248.985 177.677 248.85 177.677 248.677C177.677 248.528 177.635 248.406 177.551 248.313C177.467 248.22 177.355 248.14 177.215 248.075C177.08 248.01 176.928 247.951 176.76 247.9C176.597 247.844 176.431 247.781 176.263 247.711C176.1 247.641 175.948 247.555 175.808 247.452C175.673 247.345 175.563 247.209 175.479 247.046C175.395 246.878 175.353 246.668 175.353 246.416C175.353 246.117 175.426 245.863 175.57 245.653C175.715 245.443 175.913 245.282 176.165 245.17C176.417 245.058 176.702 245.002 177.019 245.002C177.355 245.002 177.659 245.065 177.929 245.191C178.2 245.317 178.422 245.48 178.594 245.681L177.964 246.311C177.82 246.152 177.67 246.036 177.516 245.961C177.367 245.886 177.197 245.849 177.005 245.849C176.786 245.849 176.613 245.891 176.487 245.975C176.361 246.059 176.298 246.18 176.298 246.339C176.298 246.474 176.34 246.584 176.424 246.668C176.508 246.752 176.618 246.824 176.753 246.885C176.893 246.946 177.045 247.004 177.208 247.06C177.376 247.116 177.542 247.179 177.705 247.249C177.873 247.319 178.025 247.41 178.16 247.522C178.3 247.634 178.412 247.779 178.496 247.956C178.58 248.129 178.622 248.343 178.622 248.6C178.622 249.057 178.461 249.417 178.139 249.678C177.817 249.939 177.376 250.07 176.816 250.07Z" fill="white"/>
<rect x="31" y="211" width="266" height="5" rx="2.5" fill="#EFEFEF"/>
<rect x="31" y="219" width="116" height="5" rx="2.5" fill="#EFEFEF"/>
<path d="M33.0811 204.06C32.7491 204.06 32.4671 204 32.2351 203.88C32.0031 203.76 31.7951 203.584 31.6111 203.352L32.0791 202.884C32.1951 203.052 32.3331 203.184 32.4931 203.28C32.6531 203.372 32.8571 203.418 33.1051 203.418C33.3371 203.418 33.5211 203.37 33.6571 203.274C33.7971 203.178 33.8671 203.046 33.8671 202.878C33.8671 202.738 33.8311 202.624 33.7591 202.536C33.6871 202.448 33.5911 202.376 33.4711 202.32C33.3551 202.26 33.2251 202.208 33.0811 202.164C32.9411 202.116 32.7991 202.064 32.6551 202.008C32.5151 201.948 32.3851 201.874 32.2651 201.786C32.1491 201.698 32.0551 201.584 31.9831 201.444C31.9111 201.304 31.8751 201.126 31.8751 200.91C31.8751 200.662 31.9351 200.452 32.0551 200.28C32.1791 200.104 32.3451 199.97 32.5531 199.878C32.7611 199.786 32.9931 199.74 33.2491 199.74C33.5251 199.74 33.7711 199.794 33.9871 199.902C34.2071 200.01 34.3851 200.148 34.5211 200.316L34.0531 200.784C33.9331 200.648 33.8071 200.548 33.6751 200.484C33.5471 200.416 33.3991 200.382 33.2311 200.382C33.0231 200.382 32.8591 200.424 32.7391 200.508C32.6231 200.592 32.5651 200.71 32.5651 200.862C32.5651 200.99 32.6011 201.094 32.6731 201.174C32.7451 201.25 32.8391 201.316 32.9551 201.372C33.0751 201.424 33.2051 201.474 33.3451 201.522C33.4891 201.57 33.6311 201.624 33.7711 201.684C33.9151 201.744 34.0451 201.822 34.1611 201.918C34.2811 202.01 34.3771 202.13 34.4491 202.278C34.5211 202.426 34.5571 202.612 34.5571 202.836C34.5571 203.212 34.4231 203.51 34.1551 203.73C33.8911 203.95 33.5331 204.06 33.0811 204.06ZM37.2122 204.06C36.9122 204.06 36.6322 204.004 36.3722 203.892C36.1122 203.78 35.8842 203.626 35.6882 203.43C35.4922 203.23 35.3382 203 35.2262 202.74C35.1182 202.476 35.0642 202.194 35.0642 201.894C35.0642 201.594 35.1182 201.314 35.2262 201.054C35.3382 200.794 35.4902 200.566 35.6822 200.37C35.8782 200.17 36.1042 200.016 36.3602 199.908C36.6202 199.796 36.9002 199.74 37.2002 199.74C37.5002 199.74 37.7782 199.796 38.0342 199.908C38.2942 200.016 38.5222 200.17 38.7182 200.37C38.9142 200.566 39.0662 200.796 39.1742 201.06C39.2862 201.32 39.3422 201.6 39.3422 201.9C39.3422 202.2 39.2862 202.482 39.1742 202.746C39.0662 203.006 38.9142 203.234 38.7182 203.43C38.5262 203.626 38.3002 203.78 38.0402 203.892C37.7842 204.004 37.5082 204.06 37.2122 204.06ZM37.2002 203.4C37.4842 203.4 37.7322 203.336 37.9442 203.208C38.1602 203.08 38.3282 202.904 38.4482 202.68C38.5722 202.452 38.6342 202.19 38.6342 201.894C38.6342 201.674 38.5982 201.474 38.5262 201.294C38.4582 201.11 38.3602 200.952 38.2322 200.82C38.1042 200.684 37.9522 200.58 37.7762 200.508C37.6042 200.436 37.4122 200.4 37.2002 200.4C36.9202 200.4 36.6722 200.464 36.4562 200.592C36.2442 200.716 36.0762 200.89 35.9522 201.114C35.8322 201.338 35.7722 201.598 35.7722 201.894C35.7722 202.114 35.8062 202.318 35.8742 202.506C35.9462 202.69 36.0442 202.848 36.1682 202.98C36.2962 203.112 36.4482 203.216 36.6242 203.292C36.8002 203.364 36.9922 203.4 37.2002 203.4ZM40.5179 204V203.4H41.7239C41.9359 203.4 42.0999 203.334 42.2159 203.202C42.3319 203.07 42.3899 202.918 42.3899 202.746C42.3899 202.63 42.3639 202.522 42.3119 202.422C42.2599 202.322 42.1839 202.242 42.0839 202.182C41.9839 202.122 41.8639 202.092 41.7239 202.092H40.5179V201.492H41.6219C41.8019 201.492 41.9459 201.446 42.0539 201.354C42.1619 201.262 42.2159 201.126 42.2159 200.946C42.2159 200.766 42.1619 200.63 42.0539 200.538C41.9459 200.446 41.8019 200.4 41.6219 200.4H40.5179V199.8H41.6399C41.9239 199.8 42.1599 199.852 42.3479 199.956C42.5359 200.06 42.6759 200.194 42.7679 200.358C42.8599 200.522 42.9059 200.698 42.9059 200.886C42.9059 201.106 42.8439 201.3 42.7199 201.468C42.5999 201.636 42.4219 201.772 42.1859 201.876L42.2399 201.66C42.5039 201.768 42.7099 201.92 42.8579 202.116C43.0059 202.312 43.0799 202.542 43.0799 202.806C43.0799 203.022 43.0259 203.22 42.9179 203.4C42.8139 203.58 42.6579 203.726 42.4499 203.838C42.2459 203.946 41.9939 204 41.6939 204H40.5179ZM40.0439 204V199.8H40.7339V204H40.0439ZM44.2503 202.218V201.648H45.3123C45.5243 201.648 45.6883 201.594 45.8043 201.486C45.9243 201.374 45.9843 201.22 45.9843 201.024C45.9843 200.848 45.9263 200.7 45.8103 200.58C45.6943 200.46 45.5303 200.4 45.3183 200.4H44.2503V199.8H45.3483C45.6123 199.8 45.8443 199.854 46.0443 199.962C46.2443 200.066 46.3983 200.21 46.5063 200.394C46.6183 200.574 46.6743 200.78 46.6743 201.012C46.6743 201.256 46.6183 201.468 46.5063 201.648C46.3983 201.828 46.2443 201.968 46.0443 202.068C45.8443 202.168 45.6123 202.218 45.3483 202.218H44.2503ZM43.7763 204V199.8H44.4663V204H43.7763ZM46.0803 204L44.6103 202.176L45.2523 201.942L46.9503 204H46.0803ZM47.4619 204V199.8H48.1519V204H47.4619ZM47.9359 204V203.37H50.2879V204H47.9359ZM47.9359 202.158V201.552H50.0839V202.158H47.9359ZM47.9359 200.43V199.8H50.2579V200.43H47.9359Z" fill="black"/>
</g>
<defs>
<clipPath id="clip0_4_50">
<rect width="325" height="333" rx="8" fill="white"/>
</clipPath>
</defs>
</svg>
