<svg width="325" height="333" viewBox="0 0 325 333" fill="none" xmlns="http://www.w3.org/2000/svg">
<rect width="325" height="333" rx="8" fill="#FBFBFB"/>
<mask id="path-2-inside-1_4_48" fill="white">
<path d="M0 0H325V31H0V0Z"/>
</mask>
<path d="M325 30.5H0V31.5H325V30.5Z" fill="black" fill-opacity="0.1" mask="url(#path-2-inside-1_4_48)"/>
<circle cx="20" cy="16" r="5" fill="#88B6FF"/>
<circle cx="34" cy="16" r="5" fill="#CDE0FF"/>
<circle cx="48" cy="16" r="5" fill="#3684FF"/>
<rect x="25" y="49" width="276" height="75" rx="8" fill="white"/>
<rect x="25.25" y="49.25" width="275.5" height="74.5" rx="7.75" stroke="black" stroke-opacity="0.1" stroke-width="0.5"/>
<rect x="39" y="62" width="1" height="10" fill="#5B93FF"/>
<path d="M44.336 68.592L45.884 66.948C46.012 66.812 46.116 66.69 46.196 66.582C46.276 66.474 46.334 66.372 46.37 66.276C46.406 66.18 46.424 66.082 46.424 65.982C46.424 65.794 46.362 65.648 46.238 65.544C46.118 65.436 45.964 65.382 45.776 65.382C45.576 65.382 45.4 65.432 45.248 65.532C45.096 65.632 44.96 65.788 44.84 66L44.36 65.604C44.524 65.32 44.726 65.106 44.966 64.962C45.206 64.814 45.484 64.74 45.8 64.74C46.06 64.74 46.288 64.792 46.484 64.896C46.68 65 46.832 65.146 46.94 65.334C47.048 65.518 47.102 65.732 47.102 65.976C47.102 66.152 47.08 66.31 47.036 66.45C46.996 66.586 46.926 66.724 46.826 66.864C46.726 67 46.588 67.16 46.412 67.344L45.224 68.574L44.336 68.592ZM44.336 69V68.592L44.93 68.382H47.186V69H44.336ZM49.3881 69.06C49.0721 69.06 48.7821 68.972 48.5181 68.796C48.2581 68.616 48.0501 68.364 47.8941 68.04C47.7381 67.716 47.6601 67.334 47.6601 66.894C47.6601 66.454 47.7361 66.074 47.8881 65.754C48.0441 65.43 48.2521 65.18 48.5121 65.004C48.7721 64.828 49.0601 64.74 49.3761 64.74C49.6961 64.74 49.9861 64.828 50.2461 65.004C50.5061 65.18 50.7121 65.43 50.8641 65.754C51.0201 66.074 51.0981 66.456 51.0981 66.9C51.0981 67.34 51.0201 67.722 50.8641 68.046C50.7121 68.37 50.5061 68.62 50.2461 68.796C49.9901 68.972 49.7041 69.06 49.3881 69.06ZM49.3761 68.412C49.5841 68.412 49.7641 68.356 49.9161 68.244C50.0681 68.132 50.1861 67.964 50.2701 67.74C50.3581 67.516 50.4021 67.234 50.4021 66.894C50.4021 66.558 50.3581 66.278 50.2701 66.054C50.1861 65.83 50.0661 65.664 49.9101 65.556C49.7581 65.444 49.5801 65.388 49.3761 65.388C49.1721 65.388 48.9921 65.444 48.8361 65.556C48.6841 65.664 48.5661 65.83 48.4821 66.054C48.3981 66.274 48.3561 66.554 48.3561 66.894C48.3561 67.234 48.3981 67.516 48.4821 67.74C48.5661 67.964 48.6841 68.132 48.8361 68.244C48.9921 68.356 49.1721 68.412 49.3761 68.412ZM51.5137 68.592L53.0617 66.948C53.1897 66.812 53.2937 66.69 53.3737 66.582C53.4537 66.474 53.5117 66.372 53.5477 66.276C53.5837 66.18 53.6017 66.082 53.6017 65.982C53.6017 65.794 53.5397 65.648 53.4157 65.544C53.2957 65.436 53.1417 65.382 52.9537 65.382C52.7537 65.382 52.5777 65.432 52.4257 65.532C52.2737 65.632 52.1377 65.788 52.0177 66L51.5377 65.604C51.7017 65.32 51.9037 65.106 52.1437 64.962C52.3837 64.814 52.6617 64.74 52.9777 64.74C53.2377 64.74 53.4657 64.792 53.6617 64.896C53.8577 65 54.0097 65.146 54.1177 65.334C54.2257 65.518 54.2797 65.732 54.2797 65.976C54.2797 66.152 54.2577 66.31 54.2137 66.45C54.1737 66.586 54.1037 66.724 54.0037 66.864C53.9037 67 53.7657 67.16 53.5897 67.344L52.4017 68.574L51.5137 68.592ZM51.5137 69V68.592L52.1077 68.382H54.3637V69H51.5137ZM56.0678 69.06C55.7878 69.06 55.5338 69.01 55.3058 68.91C55.0818 68.806 54.8918 68.656 54.7358 68.46L55.2038 67.992C55.2878 68.12 55.4058 68.222 55.5578 68.298C55.7098 68.374 55.8758 68.412 56.0558 68.412C56.2278 68.412 56.3758 68.38 56.4998 68.316C56.6238 68.252 56.7198 68.162 56.7878 68.046C56.8598 67.93 56.8958 67.796 56.8958 67.644C56.8958 67.484 56.8598 67.348 56.7878 67.236C56.7198 67.124 56.6198 67.038 56.4878 66.978C56.3598 66.914 56.2038 66.882 56.0198 66.882C55.9478 66.882 55.8738 66.888 55.7978 66.9C55.7218 66.908 55.6538 66.922 55.5938 66.942L55.8998 66.546C55.9838 66.514 56.0718 66.488 56.1638 66.468C56.2598 66.444 56.3518 66.432 56.4398 66.432C56.6558 66.432 56.8498 66.484 57.0218 66.588C57.1978 66.692 57.3358 66.838 57.4358 67.026C57.5398 67.21 57.5918 67.428 57.5918 67.68C57.5918 67.952 57.5278 68.192 57.3998 68.4C57.2718 68.608 57.0938 68.77 56.8658 68.886C56.6378 69.002 56.3718 69.06 56.0678 69.06ZM55.5938 66.942V66.534L56.7158 65.226L57.5438 65.208L56.3738 66.552L55.5938 66.942ZM54.9458 65.418V64.8H57.5438V65.208L56.9498 65.418H54.9458Z" fill="black"/>
<path d="M39.9244 80.06C39.6324 80.06 39.3724 80.01 39.1444 79.91C38.9164 79.806 38.7244 79.656 38.5684 79.46L39.0364 78.992C39.1204 79.12 39.2384 79.222 39.3904 79.298C39.5464 79.374 39.7204 79.412 39.9124 79.412C40.0884 79.412 40.2424 79.38 40.3744 79.316C40.5064 79.252 40.6104 79.16 40.6864 79.04C40.7624 78.92 40.8004 78.778 40.8004 78.614C40.8004 78.442 40.7624 78.3 40.6864 78.188C40.6144 78.072 40.5164 77.986 40.3924 77.93C40.2724 77.87 40.1424 77.84 40.0024 77.84C39.8424 77.84 39.6984 77.858 39.5704 77.894C39.4464 77.93 39.3244 77.994 39.2044 78.086L39.2224 77.654C39.2864 77.57 39.3604 77.502 39.4444 77.45C39.5284 77.394 39.6264 77.352 39.7384 77.324C39.8504 77.296 39.9824 77.282 40.1344 77.282C40.4304 77.282 40.6784 77.344 40.8784 77.468C41.0824 77.592 41.2364 77.758 41.3404 77.966C41.4444 78.17 41.4964 78.398 41.4964 78.65C41.4964 78.922 41.4284 79.164 41.2924 79.376C41.1604 79.588 40.9764 79.756 40.7404 79.88C40.5044 80 40.2324 80.06 39.9244 80.06ZM39.2044 78.086L38.8264 77.708L39.0124 75.8H39.6424L39.4264 77.786L39.2044 78.086ZM39.1324 76.418L39.0124 75.8H41.2624V76.418H39.1324ZM43.6859 80.06C43.3699 80.06 43.0799 79.972 42.8159 79.796C42.5559 79.616 42.3479 79.364 42.1919 79.04C42.0359 78.716 41.9579 78.334 41.9579 77.894C41.9579 77.454 42.0339 77.074 42.1859 76.754C42.3419 76.43 42.5499 76.18 42.8099 76.004C43.0699 75.828 43.3579 75.74 43.6739 75.74C43.9939 75.74 44.2839 75.828 44.5439 76.004C44.8039 76.18 45.0099 76.43 45.1619 76.754C45.3179 77.074 45.3959 77.456 45.3959 77.9C45.3959 78.34 45.3179 78.722 45.1619 79.046C45.0099 79.37 44.8039 79.62 44.5439 79.796C44.2879 79.972 44.0019 80.06 43.6859 80.06ZM43.6739 79.412C43.8819 79.412 44.0619 79.356 44.2139 79.244C44.3659 79.132 44.4839 78.964 44.5679 78.74C44.6559 78.516 44.6999 78.234 44.6999 77.894C44.6999 77.558 44.6559 77.278 44.5679 77.054C44.4839 76.83 44.3639 76.664 44.2079 76.556C44.0559 76.444 43.8779 76.388 43.6739 76.388C43.4699 76.388 43.2899 76.444 43.1339 76.556C42.9819 76.664 42.8639 76.83 42.7799 77.054C42.6959 77.274 42.6539 77.554 42.6539 77.894C42.6539 78.234 42.6959 78.516 42.7799 78.74C42.8639 78.964 42.9819 79.132 43.1339 79.244C43.2899 79.356 43.4699 79.412 43.6739 79.412ZM48.4167 80.06C48.1567 80.06 47.9207 79.994 47.7087 79.862C47.5007 79.73 47.3347 79.552 47.2107 79.328C47.0907 79.1 47.0307 78.846 47.0307 78.566C47.0307 78.282 47.0907 78.028 47.2107 77.804C47.3347 77.576 47.5007 77.396 47.7087 77.264C47.9207 77.128 48.1567 77.06 48.4167 77.06C48.6367 77.06 48.8307 77.108 48.9987 77.204C49.1707 77.296 49.3067 77.424 49.4067 77.588C49.5067 77.752 49.5567 77.938 49.5567 78.146V78.974C49.5567 79.182 49.5067 79.368 49.4067 79.532C49.3107 79.696 49.1767 79.826 49.0047 79.922C48.8327 80.014 48.6367 80.06 48.4167 80.06ZM48.5247 79.436C48.7687 79.436 48.9647 79.354 49.1127 79.19C49.2647 79.026 49.3407 78.816 49.3407 78.56C49.3407 78.388 49.3067 78.236 49.2387 78.104C49.1707 77.972 49.0747 77.87 48.9507 77.798C48.8307 77.722 48.6887 77.684 48.5247 77.684C48.3647 77.684 48.2227 77.722 48.0987 77.798C47.9787 77.87 47.8827 77.972 47.8107 78.104C47.7427 78.236 47.7087 78.388 47.7087 78.56C47.7087 78.732 47.7427 78.884 47.8107 79.016C47.8827 79.148 47.9787 79.252 48.0987 79.328C48.2227 79.4 48.3647 79.436 48.5247 79.436ZM49.2987 81.2V79.292L49.4127 78.596L49.2987 77.894V77.12H49.9587V81.2H49.2987ZM51.8732 80.06C51.6292 80.06 51.4112 80.006 51.2192 79.898C51.0312 79.79 50.8832 79.642 50.7752 79.454C50.6712 79.262 50.6192 79.042 50.6192 78.794V77.12H51.2792V78.764C51.2792 78.904 51.3012 79.024 51.3452 79.124C51.3932 79.22 51.4612 79.294 51.5492 79.346C51.6412 79.398 51.7492 79.424 51.8732 79.424C52.0652 79.424 52.2112 79.368 52.3112 79.256C52.4152 79.14 52.4672 78.976 52.4672 78.764V77.12H53.1272V78.794C53.1272 79.046 53.0732 79.268 52.9652 79.46C52.8612 79.648 52.7152 79.796 52.5272 79.904C52.3392 80.008 52.1212 80.06 51.8732 80.06ZM55.1288 80.06C54.8408 80.06 54.5808 79.996 54.3488 79.868C54.1208 79.736 53.9388 79.556 53.8028 79.328C53.6708 79.1 53.6048 78.844 53.6048 78.56C53.6048 78.276 53.6708 78.022 53.8028 77.798C53.9348 77.57 54.1128 77.39 54.3368 77.258C54.5648 77.126 54.8168 77.06 55.0928 77.06C55.3608 77.06 55.5968 77.122 55.8008 77.246C56.0088 77.37 56.1708 77.54 56.2868 77.756C56.4068 77.972 56.4668 78.218 56.4668 78.494C56.4668 78.542 56.4628 78.592 56.4548 78.644C56.4508 78.692 56.4428 78.746 56.4308 78.806H54.0668V78.266H56.0888L55.8428 78.482C55.8348 78.306 55.8008 78.158 55.7408 78.038C55.6808 77.918 55.5948 77.826 55.4828 77.762C55.3748 77.698 55.2408 77.666 55.0808 77.666C54.9128 77.666 54.7668 77.702 54.6428 77.774C54.5188 77.846 54.4228 77.948 54.3548 78.08C54.2868 78.208 54.2528 78.362 54.2528 78.542C54.2528 78.722 54.2888 78.88 54.3608 79.016C54.4328 79.152 54.5348 79.258 54.6668 79.334C54.7988 79.406 54.9508 79.442 55.1228 79.442C55.2708 79.442 55.4068 79.416 55.5308 79.364C55.6588 79.312 55.7668 79.236 55.8548 79.136L56.2748 79.562C56.1348 79.726 55.9648 79.85 55.7648 79.934C55.5648 80.018 55.3528 80.06 55.1288 80.06ZM57.9379 80.06C57.7779 80.06 57.6239 80.04 57.4759 80C57.3279 79.956 57.1919 79.896 57.0679 79.82C56.9439 79.74 56.8359 79.644 56.7439 79.532L57.1639 79.112C57.2639 79.228 57.3779 79.316 57.5059 79.376C57.6379 79.432 57.7859 79.46 57.9499 79.46C58.0979 79.46 58.2099 79.438 58.2859 79.394C58.3619 79.35 58.3999 79.286 58.3999 79.202C58.3999 79.114 58.3639 79.046 58.2919 78.998C58.2199 78.95 58.1259 78.91 58.0099 78.878C57.8979 78.842 57.7779 78.806 57.6499 78.77C57.5259 78.734 57.4059 78.686 57.2899 78.626C57.1779 78.562 57.0859 78.476 57.0139 78.368C56.9419 78.26 56.9059 78.12 56.9059 77.948C56.9059 77.764 56.9479 77.606 57.0319 77.474C57.1199 77.342 57.2419 77.24 57.3979 77.168C57.5579 77.096 57.7479 77.06 57.9679 77.06C58.1999 77.06 58.4039 77.102 58.5799 77.186C58.7599 77.266 58.9099 77.388 59.0299 77.552L58.6099 77.972C58.5259 77.868 58.4299 77.79 58.3219 77.738C58.2139 77.686 58.0899 77.66 57.9499 77.66C57.8179 77.66 57.7159 77.68 57.6439 77.72C57.5719 77.76 57.5359 77.818 57.5359 77.894C57.5359 77.974 57.5719 78.036 57.6439 78.08C57.7159 78.124 57.8079 78.162 57.9199 78.194C58.0359 78.226 58.1559 78.262 58.2799 78.302C58.4079 78.338 58.5279 78.39 58.6399 78.458C58.7559 78.522 58.8499 78.61 58.9219 78.722C58.9939 78.83 59.0299 78.972 59.0299 79.148C59.0299 79.428 58.9319 79.65 58.7359 79.814C58.5399 79.978 58.2739 80.06 57.9379 80.06ZM60.012 80V75.92H60.672V80H60.012ZM59.322 77.72V77.12H61.362V77.72H59.322ZM63.0796 80.06C62.7996 80.06 62.5456 79.994 62.3176 79.862C62.0896 79.726 61.9076 79.544 61.7716 79.316C61.6396 79.088 61.5736 78.834 61.5736 78.554C61.5736 78.274 61.6396 78.022 61.7716 77.798C61.9076 77.574 62.0896 77.396 62.3176 77.264C62.5456 77.128 62.7996 77.06 63.0796 77.06C63.3636 77.06 63.6196 77.126 63.8476 77.258C64.0756 77.39 64.2556 77.57 64.3876 77.798C64.5236 78.022 64.5916 78.274 64.5916 78.554C64.5916 78.834 64.5236 79.088 64.3876 79.316C64.2556 79.544 64.0756 79.726 63.8476 79.862C63.6196 79.994 63.3636 80.06 63.0796 80.06ZM63.0796 79.424C63.2436 79.424 63.3876 79.388 63.5116 79.316C63.6396 79.24 63.7376 79.136 63.8056 79.004C63.8776 78.872 63.9136 78.722 63.9136 78.554C63.9136 78.386 63.8776 78.238 63.8056 78.11C63.7336 77.982 63.6356 77.882 63.5116 77.81C63.3876 77.734 63.2436 77.696 63.0796 77.696C62.9196 77.696 62.7756 77.734 62.6476 77.81C62.5236 77.882 62.4256 77.982 62.3536 78.11C62.2856 78.238 62.2516 78.386 62.2516 78.554C62.2516 78.722 62.2856 78.872 62.3536 79.004C62.4256 79.136 62.5236 79.24 62.6476 79.316C62.7756 79.388 62.9196 79.424 63.0796 79.424ZM63.5176 76.706C63.3856 76.706 63.2736 76.682 63.1816 76.634C63.0896 76.586 63.0036 76.54 62.9236 76.496C62.8476 76.448 62.7616 76.424 62.6656 76.424C62.5656 76.424 62.4856 76.442 62.4256 76.478C62.3656 76.514 62.3076 76.568 62.2516 76.64L61.8976 76.286C62.0136 76.154 62.1296 76.05 62.2456 75.974C62.3616 75.894 62.4976 75.854 62.6536 75.854C62.7856 75.854 62.8976 75.878 62.9896 75.926C63.0816 75.97 63.1676 76.016 63.2476 76.064C63.3276 76.112 63.4136 76.136 63.5056 76.136C63.6096 76.136 63.6916 76.118 63.7516 76.082C63.8116 76.046 63.8676 75.992 63.9196 75.92L64.2736 76.274C64.1576 76.406 64.0416 76.512 63.9256 76.592C63.8096 76.668 63.6736 76.706 63.5176 76.706ZM66.4784 80.06C66.1904 80.06 65.9304 79.996 65.6984 79.868C65.4704 79.736 65.2884 79.556 65.1524 79.328C65.0204 79.1 64.9544 78.844 64.9544 78.56C64.9544 78.276 65.0204 78.022 65.1524 77.798C65.2844 77.57 65.4624 77.39 65.6864 77.258C65.9144 77.126 66.1664 77.06 66.4424 77.06C66.7104 77.06 66.9464 77.122 67.1504 77.246C67.3584 77.37 67.5204 77.54 67.6364 77.756C67.7564 77.972 67.8164 78.218 67.8164 78.494C67.8164 78.542 67.8124 78.592 67.8044 78.644C67.8004 78.692 67.7924 78.746 67.7804 78.806H65.4164V78.266H67.4384L67.1924 78.482C67.1844 78.306 67.1504 78.158 67.0904 78.038C67.0304 77.918 66.9444 77.826 66.8324 77.762C66.7244 77.698 66.5904 77.666 66.4304 77.666C66.2624 77.666 66.1164 77.702 65.9924 77.774C65.8684 77.846 65.7724 77.948 65.7044 78.08C65.6364 78.208 65.6024 78.362 65.6024 78.542C65.6024 78.722 65.6384 78.88 65.7104 79.016C65.7824 79.152 65.8844 79.258 66.0164 79.334C66.1484 79.406 66.3004 79.442 66.4724 79.442C66.6204 79.442 66.7564 79.416 66.8804 79.364C67.0084 79.312 67.1164 79.236 67.2044 79.136L67.6244 79.562C67.4844 79.726 67.3144 79.85 67.1144 79.934C66.9144 80.018 66.7024 80.06 66.4784 80.06ZM69.2875 80.06C69.1275 80.06 68.9735 80.04 68.8255 80C68.6775 79.956 68.5415 79.896 68.4175 79.82C68.2935 79.74 68.1855 79.644 68.0935 79.532L68.5135 79.112C68.6135 79.228 68.7275 79.316 68.8555 79.376C68.9875 79.432 69.1355 79.46 69.2995 79.46C69.4475 79.46 69.5595 79.438 69.6355 79.394C69.7115 79.35 69.7495 79.286 69.7495 79.202C69.7495 79.114 69.7135 79.046 69.6415 78.998C69.5695 78.95 69.4755 78.91 69.3595 78.878C69.2475 78.842 69.1275 78.806 68.9995 78.77C68.8755 78.734 68.7555 78.686 68.6395 78.626C68.5275 78.562 68.4355 78.476 68.3635 78.368C68.2915 78.26 68.2555 78.12 68.2555 77.948C68.2555 77.764 68.2975 77.606 68.3815 77.474C68.4695 77.342 68.5915 77.24 68.7475 77.168C68.9075 77.096 69.0975 77.06 69.3175 77.06C69.5495 77.06 69.7535 77.102 69.9295 77.186C70.1095 77.266 70.2595 77.388 70.3795 77.552L69.9595 77.972C69.8755 77.868 69.7795 77.79 69.6715 77.738C69.5635 77.686 69.4395 77.66 69.2995 77.66C69.1675 77.66 69.0655 77.68 68.9935 77.72C68.9215 77.76 68.8855 77.818 68.8855 77.894C68.8855 77.974 68.9215 78.036 68.9935 78.08C69.0655 78.124 69.1575 78.162 69.2695 78.194C69.3855 78.226 69.5055 78.262 69.6295 78.302C69.7575 78.338 69.8775 78.39 69.9895 78.458C70.1055 78.522 70.1995 78.61 70.2715 78.722C70.3435 78.83 70.3795 78.972 70.3795 79.148C70.3795 79.428 70.2815 79.65 70.0855 79.814C69.8895 79.978 69.6235 80.06 69.2875 80.06Z" fill="black" fill-opacity="0.3"/>
<rect x="39" y="92" width="122" height="19" rx="4" fill="#5B93FF"/>
<rect x="166.35" y="92.35" width="121.3" height="18.3" rx="3.65" stroke="#5B93FF" stroke-width="0.7"/>
<path d="M88.2873 104L86.5893 99.8H87.3393L88.6653 103.202H88.4013L89.7393 99.8H90.4773L88.7673 104H88.2873ZM91.747 104.06C91.459 104.06 91.199 103.996 90.967 103.868C90.739 103.736 90.557 103.556 90.421 103.328C90.289 103.1 90.223 102.844 90.223 102.56C90.223 102.276 90.289 102.022 90.421 101.798C90.553 101.57 90.731 101.39 90.955 101.258C91.183 101.126 91.435 101.06 91.711 101.06C91.979 101.06 92.215 101.122 92.419 101.246C92.627 101.37 92.789 101.54 92.905 101.756C93.025 101.972 93.085 102.218 93.085 102.494C93.085 102.542 93.081 102.592 93.073 102.644C93.069 102.692 93.061 102.746 93.049 102.806H90.685V102.266H92.707L92.461 102.482C92.453 102.306 92.419 102.158 92.359 102.038C92.299 101.918 92.213 101.826 92.101 101.762C91.993 101.698 91.859 101.666 91.699 101.666C91.531 101.666 91.385 101.702 91.261 101.774C91.137 101.846 91.041 101.948 90.973 102.08C90.905 102.208 90.871 102.362 90.871 102.542C90.871 102.722 90.907 102.88 90.979 103.016C91.051 103.152 91.153 103.258 91.285 103.334C91.417 103.406 91.569 103.442 91.741 103.442C91.889 103.442 92.025 103.416 92.149 103.364C92.277 103.312 92.385 103.236 92.473 103.136L92.893 103.562C92.753 103.726 92.583 103.85 92.383 103.934C92.183 104.018 91.971 104.06 91.747 104.06ZM93.614 104V101.12H94.274V104H93.614ZM94.274 102.398L94.046 102.284C94.046 101.92 94.126 101.626 94.286 101.402C94.45 101.174 94.696 101.06 95.024 101.06C95.168 101.06 95.298 101.086 95.414 101.138C95.53 101.19 95.638 101.274 95.738 101.39L95.306 101.834C95.254 101.778 95.196 101.738 95.132 101.714C95.068 101.69 94.994 101.678 94.91 101.678C94.726 101.678 94.574 101.736 94.454 101.852C94.334 101.968 94.274 102.15 94.274 102.398ZM98.906 104.06C98.686 104.06 98.49 104.014 98.318 103.922C98.146 103.826 98.01 103.696 97.91 103.532C97.814 103.368 97.766 103.182 97.766 102.974V102.146C97.766 101.938 97.816 101.752 97.916 101.588C98.016 101.424 98.152 101.296 98.324 101.204C98.496 101.108 98.69 101.06 98.906 101.06C99.166 101.06 99.4 101.128 99.608 101.264C99.82 101.396 99.986 101.576 100.106 101.804C100.23 102.028 100.292 102.282 100.292 102.566C100.292 102.846 100.23 103.1 100.106 103.328C99.986 103.552 99.82 103.73 99.608 103.862C99.4 103.994 99.166 104.06 98.906 104.06ZM98.798 103.436C98.958 103.436 99.098 103.4 99.218 103.328C99.342 103.252 99.438 103.148 99.506 103.016C99.578 102.884 99.614 102.732 99.614 102.56C99.614 102.388 99.578 102.236 99.506 102.104C99.438 101.972 99.342 101.87 99.218 101.798C99.098 101.722 98.958 101.684 98.798 101.684C98.638 101.684 98.496 101.722 98.372 101.798C98.248 101.87 98.152 101.972 98.084 102.104C98.016 102.236 97.982 102.388 97.982 102.56C97.982 102.732 98.016 102.884 98.084 103.016C98.152 103.148 98.248 103.252 98.372 103.328C98.496 103.4 98.638 103.436 98.798 103.436ZM97.364 105.2V101.12H98.024V101.894L97.91 102.596L98.024 103.292V105.2H97.364ZM100.845 104V101.12H101.505V104H100.845ZM101.505 102.398L101.277 102.284C101.277 101.92 101.357 101.626 101.517 101.402C101.681 101.174 101.927 101.06 102.255 101.06C102.399 101.06 102.529 101.086 102.645 101.138C102.761 101.19 102.869 101.274 102.969 101.39L102.537 101.834C102.485 101.778 102.427 101.738 102.363 101.714C102.299 101.69 102.225 101.678 102.141 101.678C101.957 101.678 101.805 101.736 101.685 101.852C101.565 101.968 101.505 102.15 101.505 102.398ZM104.52 104.06C104.24 104.06 103.986 103.994 103.758 103.862C103.53 103.726 103.348 103.544 103.212 103.316C103.08 103.088 103.014 102.834 103.014 102.554C103.014 102.274 103.08 102.022 103.212 101.798C103.348 101.574 103.53 101.396 103.758 101.264C103.986 101.128 104.24 101.06 104.52 101.06C104.804 101.06 105.06 101.126 105.288 101.258C105.516 101.39 105.696 101.57 105.828 101.798C105.964 102.022 106.032 102.274 106.032 102.554C106.032 102.834 105.964 103.088 105.828 103.316C105.696 103.544 105.516 103.726 105.288 103.862C105.06 103.994 104.804 104.06 104.52 104.06ZM104.52 103.424C104.684 103.424 104.828 103.388 104.952 103.316C105.08 103.24 105.178 103.136 105.246 103.004C105.318 102.872 105.354 102.722 105.354 102.554C105.354 102.386 105.318 102.238 105.246 102.11C105.174 101.982 105.076 101.882 104.952 101.81C104.828 101.734 104.684 101.696 104.52 101.696C104.36 101.696 104.216 101.734 104.088 101.81C103.964 101.882 103.866 101.982 103.794 102.11C103.726 102.238 103.692 102.386 103.692 102.554C103.692 102.722 103.726 102.872 103.794 103.004C103.866 103.136 103.964 103.24 104.088 103.316C104.216 103.388 104.36 103.424 104.52 103.424ZM107.453 104L106.139 101.12H106.871L107.873 103.466H107.441L108.449 101.12H109.151L107.837 104H107.453ZM110.646 104.06C110.386 104.06 110.15 103.994 109.938 103.862C109.73 103.73 109.564 103.552 109.44 103.328C109.32 103.1 109.26 102.846 109.26 102.566C109.26 102.282 109.32 102.028 109.44 101.804C109.564 101.576 109.73 101.396 109.938 101.264C110.15 101.128 110.386 101.06 110.646 101.06C110.866 101.06 111.06 101.108 111.228 101.204C111.4 101.296 111.536 101.424 111.636 101.588C111.736 101.752 111.786 101.938 111.786 102.146V102.974C111.786 103.182 111.736 103.368 111.636 103.532C111.54 103.696 111.406 103.826 111.234 103.922C111.062 104.014 110.866 104.06 110.646 104.06ZM110.754 103.436C110.998 103.436 111.194 103.354 111.342 103.19C111.494 103.026 111.57 102.816 111.57 102.56C111.57 102.388 111.536 102.236 111.468 102.104C111.4 101.972 111.304 101.87 111.18 101.798C111.06 101.722 110.918 101.684 110.754 101.684C110.594 101.684 110.452 101.722 110.328 101.798C110.208 101.87 110.112 101.972 110.04 102.104C109.972 102.236 109.938 102.388 109.938 102.56C109.938 102.732 109.972 102.884 110.04 103.016C110.112 103.148 110.208 103.252 110.328 103.328C110.452 103.4 110.594 103.436 110.754 103.436ZM111.528 104V103.226L111.642 102.524L111.528 101.828V101.12H112.188V104H111.528Z" fill="white"/>
<path d="M211.911 104L210.213 99.8H210.963L212.289 103.202H212.025L213.363 99.8H214.101L212.391 104H211.911ZM215.371 104.06C215.083 104.06 214.823 103.996 214.591 103.868C214.363 103.736 214.181 103.556 214.045 103.328C213.913 103.1 213.847 102.844 213.847 102.56C213.847 102.276 213.913 102.022 214.045 101.798C214.177 101.57 214.355 101.39 214.579 101.258C214.807 101.126 215.059 101.06 215.335 101.06C215.603 101.06 215.839 101.122 216.043 101.246C216.251 101.37 216.413 101.54 216.529 101.756C216.649 101.972 216.709 102.218 216.709 102.494C216.709 102.542 216.705 102.592 216.697 102.644C216.693 102.692 216.685 102.746 216.673 102.806H214.309V102.266H216.331L216.085 102.482C216.077 102.306 216.043 102.158 215.983 102.038C215.923 101.918 215.837 101.826 215.725 101.762C215.617 101.698 215.483 101.666 215.323 101.666C215.155 101.666 215.009 101.702 214.885 101.774C214.761 101.846 214.665 101.948 214.597 102.08C214.529 102.208 214.495 102.362 214.495 102.542C214.495 102.722 214.531 102.88 214.603 103.016C214.675 103.152 214.777 103.258 214.909 103.334C215.041 103.406 215.193 103.442 215.365 103.442C215.513 103.442 215.649 103.416 215.773 103.364C215.901 103.312 216.009 103.236 216.097 103.136L216.517 103.562C216.377 103.726 216.207 103.85 216.007 103.934C215.807 104.018 215.595 104.06 215.371 104.06ZM217.238 104V101.12H217.898V104H217.238ZM217.898 102.398L217.67 102.284C217.67 101.92 217.75 101.626 217.91 101.402C218.074 101.174 218.32 101.06 218.648 101.06C218.792 101.06 218.922 101.086 219.038 101.138C219.154 101.19 219.262 101.274 219.362 101.39L218.93 101.834C218.878 101.778 218.82 101.738 218.756 101.714C218.692 101.69 218.618 101.678 218.534 101.678C218.35 101.678 218.198 101.736 218.078 101.852C217.958 101.968 217.898 102.15 217.898 102.398ZM222.188 105.26C221.884 105.26 221.618 105.204 221.39 105.092C221.162 104.984 220.978 104.83 220.838 104.63L221.27 104.198C221.386 104.342 221.518 104.45 221.666 104.522C221.814 104.594 221.992 104.63 222.2 104.63C222.46 104.63 222.666 104.562 222.818 104.426C222.97 104.294 223.046 104.112 223.046 103.88V103.172L223.16 102.536L223.046 101.894V101.12H223.706V103.88C223.706 104.156 223.642 104.396 223.514 104.6C223.386 104.808 223.208 104.97 222.98 105.086C222.752 105.202 222.488 105.26 222.188 105.26ZM222.158 103.94C221.902 103.94 221.67 103.878 221.462 103.754C221.258 103.626 221.096 103.452 220.976 103.232C220.86 103.012 220.802 102.766 220.802 102.494C220.802 102.222 220.86 101.978 220.976 101.762C221.096 101.546 221.258 101.376 221.462 101.252C221.67 101.124 221.902 101.06 222.158 101.06C222.386 101.06 222.586 101.106 222.758 101.198C222.93 101.29 223.064 101.418 223.16 101.582C223.256 101.742 223.304 101.93 223.304 102.146V102.854C223.304 103.066 223.254 103.254 223.154 103.418C223.058 103.582 222.924 103.71 222.752 103.802C222.58 103.894 222.382 103.94 222.158 103.94ZM222.29 103.316C222.45 103.316 222.59 103.282 222.71 103.214C222.83 103.146 222.922 103.052 222.986 102.932C223.054 102.808 223.088 102.664 223.088 102.5C223.088 102.336 223.054 102.194 222.986 102.074C222.922 101.95 222.83 101.854 222.71 101.786C222.59 101.718 222.45 101.684 222.29 101.684C222.13 101.684 221.988 101.718 221.864 101.786C221.744 101.854 221.65 101.95 221.582 102.074C221.514 102.194 221.48 102.336 221.48 102.5C221.48 102.66 221.514 102.802 221.582 102.926C221.65 103.05 221.744 103.146 221.864 103.214C221.988 103.282 222.13 103.316 222.29 103.316ZM225.645 104.06C225.385 104.06 225.149 103.994 224.937 103.862C224.729 103.73 224.563 103.552 224.439 103.328C224.319 103.1 224.259 102.846 224.259 102.566C224.259 102.282 224.319 102.028 224.439 101.804C224.563 101.576 224.729 101.396 224.937 101.264C225.149 101.128 225.385 101.06 225.645 101.06C225.865 101.06 226.059 101.108 226.227 101.204C226.399 101.296 226.535 101.424 226.635 101.588C226.735 101.752 226.785 101.938 226.785 102.146V102.974C226.785 103.182 226.735 103.368 226.635 103.532C226.539 103.696 226.405 103.826 226.233 103.922C226.061 104.014 225.865 104.06 225.645 104.06ZM225.753 103.436C225.997 103.436 226.193 103.354 226.341 103.19C226.493 103.026 226.569 102.816 226.569 102.56C226.569 102.388 226.535 102.236 226.467 102.104C226.399 101.972 226.303 101.87 226.179 101.798C226.059 101.722 225.917 101.684 225.753 101.684C225.593 101.684 225.451 101.722 225.327 101.798C225.207 101.87 225.111 101.972 225.039 102.104C224.971 102.236 224.937 102.388 224.937 102.56C224.937 102.732 224.971 102.884 225.039 103.016C225.111 103.148 225.207 103.252 225.327 103.328C225.451 103.4 225.593 103.436 225.753 103.436ZM226.527 104V103.226L226.641 102.524L226.527 101.828V101.12H227.187V104H226.527ZM229.462 104.06C229.242 104.06 229.046 104.014 228.874 103.922C228.702 103.826 228.566 103.696 228.466 103.532C228.37 103.368 228.322 103.182 228.322 102.974V102.146C228.322 101.938 228.372 101.752 228.472 101.588C228.572 101.424 228.708 101.296 228.88 101.204C229.052 101.108 229.246 101.06 229.462 101.06C229.722 101.06 229.956 101.128 230.164 101.264C230.376 101.396 230.542 101.576 230.662 101.804C230.786 102.028 230.848 102.282 230.848 102.566C230.848 102.846 230.786 103.1 230.662 103.328C230.542 103.552 230.376 103.73 230.164 103.862C229.956 103.994 229.722 104.06 229.462 104.06ZM229.354 103.436C229.514 103.436 229.654 103.4 229.774 103.328C229.898 103.252 229.994 103.148 230.062 103.016C230.134 102.884 230.17 102.732 230.17 102.56C230.17 102.388 230.134 102.236 230.062 102.104C229.994 101.972 229.898 101.87 229.774 101.798C229.654 101.722 229.514 101.684 229.354 101.684C229.194 101.684 229.052 101.722 228.928 101.798C228.804 101.87 228.708 101.972 228.64 102.104C228.572 102.236 228.538 102.388 228.538 102.56C228.538 102.732 228.572 102.884 228.64 103.016C228.708 103.148 228.804 103.252 228.928 103.328C229.052 103.4 229.194 103.436 229.354 103.436ZM227.92 104V99.68H228.58V101.828L228.466 102.524L228.58 103.226V104H227.92ZM232.606 104.06C232.346 104.06 232.11 103.994 231.898 103.862C231.69 103.73 231.524 103.552 231.4 103.328C231.28 103.1 231.22 102.846 231.22 102.566C231.22 102.282 231.28 102.028 231.4 101.804C231.524 101.576 231.69 101.396 231.898 101.264C232.11 101.128 232.346 101.06 232.606 101.06C232.826 101.06 233.02 101.108 233.188 101.204C233.36 101.296 233.496 101.424 233.596 101.588C233.696 101.752 233.746 101.938 233.746 102.146V102.974C233.746 103.182 233.696 103.368 233.596 103.532C233.5 103.696 233.366 103.826 233.194 103.922C233.022 104.014 232.826 104.06 232.606 104.06ZM232.714 103.436C232.958 103.436 233.154 103.354 233.302 103.19C233.454 103.026 233.53 102.816 233.53 102.56C233.53 102.388 233.496 102.236 233.428 102.104C233.36 101.972 233.264 101.87 233.14 101.798C233.02 101.722 232.878 101.684 232.714 101.684C232.554 101.684 232.412 101.722 232.288 101.798C232.168 101.87 232.072 101.972 232 102.104C231.932 102.236 231.898 102.388 231.898 102.56C231.898 102.732 231.932 102.884 232 103.016C232.072 103.148 232.168 103.252 232.288 103.328C232.412 103.4 232.554 103.436 232.714 103.436ZM233.488 104V103.226L233.602 102.524L233.488 101.828V101.12H234.148V104H233.488ZM234.881 104V101.12H235.541V104H234.881ZM235.541 102.398L235.313 102.284C235.313 101.92 235.393 101.626 235.553 101.402C235.717 101.174 235.963 101.06 236.291 101.06C236.435 101.06 236.565 101.086 236.681 101.138C236.797 101.19 236.905 101.274 237.005 101.39L236.573 101.834C236.521 101.778 236.463 101.738 236.399 101.714C236.335 101.69 236.261 101.678 236.177 101.678C235.993 101.678 235.841 101.736 235.721 101.852C235.601 101.968 235.541 102.15 235.541 102.398ZM237.33 104V101.12H237.99V104H237.33ZM237.66 100.592C237.548 100.592 237.454 100.554 237.378 100.478C237.306 100.402 237.27 100.308 237.27 100.196C237.27 100.084 237.306 99.99 237.378 99.914C237.454 99.838 237.548 99.8 237.66 99.8C237.776 99.8 237.87 99.838 237.942 99.914C238.014 99.99 238.05 100.084 238.05 100.196C238.05 100.308 238.014 100.402 237.942 100.478C237.87 100.554 237.776 100.592 237.66 100.592ZM239.168 104V99.92H239.828V104H239.168ZM238.478 101.72V101.12H240.518V101.72H238.478ZM242.236 104.06C241.956 104.06 241.702 103.994 241.474 103.862C241.246 103.726 241.064 103.544 240.928 103.316C240.796 103.088 240.73 102.834 240.73 102.554C240.73 102.274 240.796 102.022 240.928 101.798C241.064 101.574 241.246 101.396 241.474 101.264C241.702 101.128 241.956 101.06 242.236 101.06C242.52 101.06 242.776 101.126 243.004 101.258C243.232 101.39 243.412 101.57 243.544 101.798C243.68 102.022 243.748 102.274 243.748 102.554C243.748 102.834 243.68 103.088 243.544 103.316C243.412 103.544 243.232 103.726 243.004 103.862C242.776 103.994 242.52 104.06 242.236 104.06ZM242.236 103.424C242.4 103.424 242.544 103.388 242.668 103.316C242.796 103.24 242.894 103.136 242.962 103.004C243.034 102.872 243.07 102.722 243.07 102.554C243.07 102.386 243.034 102.238 242.962 102.11C242.89 101.982 242.792 101.882 242.668 101.81C242.544 101.734 242.4 101.696 242.236 101.696C242.076 101.696 241.932 101.734 241.804 101.81C241.68 101.882 241.582 101.982 241.51 102.11C241.442 102.238 241.408 102.386 241.408 102.554C241.408 102.722 241.442 102.872 241.51 103.004C241.582 103.136 241.68 103.24 241.804 103.316C241.932 103.388 242.076 103.424 242.236 103.424Z" fill="black"/>
<rect x="25" y="142" width="276" height="75" rx="8" fill="white"/>
<rect x="25.25" y="142.25" width="275.5" height="74.5" rx="7.75" stroke="black" stroke-opacity="0.1" stroke-width="0.5"/>
<rect x="39" y="155" width="1" height="10" fill="#5B93FF"/>
<path d="M44.333 161.592L45.881 159.948C46.009 159.812 46.113 159.69 46.193 159.582C46.273 159.474 46.331 159.372 46.367 159.276C46.403 159.18 46.421 159.082 46.421 158.982C46.421 158.794 46.359 158.648 46.235 158.544C46.115 158.436 45.961 158.382 45.773 158.382C45.573 158.382 45.397 158.432 45.245 158.532C45.093 158.632 44.957 158.788 44.837 159L44.357 158.604C44.521 158.32 44.723 158.106 44.963 157.962C45.203 157.814 45.481 157.74 45.797 157.74C46.057 157.74 46.285 157.792 46.481 157.896C46.677 158 46.829 158.146 46.937 158.334C47.045 158.518 47.099 158.732 47.099 158.976C47.099 159.152 47.077 159.31 47.033 159.45C46.993 159.586 46.923 159.724 46.823 159.864C46.723 160 46.585 160.16 46.409 160.344L45.221 161.574L44.333 161.592ZM44.333 162V161.592L44.927 161.382H47.183V162H44.333ZM49.3851 162.06C49.0691 162.06 48.7791 161.972 48.5151 161.796C48.2551 161.616 48.0471 161.364 47.8911 161.04C47.7351 160.716 47.6571 160.334 47.6571 159.894C47.6571 159.454 47.7331 159.074 47.8851 158.754C48.0411 158.43 48.2491 158.18 48.5091 158.004C48.7691 157.828 49.0571 157.74 49.3731 157.74C49.6931 157.74 49.9831 157.828 50.2431 158.004C50.5031 158.18 50.7091 158.43 50.8611 158.754C51.0171 159.074 51.0951 159.456 51.0951 159.9C51.0951 160.34 51.0171 160.722 50.8611 161.046C50.7091 161.37 50.5031 161.62 50.2431 161.796C49.9871 161.972 49.7011 162.06 49.3851 162.06ZM49.3731 161.412C49.5811 161.412 49.7611 161.356 49.9131 161.244C50.0651 161.132 50.1831 160.964 50.2671 160.74C50.3551 160.516 50.3991 160.234 50.3991 159.894C50.3991 159.558 50.3551 159.278 50.2671 159.054C50.1831 158.83 50.0631 158.664 49.9071 158.556C49.7551 158.444 49.5771 158.388 49.3731 158.388C49.1691 158.388 48.9891 158.444 48.8331 158.556C48.6811 158.664 48.5631 158.83 48.4791 159.054C48.3951 159.274 48.3531 159.554 48.3531 159.894C48.3531 160.234 48.3951 160.516 48.4791 160.74C48.5631 160.964 48.6811 161.132 48.8331 161.244C48.9891 161.356 49.1691 161.412 49.3731 161.412ZM51.5108 161.592L53.0588 159.948C53.1868 159.812 53.2908 159.69 53.3708 159.582C53.4508 159.474 53.5088 159.372 53.5448 159.276C53.5808 159.18 53.5988 159.082 53.5988 158.982C53.5988 158.794 53.5368 158.648 53.4128 158.544C53.2928 158.436 53.1388 158.382 52.9508 158.382C52.7508 158.382 52.5748 158.432 52.4228 158.532C52.2708 158.632 52.1348 158.788 52.0148 159L51.5348 158.604C51.6988 158.32 51.9008 158.106 52.1408 157.962C52.3808 157.814 52.6588 157.74 52.9748 157.74C53.2348 157.74 53.4628 157.792 53.6588 157.896C53.8548 158 54.0068 158.146 54.1148 158.334C54.2228 158.518 54.2768 158.732 54.2768 158.976C54.2768 159.152 54.2548 159.31 54.2108 159.45C54.1708 159.586 54.1008 159.724 54.0008 159.864C53.9008 160 53.7628 160.16 53.5868 160.344L52.3988 161.574L51.5108 161.592ZM51.5108 162V161.592L52.1048 161.382H54.3608V162H51.5108ZM54.7569 161.592L56.3049 159.948C56.4329 159.812 56.5369 159.69 56.6169 159.582C56.6969 159.474 56.7549 159.372 56.7909 159.276C56.8269 159.18 56.8449 159.082 56.8449 158.982C56.8449 158.794 56.7829 158.648 56.6589 158.544C56.5389 158.436 56.3849 158.382 56.1969 158.382C55.9969 158.382 55.8209 158.432 55.6689 158.532C55.5169 158.632 55.3809 158.788 55.2609 159L54.7809 158.604C54.9449 158.32 55.1469 158.106 55.3869 157.962C55.6269 157.814 55.9049 157.74 56.2209 157.74C56.4809 157.74 56.7089 157.792 56.9049 157.896C57.1009 158 57.2529 158.146 57.3609 158.334C57.4689 158.518 57.5229 158.732 57.5229 158.976C57.5229 159.152 57.5009 159.31 57.4569 159.45C57.4169 159.586 57.3469 159.724 57.2469 159.864C57.1469 160 57.0089 160.16 56.8329 160.344L55.6449 161.574L54.7569 161.592ZM54.7569 162V161.592L55.3509 161.382H57.6069V162H54.7569Z" fill="black"/>
<path d="M39.9244 173.06C39.6324 173.06 39.3724 173.01 39.1444 172.91C38.9164 172.806 38.7244 172.656 38.5684 172.46L39.0364 171.992C39.1204 172.12 39.2384 172.222 39.3904 172.298C39.5464 172.374 39.7204 172.412 39.9124 172.412C40.0884 172.412 40.2424 172.38 40.3744 172.316C40.5064 172.252 40.6104 172.16 40.6864 172.04C40.7624 171.92 40.8004 171.778 40.8004 171.614C40.8004 171.442 40.7624 171.3 40.6864 171.188C40.6144 171.072 40.5164 170.986 40.3924 170.93C40.2724 170.87 40.1424 170.84 40.0024 170.84C39.8424 170.84 39.6984 170.858 39.5704 170.894C39.4464 170.93 39.3244 170.994 39.2044 171.086L39.2224 170.654C39.2864 170.57 39.3604 170.502 39.4444 170.45C39.5284 170.394 39.6264 170.352 39.7384 170.324C39.8504 170.296 39.9824 170.282 40.1344 170.282C40.4304 170.282 40.6784 170.344 40.8784 170.468C41.0824 170.592 41.2364 170.758 41.3404 170.966C41.4444 171.17 41.4964 171.398 41.4964 171.65C41.4964 171.922 41.4284 172.164 41.2924 172.376C41.1604 172.588 40.9764 172.756 40.7404 172.88C40.5044 173 40.2324 173.06 39.9244 173.06ZM39.2044 171.086L38.8264 170.708L39.0124 168.8H39.6424L39.4264 170.786L39.2044 171.086ZM39.1324 169.418L39.0124 168.8H41.2624V169.418H39.1324ZM43.6859 173.06C43.3699 173.06 43.0799 172.972 42.8159 172.796C42.5559 172.616 42.3479 172.364 42.1919 172.04C42.0359 171.716 41.9579 171.334 41.9579 170.894C41.9579 170.454 42.0339 170.074 42.1859 169.754C42.3419 169.43 42.5499 169.18 42.8099 169.004C43.0699 168.828 43.3579 168.74 43.6739 168.74C43.9939 168.74 44.2839 168.828 44.5439 169.004C44.8039 169.18 45.0099 169.43 45.1619 169.754C45.3179 170.074 45.3959 170.456 45.3959 170.9C45.3959 171.34 45.3179 171.722 45.1619 172.046C45.0099 172.37 44.8039 172.62 44.5439 172.796C44.2879 172.972 44.0019 173.06 43.6859 173.06ZM43.6739 172.412C43.8819 172.412 44.0619 172.356 44.2139 172.244C44.3659 172.132 44.4839 171.964 44.5679 171.74C44.6559 171.516 44.6999 171.234 44.6999 170.894C44.6999 170.558 44.6559 170.278 44.5679 170.054C44.4839 169.83 44.3639 169.664 44.2079 169.556C44.0559 169.444 43.8779 169.388 43.6739 169.388C43.4699 169.388 43.2899 169.444 43.1339 169.556C42.9819 169.664 42.8639 169.83 42.7799 170.054C42.6959 170.274 42.6539 170.554 42.6539 170.894C42.6539 171.234 42.6959 171.516 42.7799 171.74C42.8639 171.964 42.9819 172.132 43.1339 172.244C43.2899 172.356 43.4699 172.412 43.6739 172.412ZM48.4167 173.06C48.1567 173.06 47.9207 172.994 47.7087 172.862C47.5007 172.73 47.3347 172.552 47.2107 172.328C47.0907 172.1 47.0307 171.846 47.0307 171.566C47.0307 171.282 47.0907 171.028 47.2107 170.804C47.3347 170.576 47.5007 170.396 47.7087 170.264C47.9207 170.128 48.1567 170.06 48.4167 170.06C48.6367 170.06 48.8307 170.108 48.9987 170.204C49.1707 170.296 49.3067 170.424 49.4067 170.588C49.5067 170.752 49.5567 170.938 49.5567 171.146V171.974C49.5567 172.182 49.5067 172.368 49.4067 172.532C49.3107 172.696 49.1767 172.826 49.0047 172.922C48.8327 173.014 48.6367 173.06 48.4167 173.06ZM48.5247 172.436C48.7687 172.436 48.9647 172.354 49.1127 172.19C49.2647 172.026 49.3407 171.816 49.3407 171.56C49.3407 171.388 49.3067 171.236 49.2387 171.104C49.1707 170.972 49.0747 170.87 48.9507 170.798C48.8307 170.722 48.6887 170.684 48.5247 170.684C48.3647 170.684 48.2227 170.722 48.0987 170.798C47.9787 170.87 47.8827 170.972 47.8107 171.104C47.7427 171.236 47.7087 171.388 47.7087 171.56C47.7087 171.732 47.7427 171.884 47.8107 172.016C47.8827 172.148 47.9787 172.252 48.0987 172.328C48.2227 172.4 48.3647 172.436 48.5247 172.436ZM49.2987 174.2V172.292L49.4127 171.596L49.2987 170.894V170.12H49.9587V174.2H49.2987ZM51.8732 173.06C51.6292 173.06 51.4112 173.006 51.2192 172.898C51.0312 172.79 50.8832 172.642 50.7752 172.454C50.6712 172.262 50.6192 172.042 50.6192 171.794V170.12H51.2792V171.764C51.2792 171.904 51.3012 172.024 51.3452 172.124C51.3932 172.22 51.4612 172.294 51.5492 172.346C51.6412 172.398 51.7492 172.424 51.8732 172.424C52.0652 172.424 52.2112 172.368 52.3112 172.256C52.4152 172.14 52.4672 171.976 52.4672 171.764V170.12H53.1272V171.794C53.1272 172.046 53.0732 172.268 52.9652 172.46C52.8612 172.648 52.7152 172.796 52.5272 172.904C52.3392 173.008 52.1212 173.06 51.8732 173.06ZM55.1288 173.06C54.8408 173.06 54.5808 172.996 54.3488 172.868C54.1208 172.736 53.9388 172.556 53.8028 172.328C53.6708 172.1 53.6048 171.844 53.6048 171.56C53.6048 171.276 53.6708 171.022 53.8028 170.798C53.9348 170.57 54.1128 170.39 54.3368 170.258C54.5648 170.126 54.8168 170.06 55.0928 170.06C55.3608 170.06 55.5968 170.122 55.8008 170.246C56.0088 170.37 56.1708 170.54 56.2868 170.756C56.4068 170.972 56.4668 171.218 56.4668 171.494C56.4668 171.542 56.4628 171.592 56.4548 171.644C56.4508 171.692 56.4428 171.746 56.4308 171.806H54.0668V171.266H56.0888L55.8428 171.482C55.8348 171.306 55.8008 171.158 55.7408 171.038C55.6808 170.918 55.5948 170.826 55.4828 170.762C55.3748 170.698 55.2408 170.666 55.0808 170.666C54.9128 170.666 54.7668 170.702 54.6428 170.774C54.5188 170.846 54.4228 170.948 54.3548 171.08C54.2868 171.208 54.2528 171.362 54.2528 171.542C54.2528 171.722 54.2888 171.88 54.3608 172.016C54.4328 172.152 54.5348 172.258 54.6668 172.334C54.7988 172.406 54.9508 172.442 55.1228 172.442C55.2708 172.442 55.4068 172.416 55.5308 172.364C55.6588 172.312 55.7668 172.236 55.8548 172.136L56.2748 172.562C56.1348 172.726 55.9648 172.85 55.7648 172.934C55.5648 173.018 55.3528 173.06 55.1288 173.06ZM57.9379 173.06C57.7779 173.06 57.6239 173.04 57.4759 173C57.3279 172.956 57.1919 172.896 57.0679 172.82C56.9439 172.74 56.8359 172.644 56.7439 172.532L57.1639 172.112C57.2639 172.228 57.3779 172.316 57.5059 172.376C57.6379 172.432 57.7859 172.46 57.9499 172.46C58.0979 172.46 58.2099 172.438 58.2859 172.394C58.3619 172.35 58.3999 172.286 58.3999 172.202C58.3999 172.114 58.3639 172.046 58.2919 171.998C58.2199 171.95 58.1259 171.91 58.0099 171.878C57.8979 171.842 57.7779 171.806 57.6499 171.77C57.5259 171.734 57.4059 171.686 57.2899 171.626C57.1779 171.562 57.0859 171.476 57.0139 171.368C56.9419 171.26 56.9059 171.12 56.9059 170.948C56.9059 170.764 56.9479 170.606 57.0319 170.474C57.1199 170.342 57.2419 170.24 57.3979 170.168C57.5579 170.096 57.7479 170.06 57.9679 170.06C58.1999 170.06 58.4039 170.102 58.5799 170.186C58.7599 170.266 58.9099 170.388 59.0299 170.552L58.6099 170.972C58.5259 170.868 58.4299 170.79 58.3219 170.738C58.2139 170.686 58.0899 170.66 57.9499 170.66C57.8179 170.66 57.7159 170.68 57.6439 170.72C57.5719 170.76 57.5359 170.818 57.5359 170.894C57.5359 170.974 57.5719 171.036 57.6439 171.08C57.7159 171.124 57.8079 171.162 57.9199 171.194C58.0359 171.226 58.1559 171.262 58.2799 171.302C58.4079 171.338 58.5279 171.39 58.6399 171.458C58.7559 171.522 58.8499 171.61 58.9219 171.722C58.9939 171.83 59.0299 171.972 59.0299 172.148C59.0299 172.428 58.9319 172.65 58.7359 172.814C58.5399 172.978 58.2739 173.06 57.9379 173.06ZM60.012 173V168.92H60.672V173H60.012ZM59.322 170.72V170.12H61.362V170.72H59.322ZM63.0796 173.06C62.7996 173.06 62.5456 172.994 62.3176 172.862C62.0896 172.726 61.9076 172.544 61.7716 172.316C61.6396 172.088 61.5736 171.834 61.5736 171.554C61.5736 171.274 61.6396 171.022 61.7716 170.798C61.9076 170.574 62.0896 170.396 62.3176 170.264C62.5456 170.128 62.7996 170.06 63.0796 170.06C63.3636 170.06 63.6196 170.126 63.8476 170.258C64.0756 170.39 64.2556 170.57 64.3876 170.798C64.5236 171.022 64.5916 171.274 64.5916 171.554C64.5916 171.834 64.5236 172.088 64.3876 172.316C64.2556 172.544 64.0756 172.726 63.8476 172.862C63.6196 172.994 63.3636 173.06 63.0796 173.06ZM63.0796 172.424C63.2436 172.424 63.3876 172.388 63.5116 172.316C63.6396 172.24 63.7376 172.136 63.8056 172.004C63.8776 171.872 63.9136 171.722 63.9136 171.554C63.9136 171.386 63.8776 171.238 63.8056 171.11C63.7336 170.982 63.6356 170.882 63.5116 170.81C63.3876 170.734 63.2436 170.696 63.0796 170.696C62.9196 170.696 62.7756 170.734 62.6476 170.81C62.5236 170.882 62.4256 170.982 62.3536 171.11C62.2856 171.238 62.2516 171.386 62.2516 171.554C62.2516 171.722 62.2856 171.872 62.3536 172.004C62.4256 172.136 62.5236 172.24 62.6476 172.316C62.7756 172.388 62.9196 172.424 63.0796 172.424ZM63.5176 169.706C63.3856 169.706 63.2736 169.682 63.1816 169.634C63.0896 169.586 63.0036 169.54 62.9236 169.496C62.8476 169.448 62.7616 169.424 62.6656 169.424C62.5656 169.424 62.4856 169.442 62.4256 169.478C62.3656 169.514 62.3076 169.568 62.2516 169.64L61.8976 169.286C62.0136 169.154 62.1296 169.05 62.2456 168.974C62.3616 168.894 62.4976 168.854 62.6536 168.854C62.7856 168.854 62.8976 168.878 62.9896 168.926C63.0816 168.97 63.1676 169.016 63.2476 169.064C63.3276 169.112 63.4136 169.136 63.5056 169.136C63.6096 169.136 63.6916 169.118 63.7516 169.082C63.8116 169.046 63.8676 168.992 63.9196 168.92L64.2736 169.274C64.1576 169.406 64.0416 169.512 63.9256 169.592C63.8096 169.668 63.6736 169.706 63.5176 169.706ZM66.4784 173.06C66.1904 173.06 65.9304 172.996 65.6984 172.868C65.4704 172.736 65.2884 172.556 65.1524 172.328C65.0204 172.1 64.9544 171.844 64.9544 171.56C64.9544 171.276 65.0204 171.022 65.1524 170.798C65.2844 170.57 65.4624 170.39 65.6864 170.258C65.9144 170.126 66.1664 170.06 66.4424 170.06C66.7104 170.06 66.9464 170.122 67.1504 170.246C67.3584 170.37 67.5204 170.54 67.6364 170.756C67.7564 170.972 67.8164 171.218 67.8164 171.494C67.8164 171.542 67.8124 171.592 67.8044 171.644C67.8004 171.692 67.7924 171.746 67.7804 171.806H65.4164V171.266H67.4384L67.1924 171.482C67.1844 171.306 67.1504 171.158 67.0904 171.038C67.0304 170.918 66.9444 170.826 66.8324 170.762C66.7244 170.698 66.5904 170.666 66.4304 170.666C66.2624 170.666 66.1164 170.702 65.9924 170.774C65.8684 170.846 65.7724 170.948 65.7044 171.08C65.6364 171.208 65.6024 171.362 65.6024 171.542C65.6024 171.722 65.6384 171.88 65.7104 172.016C65.7824 172.152 65.8844 172.258 66.0164 172.334C66.1484 172.406 66.3004 172.442 66.4724 172.442C66.6204 172.442 66.7564 172.416 66.8804 172.364C67.0084 172.312 67.1164 172.236 67.2044 172.136L67.6244 172.562C67.4844 172.726 67.3144 172.85 67.1144 172.934C66.9144 173.018 66.7024 173.06 66.4784 173.06ZM69.2875 173.06C69.1275 173.06 68.9735 173.04 68.8255 173C68.6775 172.956 68.5415 172.896 68.4175 172.82C68.2935 172.74 68.1855 172.644 68.0935 172.532L68.5135 172.112C68.6135 172.228 68.7275 172.316 68.8555 172.376C68.9875 172.432 69.1355 172.46 69.2995 172.46C69.4475 172.46 69.5595 172.438 69.6355 172.394C69.7115 172.35 69.7495 172.286 69.7495 172.202C69.7495 172.114 69.7135 172.046 69.6415 171.998C69.5695 171.95 69.4755 171.91 69.3595 171.878C69.2475 171.842 69.1275 171.806 68.9995 171.77C68.8755 171.734 68.7555 171.686 68.6395 171.626C68.5275 171.562 68.4355 171.476 68.3635 171.368C68.2915 171.26 68.2555 171.12 68.2555 170.948C68.2555 170.764 68.2975 170.606 68.3815 170.474C68.4695 170.342 68.5915 170.24 68.7475 170.168C68.9075 170.096 69.0975 170.06 69.3175 170.06C69.5495 170.06 69.7535 170.102 69.9295 170.186C70.1095 170.266 70.2595 170.388 70.3795 170.552L69.9595 170.972C69.8755 170.868 69.7795 170.79 69.6715 170.738C69.5635 170.686 69.4395 170.66 69.2995 170.66C69.1675 170.66 69.0655 170.68 68.9935 170.72C68.9215 170.76 68.8855 170.818 68.8855 170.894C68.8855 170.974 68.9215 171.036 68.9935 171.08C69.0655 171.124 69.1575 171.162 69.2695 171.194C69.3855 171.226 69.5055 171.262 69.6295 171.302C69.7575 171.338 69.8775 171.39 69.9895 171.458C70.1055 171.522 70.1995 171.61 70.2715 171.722C70.3435 171.83 70.3795 171.972 70.3795 172.148C70.3795 172.428 70.2815 172.65 70.0855 172.814C69.8895 172.978 69.6235 173.06 69.2875 173.06Z" fill="black" fill-opacity="0.3"/>
<rect x="39" y="185" width="122" height="19" rx="4" fill="#5B93FF"/>
<rect x="166.35" y="185.35" width="121.3" height="18.3" rx="3.65" stroke="#5B93FF" stroke-width="0.7"/>
<path d="M88.2873 197L86.5893 192.8H87.3393L88.6653 196.202H88.4013L89.7393 192.8H90.4773L88.7673 197H88.2873ZM91.747 197.06C91.459 197.06 91.199 196.996 90.967 196.868C90.739 196.736 90.557 196.556 90.421 196.328C90.289 196.1 90.223 195.844 90.223 195.56C90.223 195.276 90.289 195.022 90.421 194.798C90.553 194.57 90.731 194.39 90.955 194.258C91.183 194.126 91.435 194.06 91.711 194.06C91.979 194.06 92.215 194.122 92.419 194.246C92.627 194.37 92.789 194.54 92.905 194.756C93.025 194.972 93.085 195.218 93.085 195.494C93.085 195.542 93.081 195.592 93.073 195.644C93.069 195.692 93.061 195.746 93.049 195.806H90.685V195.266H92.707L92.461 195.482C92.453 195.306 92.419 195.158 92.359 195.038C92.299 194.918 92.213 194.826 92.101 194.762C91.993 194.698 91.859 194.666 91.699 194.666C91.531 194.666 91.385 194.702 91.261 194.774C91.137 194.846 91.041 194.948 90.973 195.08C90.905 195.208 90.871 195.362 90.871 195.542C90.871 195.722 90.907 195.88 90.979 196.016C91.051 196.152 91.153 196.258 91.285 196.334C91.417 196.406 91.569 196.442 91.741 196.442C91.889 196.442 92.025 196.416 92.149 196.364C92.277 196.312 92.385 196.236 92.473 196.136L92.893 196.562C92.753 196.726 92.583 196.85 92.383 196.934C92.183 197.018 91.971 197.06 91.747 197.06ZM93.614 197V194.12H94.274V197H93.614ZM94.274 195.398L94.046 195.284C94.046 194.92 94.126 194.626 94.286 194.402C94.45 194.174 94.696 194.06 95.024 194.06C95.168 194.06 95.298 194.086 95.414 194.138C95.53 194.19 95.638 194.274 95.738 194.39L95.306 194.834C95.254 194.778 95.196 194.738 95.132 194.714C95.068 194.69 94.994 194.678 94.91 194.678C94.726 194.678 94.574 194.736 94.454 194.852C94.334 194.968 94.274 195.15 94.274 195.398ZM98.906 197.06C98.686 197.06 98.49 197.014 98.318 196.922C98.146 196.826 98.01 196.696 97.91 196.532C97.814 196.368 97.766 196.182 97.766 195.974V195.146C97.766 194.938 97.816 194.752 97.916 194.588C98.016 194.424 98.152 194.296 98.324 194.204C98.496 194.108 98.69 194.06 98.906 194.06C99.166 194.06 99.4 194.128 99.608 194.264C99.82 194.396 99.986 194.576 100.106 194.804C100.23 195.028 100.292 195.282 100.292 195.566C100.292 195.846 100.23 196.1 100.106 196.328C99.986 196.552 99.82 196.73 99.608 196.862C99.4 196.994 99.166 197.06 98.906 197.06ZM98.798 196.436C98.958 196.436 99.098 196.4 99.218 196.328C99.342 196.252 99.438 196.148 99.506 196.016C99.578 195.884 99.614 195.732 99.614 195.56C99.614 195.388 99.578 195.236 99.506 195.104C99.438 194.972 99.342 194.87 99.218 194.798C99.098 194.722 98.958 194.684 98.798 194.684C98.638 194.684 98.496 194.722 98.372 194.798C98.248 194.87 98.152 194.972 98.084 195.104C98.016 195.236 97.982 195.388 97.982 195.56C97.982 195.732 98.016 195.884 98.084 196.016C98.152 196.148 98.248 196.252 98.372 196.328C98.496 196.4 98.638 196.436 98.798 196.436ZM97.364 198.2V194.12H98.024V194.894L97.91 195.596L98.024 196.292V198.2H97.364ZM100.845 197V194.12H101.505V197H100.845ZM101.505 195.398L101.277 195.284C101.277 194.92 101.357 194.626 101.517 194.402C101.681 194.174 101.927 194.06 102.255 194.06C102.399 194.06 102.529 194.086 102.645 194.138C102.761 194.19 102.869 194.274 102.969 194.39L102.537 194.834C102.485 194.778 102.427 194.738 102.363 194.714C102.299 194.69 102.225 194.678 102.141 194.678C101.957 194.678 101.805 194.736 101.685 194.852C101.565 194.968 101.505 195.15 101.505 195.398ZM104.52 197.06C104.24 197.06 103.986 196.994 103.758 196.862C103.53 196.726 103.348 196.544 103.212 196.316C103.08 196.088 103.014 195.834 103.014 195.554C103.014 195.274 103.08 195.022 103.212 194.798C103.348 194.574 103.53 194.396 103.758 194.264C103.986 194.128 104.24 194.06 104.52 194.06C104.804 194.06 105.06 194.126 105.288 194.258C105.516 194.39 105.696 194.57 105.828 194.798C105.964 195.022 106.032 195.274 106.032 195.554C106.032 195.834 105.964 196.088 105.828 196.316C105.696 196.544 105.516 196.726 105.288 196.862C105.06 196.994 104.804 197.06 104.52 197.06ZM104.52 196.424C104.684 196.424 104.828 196.388 104.952 196.316C105.08 196.24 105.178 196.136 105.246 196.004C105.318 195.872 105.354 195.722 105.354 195.554C105.354 195.386 105.318 195.238 105.246 195.11C105.174 194.982 105.076 194.882 104.952 194.81C104.828 194.734 104.684 194.696 104.52 194.696C104.36 194.696 104.216 194.734 104.088 194.81C103.964 194.882 103.866 194.982 103.794 195.11C103.726 195.238 103.692 195.386 103.692 195.554C103.692 195.722 103.726 195.872 103.794 196.004C103.866 196.136 103.964 196.24 104.088 196.316C104.216 196.388 104.36 196.424 104.52 196.424ZM107.453 197L106.139 194.12H106.871L107.873 196.466H107.441L108.449 194.12H109.151L107.837 197H107.453ZM110.646 197.06C110.386 197.06 110.15 196.994 109.938 196.862C109.73 196.73 109.564 196.552 109.44 196.328C109.32 196.1 109.26 195.846 109.26 195.566C109.26 195.282 109.32 195.028 109.44 194.804C109.564 194.576 109.73 194.396 109.938 194.264C110.15 194.128 110.386 194.06 110.646 194.06C110.866 194.06 111.06 194.108 111.228 194.204C111.4 194.296 111.536 194.424 111.636 194.588C111.736 194.752 111.786 194.938 111.786 195.146V195.974C111.786 196.182 111.736 196.368 111.636 196.532C111.54 196.696 111.406 196.826 111.234 196.922C111.062 197.014 110.866 197.06 110.646 197.06ZM110.754 196.436C110.998 196.436 111.194 196.354 111.342 196.19C111.494 196.026 111.57 195.816 111.57 195.56C111.57 195.388 111.536 195.236 111.468 195.104C111.4 194.972 111.304 194.87 111.18 194.798C111.06 194.722 110.918 194.684 110.754 194.684C110.594 194.684 110.452 194.722 110.328 194.798C110.208 194.87 110.112 194.972 110.04 195.104C109.972 195.236 109.938 195.388 109.938 195.56C109.938 195.732 109.972 195.884 110.04 196.016C110.112 196.148 110.208 196.252 110.328 196.328C110.452 196.4 110.594 196.436 110.754 196.436ZM111.528 197V196.226L111.642 195.524L111.528 194.828V194.12H112.188V197H111.528Z" fill="white"/>
<path d="M211.911 197L210.213 192.8H210.963L212.289 196.202H212.025L213.363 192.8H214.101L212.391 197H211.911ZM215.371 197.06C215.083 197.06 214.823 196.996 214.591 196.868C214.363 196.736 214.181 196.556 214.045 196.328C213.913 196.1 213.847 195.844 213.847 195.56C213.847 195.276 213.913 195.022 214.045 194.798C214.177 194.57 214.355 194.39 214.579 194.258C214.807 194.126 215.059 194.06 215.335 194.06C215.603 194.06 215.839 194.122 216.043 194.246C216.251 194.37 216.413 194.54 216.529 194.756C216.649 194.972 216.709 195.218 216.709 195.494C216.709 195.542 216.705 195.592 216.697 195.644C216.693 195.692 216.685 195.746 216.673 195.806H214.309V195.266H216.331L216.085 195.482C216.077 195.306 216.043 195.158 215.983 195.038C215.923 194.918 215.837 194.826 215.725 194.762C215.617 194.698 215.483 194.666 215.323 194.666C215.155 194.666 215.009 194.702 214.885 194.774C214.761 194.846 214.665 194.948 214.597 195.08C214.529 195.208 214.495 195.362 214.495 195.542C214.495 195.722 214.531 195.88 214.603 196.016C214.675 196.152 214.777 196.258 214.909 196.334C215.041 196.406 215.193 196.442 215.365 196.442C215.513 196.442 215.649 196.416 215.773 196.364C215.901 196.312 216.009 196.236 216.097 196.136L216.517 196.562C216.377 196.726 216.207 196.85 216.007 196.934C215.807 197.018 215.595 197.06 215.371 197.06ZM217.238 197V194.12H217.898V197H217.238ZM217.898 195.398L217.67 195.284C217.67 194.92 217.75 194.626 217.91 194.402C218.074 194.174 218.32 194.06 218.648 194.06C218.792 194.06 218.922 194.086 219.038 194.138C219.154 194.19 219.262 194.274 219.362 194.39L218.93 194.834C218.878 194.778 218.82 194.738 218.756 194.714C218.692 194.69 218.618 194.678 218.534 194.678C218.35 194.678 218.198 194.736 218.078 194.852C217.958 194.968 217.898 195.15 217.898 195.398ZM222.188 198.26C221.884 198.26 221.618 198.204 221.39 198.092C221.162 197.984 220.978 197.83 220.838 197.63L221.27 197.198C221.386 197.342 221.518 197.45 221.666 197.522C221.814 197.594 221.992 197.63 222.2 197.63C222.46 197.63 222.666 197.562 222.818 197.426C222.97 197.294 223.046 197.112 223.046 196.88V196.172L223.16 195.536L223.046 194.894V194.12H223.706V196.88C223.706 197.156 223.642 197.396 223.514 197.6C223.386 197.808 223.208 197.97 222.98 198.086C222.752 198.202 222.488 198.26 222.188 198.26ZM222.158 196.94C221.902 196.94 221.67 196.878 221.462 196.754C221.258 196.626 221.096 196.452 220.976 196.232C220.86 196.012 220.802 195.766 220.802 195.494C220.802 195.222 220.86 194.978 220.976 194.762C221.096 194.546 221.258 194.376 221.462 194.252C221.67 194.124 221.902 194.06 222.158 194.06C222.386 194.06 222.586 194.106 222.758 194.198C222.93 194.29 223.064 194.418 223.16 194.582C223.256 194.742 223.304 194.93 223.304 195.146V195.854C223.304 196.066 223.254 196.254 223.154 196.418C223.058 196.582 222.924 196.71 222.752 196.802C222.58 196.894 222.382 196.94 222.158 196.94ZM222.29 196.316C222.45 196.316 222.59 196.282 222.71 196.214C222.83 196.146 222.922 196.052 222.986 195.932C223.054 195.808 223.088 195.664 223.088 195.5C223.088 195.336 223.054 195.194 222.986 195.074C222.922 194.95 222.83 194.854 222.71 194.786C222.59 194.718 222.45 194.684 222.29 194.684C222.13 194.684 221.988 194.718 221.864 194.786C221.744 194.854 221.65 194.95 221.582 195.074C221.514 195.194 221.48 195.336 221.48 195.5C221.48 195.66 221.514 195.802 221.582 195.926C221.65 196.05 221.744 196.146 221.864 196.214C221.988 196.282 222.13 196.316 222.29 196.316ZM225.645 197.06C225.385 197.06 225.149 196.994 224.937 196.862C224.729 196.73 224.563 196.552 224.439 196.328C224.319 196.1 224.259 195.846 224.259 195.566C224.259 195.282 224.319 195.028 224.439 194.804C224.563 194.576 224.729 194.396 224.937 194.264C225.149 194.128 225.385 194.06 225.645 194.06C225.865 194.06 226.059 194.108 226.227 194.204C226.399 194.296 226.535 194.424 226.635 194.588C226.735 194.752 226.785 194.938 226.785 195.146V195.974C226.785 196.182 226.735 196.368 226.635 196.532C226.539 196.696 226.405 196.826 226.233 196.922C226.061 197.014 225.865 197.06 225.645 197.06ZM225.753 196.436C225.997 196.436 226.193 196.354 226.341 196.19C226.493 196.026 226.569 195.816 226.569 195.56C226.569 195.388 226.535 195.236 226.467 195.104C226.399 194.972 226.303 194.87 226.179 194.798C226.059 194.722 225.917 194.684 225.753 194.684C225.593 194.684 225.451 194.722 225.327 194.798C225.207 194.87 225.111 194.972 225.039 195.104C224.971 195.236 224.937 195.388 224.937 195.56C224.937 195.732 224.971 195.884 225.039 196.016C225.111 196.148 225.207 196.252 225.327 196.328C225.451 196.4 225.593 196.436 225.753 196.436ZM226.527 197V196.226L226.641 195.524L226.527 194.828V194.12H227.187V197H226.527ZM229.462 197.06C229.242 197.06 229.046 197.014 228.874 196.922C228.702 196.826 228.566 196.696 228.466 196.532C228.37 196.368 228.322 196.182 228.322 195.974V195.146C228.322 194.938 228.372 194.752 228.472 194.588C228.572 194.424 228.708 194.296 228.88 194.204C229.052 194.108 229.246 194.06 229.462 194.06C229.722 194.06 229.956 194.128 230.164 194.264C230.376 194.396 230.542 194.576 230.662 194.804C230.786 195.028 230.848 195.282 230.848 195.566C230.848 195.846 230.786 196.1 230.662 196.328C230.542 196.552 230.376 196.73 230.164 196.862C229.956 196.994 229.722 197.06 229.462 197.06ZM229.354 196.436C229.514 196.436 229.654 196.4 229.774 196.328C229.898 196.252 229.994 196.148 230.062 196.016C230.134 195.884 230.17 195.732 230.17 195.56C230.17 195.388 230.134 195.236 230.062 195.104C229.994 194.972 229.898 194.87 229.774 194.798C229.654 194.722 229.514 194.684 229.354 194.684C229.194 194.684 229.052 194.722 228.928 194.798C228.804 194.87 228.708 194.972 228.64 195.104C228.572 195.236 228.538 195.388 228.538 195.56C228.538 195.732 228.572 195.884 228.64 196.016C228.708 196.148 228.804 196.252 228.928 196.328C229.052 196.4 229.194 196.436 229.354 196.436ZM227.92 197V192.68H228.58V194.828L228.466 195.524L228.58 196.226V197H227.92ZM232.606 197.06C232.346 197.06 232.11 196.994 231.898 196.862C231.69 196.73 231.524 196.552 231.4 196.328C231.28 196.1 231.22 195.846 231.22 195.566C231.22 195.282 231.28 195.028 231.4 194.804C231.524 194.576 231.69 194.396 231.898 194.264C232.11 194.128 232.346 194.06 232.606 194.06C232.826 194.06 233.02 194.108 233.188 194.204C233.36 194.296 233.496 194.424 233.596 194.588C233.696 194.752 233.746 194.938 233.746 195.146V195.974C233.746 196.182 233.696 196.368 233.596 196.532C233.5 196.696 233.366 196.826 233.194 196.922C233.022 197.014 232.826 197.06 232.606 197.06ZM232.714 196.436C232.958 196.436 233.154 196.354 233.302 196.19C233.454 196.026 233.53 195.816 233.53 195.56C233.53 195.388 233.496 195.236 233.428 195.104C233.36 194.972 233.264 194.87 233.14 194.798C233.02 194.722 232.878 194.684 232.714 194.684C232.554 194.684 232.412 194.722 232.288 194.798C232.168 194.87 232.072 194.972 232 195.104C231.932 195.236 231.898 195.388 231.898 195.56C231.898 195.732 231.932 195.884 232 196.016C232.072 196.148 232.168 196.252 232.288 196.328C232.412 196.4 232.554 196.436 232.714 196.436ZM233.488 197V196.226L233.602 195.524L233.488 194.828V194.12H234.148V197H233.488ZM234.881 197V194.12H235.541V197H234.881ZM235.541 195.398L235.313 195.284C235.313 194.92 235.393 194.626 235.553 194.402C235.717 194.174 235.963 194.06 236.291 194.06C236.435 194.06 236.565 194.086 236.681 194.138C236.797 194.19 236.905 194.274 237.005 194.39L236.573 194.834C236.521 194.778 236.463 194.738 236.399 194.714C236.335 194.69 236.261 194.678 236.177 194.678C235.993 194.678 235.841 194.736 235.721 194.852C235.601 194.968 235.541 195.15 235.541 195.398ZM237.33 197V194.12H237.99V197H237.33ZM237.66 193.592C237.548 193.592 237.454 193.554 237.378 193.478C237.306 193.402 237.27 193.308 237.27 193.196C237.27 193.084 237.306 192.99 237.378 192.914C237.454 192.838 237.548 192.8 237.66 192.8C237.776 192.8 237.87 192.838 237.942 192.914C238.014 192.99 238.05 193.084 238.05 193.196C238.05 193.308 238.014 193.402 237.942 193.478C237.87 193.554 237.776 193.592 237.66 193.592ZM239.168 197V192.92H239.828V197H239.168ZM238.478 194.72V194.12H240.518V194.72H238.478ZM242.236 197.06C241.956 197.06 241.702 196.994 241.474 196.862C241.246 196.726 241.064 196.544 240.928 196.316C240.796 196.088 240.73 195.834 240.73 195.554C240.73 195.274 240.796 195.022 240.928 194.798C241.064 194.574 241.246 194.396 241.474 194.264C241.702 194.128 241.956 194.06 242.236 194.06C242.52 194.06 242.776 194.126 243.004 194.258C243.232 194.39 243.412 194.57 243.544 194.798C243.68 195.022 243.748 195.274 243.748 195.554C243.748 195.834 243.68 196.088 243.544 196.316C243.412 196.544 243.232 196.726 243.004 196.862C242.776 196.994 242.52 197.06 242.236 197.06ZM242.236 196.424C242.4 196.424 242.544 196.388 242.668 196.316C242.796 196.24 242.894 196.136 242.962 196.004C243.034 195.872 243.07 195.722 243.07 195.554C243.07 195.386 243.034 195.238 242.962 195.11C242.89 194.982 242.792 194.882 242.668 194.81C242.544 194.734 242.4 194.696 242.236 194.696C242.076 194.696 241.932 194.734 241.804 194.81C241.68 194.882 241.582 194.982 241.51 195.11C241.442 195.238 241.408 195.386 241.408 195.554C241.408 195.722 241.442 195.872 241.51 196.004C241.582 196.136 241.68 196.24 241.804 196.316C241.932 196.388 242.076 196.424 242.236 196.424Z" fill="black"/>
<rect x="25" y="235" width="276" height="75" rx="8" fill="white"/>
<rect x="25.25" y="235.25" width="275.5" height="74.5" rx="7.75" stroke="black" stroke-opacity="0.1" stroke-width="0.5"/>
<rect x="39" y="248" width="1" height="10" fill="#5B93FF"/>
<path d="M44.4903 254.592L46.0383 252.948C46.1663 252.812 46.2703 252.69 46.3503 252.582C46.4303 252.474 46.4883 252.372 46.5243 252.276C46.5603 252.18 46.5783 252.082 46.5783 251.982C46.5783 251.794 46.5163 251.648 46.3923 251.544C46.2723 251.436 46.1183 251.382 45.9303 251.382C45.7303 251.382 45.5543 251.432 45.4023 251.532C45.2503 251.632 45.1143 251.788 44.9943 252L44.5143 251.604C44.6783 251.32 44.8803 251.106 45.1203 250.962C45.3603 250.814 45.6383 250.74 45.9543 250.74C46.2143 250.74 46.4423 250.792 46.6383 250.896C46.8343 251 46.9863 251.146 47.0943 251.334C47.2023 251.518 47.2563 251.732 47.2563 251.976C47.2563 252.152 47.2343 252.31 47.1903 252.45C47.1503 252.586 47.0803 252.724 46.9803 252.864C46.8803 253 46.7423 253.16 46.5663 253.344L45.3783 254.574L44.4903 254.592ZM44.4903 255V254.592L45.0843 254.382H47.3403V255H44.4903ZM49.5424 255.06C49.2264 255.06 48.9364 254.972 48.6724 254.796C48.4124 254.616 48.2044 254.364 48.0484 254.04C47.8924 253.716 47.8144 253.334 47.8144 252.894C47.8144 252.454 47.8904 252.074 48.0424 251.754C48.1984 251.43 48.4064 251.18 48.6664 251.004C48.9264 250.828 49.2144 250.74 49.5304 250.74C49.8504 250.74 50.1404 250.828 50.4004 251.004C50.6604 251.18 50.8664 251.43 51.0184 251.754C51.1744 252.074 51.2524 252.456 51.2524 252.9C51.2524 253.34 51.1744 253.722 51.0184 254.046C50.8664 254.37 50.6604 254.62 50.4004 254.796C50.1444 254.972 49.8584 255.06 49.5424 255.06ZM49.5304 254.412C49.7384 254.412 49.9184 254.356 50.0704 254.244C50.2224 254.132 50.3404 253.964 50.4244 253.74C50.5124 253.516 50.5564 253.234 50.5564 252.894C50.5564 252.558 50.5124 252.278 50.4244 252.054C50.3404 251.83 50.2204 251.664 50.0644 251.556C49.9124 251.444 49.7344 251.388 49.5304 251.388C49.3264 251.388 49.1464 251.444 48.9904 251.556C48.8384 251.664 48.7204 251.83 48.6364 252.054C48.5524 252.274 48.5104 252.554 48.5104 252.894C48.5104 253.234 48.5524 253.516 48.6364 253.74C48.7204 253.964 48.8384 254.132 48.9904 254.244C49.1464 254.356 49.3264 254.412 49.5304 254.412ZM51.668 254.592L53.216 252.948C53.344 252.812 53.448 252.69 53.528 252.582C53.608 252.474 53.666 252.372 53.702 252.276C53.738 252.18 53.756 252.082 53.756 251.982C53.756 251.794 53.694 251.648 53.57 251.544C53.45 251.436 53.296 251.382 53.108 251.382C52.908 251.382 52.732 251.432 52.58 251.532C52.428 251.632 52.292 251.788 52.172 252L51.692 251.604C51.856 251.32 52.058 251.106 52.298 250.962C52.538 250.814 52.816 250.74 53.132 250.74C53.392 250.74 53.62 250.792 53.816 250.896C54.012 251 54.164 251.146 54.272 251.334C54.38 251.518 54.434 251.732 54.434 251.976C54.434 252.152 54.412 252.31 54.368 252.45C54.328 252.586 54.258 252.724 54.158 252.864C54.058 253 53.92 253.16 53.744 253.344L52.556 254.574L51.668 254.592ZM51.668 255V254.592L52.262 254.382H54.518V255H51.668ZM56.7201 255.06C56.4041 255.06 56.1141 254.972 55.8501 254.796C55.5901 254.616 55.3821 254.364 55.2261 254.04C55.0701 253.716 54.9921 253.334 54.9921 252.894C54.9921 252.454 55.0681 252.074 55.2201 251.754C55.3761 251.43 55.5841 251.18 55.8441 251.004C56.1041 250.828 56.3921 250.74 56.7081 250.74C57.0281 250.74 57.3181 250.828 57.5781 251.004C57.8381 251.18 58.0441 251.43 58.1961 251.754C58.3521 252.074 58.4301 252.456 58.4301 252.9C58.4301 253.34 58.3521 253.722 58.1961 254.046C58.0441 254.37 57.8381 254.62 57.5781 254.796C57.3221 254.972 57.0361 255.06 56.7201 255.06ZM56.7081 254.412C56.9161 254.412 57.0961 254.356 57.2481 254.244C57.4001 254.132 57.5181 253.964 57.6021 253.74C57.6901 253.516 57.7341 253.234 57.7341 252.894C57.7341 252.558 57.6901 252.278 57.6021 252.054C57.5181 251.83 57.3981 251.664 57.2421 251.556C57.0901 251.444 56.9121 251.388 56.7081 251.388C56.5041 251.388 56.3241 251.444 56.1681 251.556C56.0161 251.664 55.8981 251.83 55.8141 252.054C55.7301 252.274 55.6881 252.554 55.6881 252.894C55.6881 253.234 55.7301 253.516 55.8141 253.74C55.8981 253.964 56.0161 254.132 56.1681 254.244C56.3241 254.356 56.5041 254.412 56.7081 254.412Z" fill="black"/>
<path d="M39.9244 266.06C39.6324 266.06 39.3724 266.01 39.1444 265.91C38.9164 265.806 38.7244 265.656 38.5684 265.46L39.0364 264.992C39.1204 265.12 39.2384 265.222 39.3904 265.298C39.5464 265.374 39.7204 265.412 39.9124 265.412C40.0884 265.412 40.2424 265.38 40.3744 265.316C40.5064 265.252 40.6104 265.16 40.6864 265.04C40.7624 264.92 40.8004 264.778 40.8004 264.614C40.8004 264.442 40.7624 264.3 40.6864 264.188C40.6144 264.072 40.5164 263.986 40.3924 263.93C40.2724 263.87 40.1424 263.84 40.0024 263.84C39.8424 263.84 39.6984 263.858 39.5704 263.894C39.4464 263.93 39.3244 263.994 39.2044 264.086L39.2224 263.654C39.2864 263.57 39.3604 263.502 39.4444 263.45C39.5284 263.394 39.6264 263.352 39.7384 263.324C39.8504 263.296 39.9824 263.282 40.1344 263.282C40.4304 263.282 40.6784 263.344 40.8784 263.468C41.0824 263.592 41.2364 263.758 41.3404 263.966C41.4444 264.17 41.4964 264.398 41.4964 264.65C41.4964 264.922 41.4284 265.164 41.2924 265.376C41.1604 265.588 40.9764 265.756 40.7404 265.88C40.5044 266 40.2324 266.06 39.9244 266.06ZM39.2044 264.086L38.8264 263.708L39.0124 261.8H39.6424L39.4264 263.786L39.2044 264.086ZM39.1324 262.418L39.0124 261.8H41.2624V262.418H39.1324ZM43.6859 266.06C43.3699 266.06 43.0799 265.972 42.8159 265.796C42.5559 265.616 42.3479 265.364 42.1919 265.04C42.0359 264.716 41.9579 264.334 41.9579 263.894C41.9579 263.454 42.0339 263.074 42.1859 262.754C42.3419 262.43 42.5499 262.18 42.8099 262.004C43.0699 261.828 43.3579 261.74 43.6739 261.74C43.9939 261.74 44.2839 261.828 44.5439 262.004C44.8039 262.18 45.0099 262.43 45.1619 262.754C45.3179 263.074 45.3959 263.456 45.3959 263.9C45.3959 264.34 45.3179 264.722 45.1619 265.046C45.0099 265.37 44.8039 265.62 44.5439 265.796C44.2879 265.972 44.0019 266.06 43.6859 266.06ZM43.6739 265.412C43.8819 265.412 44.0619 265.356 44.2139 265.244C44.3659 265.132 44.4839 264.964 44.5679 264.74C44.6559 264.516 44.6999 264.234 44.6999 263.894C44.6999 263.558 44.6559 263.278 44.5679 263.054C44.4839 262.83 44.3639 262.664 44.2079 262.556C44.0559 262.444 43.8779 262.388 43.6739 262.388C43.4699 262.388 43.2899 262.444 43.1339 262.556C42.9819 262.664 42.8639 262.83 42.7799 263.054C42.6959 263.274 42.6539 263.554 42.6539 263.894C42.6539 264.234 42.6959 264.516 42.7799 264.74C42.8639 264.964 42.9819 265.132 43.1339 265.244C43.2899 265.356 43.4699 265.412 43.6739 265.412ZM48.4167 266.06C48.1567 266.06 47.9207 265.994 47.7087 265.862C47.5007 265.73 47.3347 265.552 47.2107 265.328C47.0907 265.1 47.0307 264.846 47.0307 264.566C47.0307 264.282 47.0907 264.028 47.2107 263.804C47.3347 263.576 47.5007 263.396 47.7087 263.264C47.9207 263.128 48.1567 263.06 48.4167 263.06C48.6367 263.06 48.8307 263.108 48.9987 263.204C49.1707 263.296 49.3067 263.424 49.4067 263.588C49.5067 263.752 49.5567 263.938 49.5567 264.146V264.974C49.5567 265.182 49.5067 265.368 49.4067 265.532C49.3107 265.696 49.1767 265.826 49.0047 265.922C48.8327 266.014 48.6367 266.06 48.4167 266.06ZM48.5247 265.436C48.7687 265.436 48.9647 265.354 49.1127 265.19C49.2647 265.026 49.3407 264.816 49.3407 264.56C49.3407 264.388 49.3067 264.236 49.2387 264.104C49.1707 263.972 49.0747 263.87 48.9507 263.798C48.8307 263.722 48.6887 263.684 48.5247 263.684C48.3647 263.684 48.2227 263.722 48.0987 263.798C47.9787 263.87 47.8827 263.972 47.8107 264.104C47.7427 264.236 47.7087 264.388 47.7087 264.56C47.7087 264.732 47.7427 264.884 47.8107 265.016C47.8827 265.148 47.9787 265.252 48.0987 265.328C48.2227 265.4 48.3647 265.436 48.5247 265.436ZM49.2987 267.2V265.292L49.4127 264.596L49.2987 263.894V263.12H49.9587V267.2H49.2987ZM51.8732 266.06C51.6292 266.06 51.4112 266.006 51.2192 265.898C51.0312 265.79 50.8832 265.642 50.7752 265.454C50.6712 265.262 50.6192 265.042 50.6192 264.794V263.12H51.2792V264.764C51.2792 264.904 51.3012 265.024 51.3452 265.124C51.3932 265.22 51.4612 265.294 51.5492 265.346C51.6412 265.398 51.7492 265.424 51.8732 265.424C52.0652 265.424 52.2112 265.368 52.3112 265.256C52.4152 265.14 52.4672 264.976 52.4672 264.764V263.12H53.1272V264.794C53.1272 265.046 53.0732 265.268 52.9652 265.46C52.8612 265.648 52.7152 265.796 52.5272 265.904C52.3392 266.008 52.1212 266.06 51.8732 266.06ZM55.1288 266.06C54.8408 266.06 54.5808 265.996 54.3488 265.868C54.1208 265.736 53.9388 265.556 53.8028 265.328C53.6708 265.1 53.6048 264.844 53.6048 264.56C53.6048 264.276 53.6708 264.022 53.8028 263.798C53.9348 263.57 54.1128 263.39 54.3368 263.258C54.5648 263.126 54.8168 263.06 55.0928 263.06C55.3608 263.06 55.5968 263.122 55.8008 263.246C56.0088 263.37 56.1708 263.54 56.2868 263.756C56.4068 263.972 56.4668 264.218 56.4668 264.494C56.4668 264.542 56.4628 264.592 56.4548 264.644C56.4508 264.692 56.4428 264.746 56.4308 264.806H54.0668V264.266H56.0888L55.8428 264.482C55.8348 264.306 55.8008 264.158 55.7408 264.038C55.6808 263.918 55.5948 263.826 55.4828 263.762C55.3748 263.698 55.2408 263.666 55.0808 263.666C54.9128 263.666 54.7668 263.702 54.6428 263.774C54.5188 263.846 54.4228 263.948 54.3548 264.08C54.2868 264.208 54.2528 264.362 54.2528 264.542C54.2528 264.722 54.2888 264.88 54.3608 265.016C54.4328 265.152 54.5348 265.258 54.6668 265.334C54.7988 265.406 54.9508 265.442 55.1228 265.442C55.2708 265.442 55.4068 265.416 55.5308 265.364C55.6588 265.312 55.7668 265.236 55.8548 265.136L56.2748 265.562C56.1348 265.726 55.9648 265.85 55.7648 265.934C55.5648 266.018 55.3528 266.06 55.1288 266.06ZM57.9379 266.06C57.7779 266.06 57.6239 266.04 57.4759 266C57.3279 265.956 57.1919 265.896 57.0679 265.82C56.9439 265.74 56.8359 265.644 56.7439 265.532L57.1639 265.112C57.2639 265.228 57.3779 265.316 57.5059 265.376C57.6379 265.432 57.7859 265.46 57.9499 265.46C58.0979 265.46 58.2099 265.438 58.2859 265.394C58.3619 265.35 58.3999 265.286 58.3999 265.202C58.3999 265.114 58.3639 265.046 58.2919 264.998C58.2199 264.95 58.1259 264.91 58.0099 264.878C57.8979 264.842 57.7779 264.806 57.6499 264.77C57.5259 264.734 57.4059 264.686 57.2899 264.626C57.1779 264.562 57.0859 264.476 57.0139 264.368C56.9419 264.26 56.9059 264.12 56.9059 263.948C56.9059 263.764 56.9479 263.606 57.0319 263.474C57.1199 263.342 57.2419 263.24 57.3979 263.168C57.5579 263.096 57.7479 263.06 57.9679 263.06C58.1999 263.06 58.4039 263.102 58.5799 263.186C58.7599 263.266 58.9099 263.388 59.0299 263.552L58.6099 263.972C58.5259 263.868 58.4299 263.79 58.3219 263.738C58.2139 263.686 58.0899 263.66 57.9499 263.66C57.8179 263.66 57.7159 263.68 57.6439 263.72C57.5719 263.76 57.5359 263.818 57.5359 263.894C57.5359 263.974 57.5719 264.036 57.6439 264.08C57.7159 264.124 57.8079 264.162 57.9199 264.194C58.0359 264.226 58.1559 264.262 58.2799 264.302C58.4079 264.338 58.5279 264.39 58.6399 264.458C58.7559 264.522 58.8499 264.61 58.9219 264.722C58.9939 264.83 59.0299 264.972 59.0299 265.148C59.0299 265.428 58.9319 265.65 58.7359 265.814C58.5399 265.978 58.2739 266.06 57.9379 266.06ZM60.012 266V261.92H60.672V266H60.012ZM59.322 263.72V263.12H61.362V263.72H59.322ZM63.0796 266.06C62.7996 266.06 62.5456 265.994 62.3176 265.862C62.0896 265.726 61.9076 265.544 61.7716 265.316C61.6396 265.088 61.5736 264.834 61.5736 264.554C61.5736 264.274 61.6396 264.022 61.7716 263.798C61.9076 263.574 62.0896 263.396 62.3176 263.264C62.5456 263.128 62.7996 263.06 63.0796 263.06C63.3636 263.06 63.6196 263.126 63.8476 263.258C64.0756 263.39 64.2556 263.57 64.3876 263.798C64.5236 264.022 64.5916 264.274 64.5916 264.554C64.5916 264.834 64.5236 265.088 64.3876 265.316C64.2556 265.544 64.0756 265.726 63.8476 265.862C63.6196 265.994 63.3636 266.06 63.0796 266.06ZM63.0796 265.424C63.2436 265.424 63.3876 265.388 63.5116 265.316C63.6396 265.24 63.7376 265.136 63.8056 265.004C63.8776 264.872 63.9136 264.722 63.9136 264.554C63.9136 264.386 63.8776 264.238 63.8056 264.11C63.7336 263.982 63.6356 263.882 63.5116 263.81C63.3876 263.734 63.2436 263.696 63.0796 263.696C62.9196 263.696 62.7756 263.734 62.6476 263.81C62.5236 263.882 62.4256 263.982 62.3536 264.11C62.2856 264.238 62.2516 264.386 62.2516 264.554C62.2516 264.722 62.2856 264.872 62.3536 265.004C62.4256 265.136 62.5236 265.24 62.6476 265.316C62.7756 265.388 62.9196 265.424 63.0796 265.424ZM63.5176 262.706C63.3856 262.706 63.2736 262.682 63.1816 262.634C63.0896 262.586 63.0036 262.54 62.9236 262.496C62.8476 262.448 62.7616 262.424 62.6656 262.424C62.5656 262.424 62.4856 262.442 62.4256 262.478C62.3656 262.514 62.3076 262.568 62.2516 262.64L61.8976 262.286C62.0136 262.154 62.1296 262.05 62.2456 261.974C62.3616 261.894 62.4976 261.854 62.6536 261.854C62.7856 261.854 62.8976 261.878 62.9896 261.926C63.0816 261.97 63.1676 262.016 63.2476 262.064C63.3276 262.112 63.4136 262.136 63.5056 262.136C63.6096 262.136 63.6916 262.118 63.7516 262.082C63.8116 262.046 63.8676 261.992 63.9196 261.92L64.2736 262.274C64.1576 262.406 64.0416 262.512 63.9256 262.592C63.8096 262.668 63.6736 262.706 63.5176 262.706ZM66.4784 266.06C66.1904 266.06 65.9304 265.996 65.6984 265.868C65.4704 265.736 65.2884 265.556 65.1524 265.328C65.0204 265.1 64.9544 264.844 64.9544 264.56C64.9544 264.276 65.0204 264.022 65.1524 263.798C65.2844 263.57 65.4624 263.39 65.6864 263.258C65.9144 263.126 66.1664 263.06 66.4424 263.06C66.7104 263.06 66.9464 263.122 67.1504 263.246C67.3584 263.37 67.5204 263.54 67.6364 263.756C67.7564 263.972 67.8164 264.218 67.8164 264.494C67.8164 264.542 67.8124 264.592 67.8044 264.644C67.8004 264.692 67.7924 264.746 67.7804 264.806H65.4164V264.266H67.4384L67.1924 264.482C67.1844 264.306 67.1504 264.158 67.0904 264.038C67.0304 263.918 66.9444 263.826 66.8324 263.762C66.7244 263.698 66.5904 263.666 66.4304 263.666C66.2624 263.666 66.1164 263.702 65.9924 263.774C65.8684 263.846 65.7724 263.948 65.7044 264.08C65.6364 264.208 65.6024 264.362 65.6024 264.542C65.6024 264.722 65.6384 264.88 65.7104 265.016C65.7824 265.152 65.8844 265.258 66.0164 265.334C66.1484 265.406 66.3004 265.442 66.4724 265.442C66.6204 265.442 66.7564 265.416 66.8804 265.364C67.0084 265.312 67.1164 265.236 67.2044 265.136L67.6244 265.562C67.4844 265.726 67.3144 265.85 67.1144 265.934C66.9144 266.018 66.7024 266.06 66.4784 266.06ZM69.2875 266.06C69.1275 266.06 68.9735 266.04 68.8255 266C68.6775 265.956 68.5415 265.896 68.4175 265.82C68.2935 265.74 68.1855 265.644 68.0935 265.532L68.5135 265.112C68.6135 265.228 68.7275 265.316 68.8555 265.376C68.9875 265.432 69.1355 265.46 69.2995 265.46C69.4475 265.46 69.5595 265.438 69.6355 265.394C69.7115 265.35 69.7495 265.286 69.7495 265.202C69.7495 265.114 69.7135 265.046 69.6415 264.998C69.5695 264.95 69.4755 264.91 69.3595 264.878C69.2475 264.842 69.1275 264.806 68.9995 264.77C68.8755 264.734 68.7555 264.686 68.6395 264.626C68.5275 264.562 68.4355 264.476 68.3635 264.368C68.2915 264.26 68.2555 264.12 68.2555 263.948C68.2555 263.764 68.2975 263.606 68.3815 263.474C68.4695 263.342 68.5915 263.24 68.7475 263.168C68.9075 263.096 69.0975 263.06 69.3175 263.06C69.5495 263.06 69.7535 263.102 69.9295 263.186C70.1095 263.266 70.2595 263.388 70.3795 263.552L69.9595 263.972C69.8755 263.868 69.7795 263.79 69.6715 263.738C69.5635 263.686 69.4395 263.66 69.2995 263.66C69.1675 263.66 69.0655 263.68 68.9935 263.72C68.9215 263.76 68.8855 263.818 68.8855 263.894C68.8855 263.974 68.9215 264.036 68.9935 264.08C69.0655 264.124 69.1575 264.162 69.2695 264.194C69.3855 264.226 69.5055 264.262 69.6295 264.302C69.7575 264.338 69.8775 264.39 69.9895 264.458C70.1055 264.522 70.1995 264.61 70.2715 264.722C70.3435 264.83 70.3795 264.972 70.3795 265.148C70.3795 265.428 70.2815 265.65 70.0855 265.814C69.8895 265.978 69.6235 266.06 69.2875 266.06Z" fill="black" fill-opacity="0.3"/>
<rect x="39" y="278" width="122" height="19" rx="4" fill="#5B93FF"/>
<rect x="166.35" y="278.35" width="121.3" height="18.3" rx="3.65" stroke="#5B93FF" stroke-width="0.7"/>
<path d="M88.2873 290L86.5893 285.8H87.3393L88.6653 289.202H88.4013L89.7393 285.8H90.4773L88.7673 290H88.2873ZM91.747 290.06C91.459 290.06 91.199 289.996 90.967 289.868C90.739 289.736 90.557 289.556 90.421 289.328C90.289 289.1 90.223 288.844 90.223 288.56C90.223 288.276 90.289 288.022 90.421 287.798C90.553 287.57 90.731 287.39 90.955 287.258C91.183 287.126 91.435 287.06 91.711 287.06C91.979 287.06 92.215 287.122 92.419 287.246C92.627 287.37 92.789 287.54 92.905 287.756C93.025 287.972 93.085 288.218 93.085 288.494C93.085 288.542 93.081 288.592 93.073 288.644C93.069 288.692 93.061 288.746 93.049 288.806H90.685V288.266H92.707L92.461 288.482C92.453 288.306 92.419 288.158 92.359 288.038C92.299 287.918 92.213 287.826 92.101 287.762C91.993 287.698 91.859 287.666 91.699 287.666C91.531 287.666 91.385 287.702 91.261 287.774C91.137 287.846 91.041 287.948 90.973 288.08C90.905 288.208 90.871 288.362 90.871 288.542C90.871 288.722 90.907 288.88 90.979 289.016C91.051 289.152 91.153 289.258 91.285 289.334C91.417 289.406 91.569 289.442 91.741 289.442C91.889 289.442 92.025 289.416 92.149 289.364C92.277 289.312 92.385 289.236 92.473 289.136L92.893 289.562C92.753 289.726 92.583 289.85 92.383 289.934C92.183 290.018 91.971 290.06 91.747 290.06ZM93.614 290V287.12H94.274V290H93.614ZM94.274 288.398L94.046 288.284C94.046 287.92 94.126 287.626 94.286 287.402C94.45 287.174 94.696 287.06 95.024 287.06C95.168 287.06 95.298 287.086 95.414 287.138C95.53 287.19 95.638 287.274 95.738 287.39L95.306 287.834C95.254 287.778 95.196 287.738 95.132 287.714C95.068 287.69 94.994 287.678 94.91 287.678C94.726 287.678 94.574 287.736 94.454 287.852C94.334 287.968 94.274 288.15 94.274 288.398ZM98.906 290.06C98.686 290.06 98.49 290.014 98.318 289.922C98.146 289.826 98.01 289.696 97.91 289.532C97.814 289.368 97.766 289.182 97.766 288.974V288.146C97.766 287.938 97.816 287.752 97.916 287.588C98.016 287.424 98.152 287.296 98.324 287.204C98.496 287.108 98.69 287.06 98.906 287.06C99.166 287.06 99.4 287.128 99.608 287.264C99.82 287.396 99.986 287.576 100.106 287.804C100.23 288.028 100.292 288.282 100.292 288.566C100.292 288.846 100.23 289.1 100.106 289.328C99.986 289.552 99.82 289.73 99.608 289.862C99.4 289.994 99.166 290.06 98.906 290.06ZM98.798 289.436C98.958 289.436 99.098 289.4 99.218 289.328C99.342 289.252 99.438 289.148 99.506 289.016C99.578 288.884 99.614 288.732 99.614 288.56C99.614 288.388 99.578 288.236 99.506 288.104C99.438 287.972 99.342 287.87 99.218 287.798C99.098 287.722 98.958 287.684 98.798 287.684C98.638 287.684 98.496 287.722 98.372 287.798C98.248 287.87 98.152 287.972 98.084 288.104C98.016 288.236 97.982 288.388 97.982 288.56C97.982 288.732 98.016 288.884 98.084 289.016C98.152 289.148 98.248 289.252 98.372 289.328C98.496 289.4 98.638 289.436 98.798 289.436ZM97.364 291.2V287.12H98.024V287.894L97.91 288.596L98.024 289.292V291.2H97.364ZM100.845 290V287.12H101.505V290H100.845ZM101.505 288.398L101.277 288.284C101.277 287.92 101.357 287.626 101.517 287.402C101.681 287.174 101.927 287.06 102.255 287.06C102.399 287.06 102.529 287.086 102.645 287.138C102.761 287.19 102.869 287.274 102.969 287.39L102.537 287.834C102.485 287.778 102.427 287.738 102.363 287.714C102.299 287.69 102.225 287.678 102.141 287.678C101.957 287.678 101.805 287.736 101.685 287.852C101.565 287.968 101.505 288.15 101.505 288.398ZM104.52 290.06C104.24 290.06 103.986 289.994 103.758 289.862C103.53 289.726 103.348 289.544 103.212 289.316C103.08 289.088 103.014 288.834 103.014 288.554C103.014 288.274 103.08 288.022 103.212 287.798C103.348 287.574 103.53 287.396 103.758 287.264C103.986 287.128 104.24 287.06 104.52 287.06C104.804 287.06 105.06 287.126 105.288 287.258C105.516 287.39 105.696 287.57 105.828 287.798C105.964 288.022 106.032 288.274 106.032 288.554C106.032 288.834 105.964 289.088 105.828 289.316C105.696 289.544 105.516 289.726 105.288 289.862C105.06 289.994 104.804 290.06 104.52 290.06ZM104.52 289.424C104.684 289.424 104.828 289.388 104.952 289.316C105.08 289.24 105.178 289.136 105.246 289.004C105.318 288.872 105.354 288.722 105.354 288.554C105.354 288.386 105.318 288.238 105.246 288.11C105.174 287.982 105.076 287.882 104.952 287.81C104.828 287.734 104.684 287.696 104.52 287.696C104.36 287.696 104.216 287.734 104.088 287.81C103.964 287.882 103.866 287.982 103.794 288.11C103.726 288.238 103.692 288.386 103.692 288.554C103.692 288.722 103.726 288.872 103.794 289.004C103.866 289.136 103.964 289.24 104.088 289.316C104.216 289.388 104.36 289.424 104.52 289.424ZM107.453 290L106.139 287.12H106.871L107.873 289.466H107.441L108.449 287.12H109.151L107.837 290H107.453ZM110.646 290.06C110.386 290.06 110.15 289.994 109.938 289.862C109.73 289.73 109.564 289.552 109.44 289.328C109.32 289.1 109.26 288.846 109.26 288.566C109.26 288.282 109.32 288.028 109.44 287.804C109.564 287.576 109.73 287.396 109.938 287.264C110.15 287.128 110.386 287.06 110.646 287.06C110.866 287.06 111.06 287.108 111.228 287.204C111.4 287.296 111.536 287.424 111.636 287.588C111.736 287.752 111.786 287.938 111.786 288.146V288.974C111.786 289.182 111.736 289.368 111.636 289.532C111.54 289.696 111.406 289.826 111.234 289.922C111.062 290.014 110.866 290.06 110.646 290.06ZM110.754 289.436C110.998 289.436 111.194 289.354 111.342 289.19C111.494 289.026 111.57 288.816 111.57 288.56C111.57 288.388 111.536 288.236 111.468 288.104C111.4 287.972 111.304 287.87 111.18 287.798C111.06 287.722 110.918 287.684 110.754 287.684C110.594 287.684 110.452 287.722 110.328 287.798C110.208 287.87 110.112 287.972 110.04 288.104C109.972 288.236 109.938 288.388 109.938 288.56C109.938 288.732 109.972 288.884 110.04 289.016C110.112 289.148 110.208 289.252 110.328 289.328C110.452 289.4 110.594 289.436 110.754 289.436ZM111.528 290V289.226L111.642 288.524L111.528 287.828V287.12H112.188V290H111.528Z" fill="white"/>
<path d="M211.911 290L210.213 285.8H210.963L212.289 289.202H212.025L213.363 285.8H214.101L212.391 290H211.911ZM215.371 290.06C215.083 290.06 214.823 289.996 214.591 289.868C214.363 289.736 214.181 289.556 214.045 289.328C213.913 289.1 213.847 288.844 213.847 288.56C213.847 288.276 213.913 288.022 214.045 287.798C214.177 287.57 214.355 287.39 214.579 287.258C214.807 287.126 215.059 287.06 215.335 287.06C215.603 287.06 215.839 287.122 216.043 287.246C216.251 287.37 216.413 287.54 216.529 287.756C216.649 287.972 216.709 288.218 216.709 288.494C216.709 288.542 216.705 288.592 216.697 288.644C216.693 288.692 216.685 288.746 216.673 288.806H214.309V288.266H216.331L216.085 288.482C216.077 288.306 216.043 288.158 215.983 288.038C215.923 287.918 215.837 287.826 215.725 287.762C215.617 287.698 215.483 287.666 215.323 287.666C215.155 287.666 215.009 287.702 214.885 287.774C214.761 287.846 214.665 287.948 214.597 288.08C214.529 288.208 214.495 288.362 214.495 288.542C214.495 288.722 214.531 288.88 214.603 289.016C214.675 289.152 214.777 289.258 214.909 289.334C215.041 289.406 215.193 289.442 215.365 289.442C215.513 289.442 215.649 289.416 215.773 289.364C215.901 289.312 216.009 289.236 216.097 289.136L216.517 289.562C216.377 289.726 216.207 289.85 216.007 289.934C215.807 290.018 215.595 290.06 215.371 290.06ZM217.238 290V287.12H217.898V290H217.238ZM217.898 288.398L217.67 288.284C217.67 287.92 217.75 287.626 217.91 287.402C218.074 287.174 218.32 287.06 218.648 287.06C218.792 287.06 218.922 287.086 219.038 287.138C219.154 287.19 219.262 287.274 219.362 287.39L218.93 287.834C218.878 287.778 218.82 287.738 218.756 287.714C218.692 287.69 218.618 287.678 218.534 287.678C218.35 287.678 218.198 287.736 218.078 287.852C217.958 287.968 217.898 288.15 217.898 288.398ZM222.188 291.26C221.884 291.26 221.618 291.204 221.39 291.092C221.162 290.984 220.978 290.83 220.838 290.63L221.27 290.198C221.386 290.342 221.518 290.45 221.666 290.522C221.814 290.594 221.992 290.63 222.2 290.63C222.46 290.63 222.666 290.562 222.818 290.426C222.97 290.294 223.046 290.112 223.046 289.88V289.172L223.16 288.536L223.046 287.894V287.12H223.706V289.88C223.706 290.156 223.642 290.396 223.514 290.6C223.386 290.808 223.208 290.97 222.98 291.086C222.752 291.202 222.488 291.26 222.188 291.26ZM222.158 289.94C221.902 289.94 221.67 289.878 221.462 289.754C221.258 289.626 221.096 289.452 220.976 289.232C220.86 289.012 220.802 288.766 220.802 288.494C220.802 288.222 220.86 287.978 220.976 287.762C221.096 287.546 221.258 287.376 221.462 287.252C221.67 287.124 221.902 287.06 222.158 287.06C222.386 287.06 222.586 287.106 222.758 287.198C222.93 287.29 223.064 287.418 223.16 287.582C223.256 287.742 223.304 287.93 223.304 288.146V288.854C223.304 289.066 223.254 289.254 223.154 289.418C223.058 289.582 222.924 289.71 222.752 289.802C222.58 289.894 222.382 289.94 222.158 289.94ZM222.29 289.316C222.45 289.316 222.59 289.282 222.71 289.214C222.83 289.146 222.922 289.052 222.986 288.932C223.054 288.808 223.088 288.664 223.088 288.5C223.088 288.336 223.054 288.194 222.986 288.074C222.922 287.95 222.83 287.854 222.71 287.786C222.59 287.718 222.45 287.684 222.29 287.684C222.13 287.684 221.988 287.718 221.864 287.786C221.744 287.854 221.65 287.95 221.582 288.074C221.514 288.194 221.48 288.336 221.48 288.5C221.48 288.66 221.514 288.802 221.582 288.926C221.65 289.05 221.744 289.146 221.864 289.214C221.988 289.282 222.13 289.316 222.29 289.316ZM225.645 290.06C225.385 290.06 225.149 289.994 224.937 289.862C224.729 289.73 224.563 289.552 224.439 289.328C224.319 289.1 224.259 288.846 224.259 288.566C224.259 288.282 224.319 288.028 224.439 287.804C224.563 287.576 224.729 287.396 224.937 287.264C225.149 287.128 225.385 287.06 225.645 287.06C225.865 287.06 226.059 287.108 226.227 287.204C226.399 287.296 226.535 287.424 226.635 287.588C226.735 287.752 226.785 287.938 226.785 288.146V288.974C226.785 289.182 226.735 289.368 226.635 289.532C226.539 289.696 226.405 289.826 226.233 289.922C226.061 290.014 225.865 290.06 225.645 290.06ZM225.753 289.436C225.997 289.436 226.193 289.354 226.341 289.19C226.493 289.026 226.569 288.816 226.569 288.56C226.569 288.388 226.535 288.236 226.467 288.104C226.399 287.972 226.303 287.87 226.179 287.798C226.059 287.722 225.917 287.684 225.753 287.684C225.593 287.684 225.451 287.722 225.327 287.798C225.207 287.87 225.111 287.972 225.039 288.104C224.971 288.236 224.937 288.388 224.937 288.56C224.937 288.732 224.971 288.884 225.039 289.016C225.111 289.148 225.207 289.252 225.327 289.328C225.451 289.4 225.593 289.436 225.753 289.436ZM226.527 290V289.226L226.641 288.524L226.527 287.828V287.12H227.187V290H226.527ZM229.462 290.06C229.242 290.06 229.046 290.014 228.874 289.922C228.702 289.826 228.566 289.696 228.466 289.532C228.37 289.368 228.322 289.182 228.322 288.974V288.146C228.322 287.938 228.372 287.752 228.472 287.588C228.572 287.424 228.708 287.296 228.88 287.204C229.052 287.108 229.246 287.06 229.462 287.06C229.722 287.06 229.956 287.128 230.164 287.264C230.376 287.396 230.542 287.576 230.662 287.804C230.786 288.028 230.848 288.282 230.848 288.566C230.848 288.846 230.786 289.1 230.662 289.328C230.542 289.552 230.376 289.73 230.164 289.862C229.956 289.994 229.722 290.06 229.462 290.06ZM229.354 289.436C229.514 289.436 229.654 289.4 229.774 289.328C229.898 289.252 229.994 289.148 230.062 289.016C230.134 288.884 230.17 288.732 230.17 288.56C230.17 288.388 230.134 288.236 230.062 288.104C229.994 287.972 229.898 287.87 229.774 287.798C229.654 287.722 229.514 287.684 229.354 287.684C229.194 287.684 229.052 287.722 228.928 287.798C228.804 287.87 228.708 287.972 228.64 288.104C228.572 288.236 228.538 288.388 228.538 288.56C228.538 288.732 228.572 288.884 228.64 289.016C228.708 289.148 228.804 289.252 228.928 289.328C229.052 289.4 229.194 289.436 229.354 289.436ZM227.92 290V285.68H228.58V287.828L228.466 288.524L228.58 289.226V290H227.92ZM232.606 290.06C232.346 290.06 232.11 289.994 231.898 289.862C231.69 289.73 231.524 289.552 231.4 289.328C231.28 289.1 231.22 288.846 231.22 288.566C231.22 288.282 231.28 288.028 231.4 287.804C231.524 287.576 231.69 287.396 231.898 287.264C232.11 287.128 232.346 287.06 232.606 287.06C232.826 287.06 233.02 287.108 233.188 287.204C233.36 287.296 233.496 287.424 233.596 287.588C233.696 287.752 233.746 287.938 233.746 288.146V288.974C233.746 289.182 233.696 289.368 233.596 289.532C233.5 289.696 233.366 289.826 233.194 289.922C233.022 290.014 232.826 290.06 232.606 290.06ZM232.714 289.436C232.958 289.436 233.154 289.354 233.302 289.19C233.454 289.026 233.53 288.816 233.53 288.56C233.53 288.388 233.496 288.236 233.428 288.104C233.36 287.972 233.264 287.87 233.14 287.798C233.02 287.722 232.878 287.684 232.714 287.684C232.554 287.684 232.412 287.722 232.288 287.798C232.168 287.87 232.072 287.972 232 288.104C231.932 288.236 231.898 288.388 231.898 288.56C231.898 288.732 231.932 288.884 232 289.016C232.072 289.148 232.168 289.252 232.288 289.328C232.412 289.4 232.554 289.436 232.714 289.436ZM233.488 290V289.226L233.602 288.524L233.488 287.828V287.12H234.148V290H233.488ZM234.881 290V287.12H235.541V290H234.881ZM235.541 288.398L235.313 288.284C235.313 287.92 235.393 287.626 235.553 287.402C235.717 287.174 235.963 287.06 236.291 287.06C236.435 287.06 236.565 287.086 236.681 287.138C236.797 287.19 236.905 287.274 237.005 287.39L236.573 287.834C236.521 287.778 236.463 287.738 236.399 287.714C236.335 287.69 236.261 287.678 236.177 287.678C235.993 287.678 235.841 287.736 235.721 287.852C235.601 287.968 235.541 288.15 235.541 288.398ZM237.33 290V287.12H237.99V290H237.33ZM237.66 286.592C237.548 286.592 237.454 286.554 237.378 286.478C237.306 286.402 237.27 286.308 237.27 286.196C237.27 286.084 237.306 285.99 237.378 285.914C237.454 285.838 237.548 285.8 237.66 285.8C237.776 285.8 237.87 285.838 237.942 285.914C238.014 285.99 238.05 286.084 238.05 286.196C238.05 286.308 238.014 286.402 237.942 286.478C237.87 286.554 237.776 286.592 237.66 286.592ZM239.168 290V285.92H239.828V290H239.168ZM238.478 287.72V287.12H240.518V287.72H238.478ZM242.236 290.06C241.956 290.06 241.702 289.994 241.474 289.862C241.246 289.726 241.064 289.544 240.928 289.316C240.796 289.088 240.73 288.834 240.73 288.554C240.73 288.274 240.796 288.022 240.928 287.798C241.064 287.574 241.246 287.396 241.474 287.264C241.702 287.128 241.956 287.06 242.236 287.06C242.52 287.06 242.776 287.126 243.004 287.258C243.232 287.39 243.412 287.57 243.544 287.798C243.68 288.022 243.748 288.274 243.748 288.554C243.748 288.834 243.68 289.088 243.544 289.316C243.412 289.544 243.232 289.726 243.004 289.862C242.776 289.994 242.52 290.06 242.236 290.06ZM242.236 289.424C242.4 289.424 242.544 289.388 242.668 289.316C242.796 289.24 242.894 289.136 242.962 289.004C243.034 288.872 243.07 288.722 243.07 288.554C243.07 288.386 243.034 288.238 242.962 288.11C242.89 287.982 242.792 287.882 242.668 287.81C242.544 287.734 242.4 287.696 242.236 287.696C242.076 287.696 241.932 287.734 241.804 287.81C241.68 287.882 241.582 287.982 241.51 288.11C241.442 288.238 241.408 288.386 241.408 288.554C241.408 288.722 241.442 288.872 241.51 289.004C241.582 289.136 241.68 289.24 241.804 289.316C241.932 289.388 242.076 289.424 242.236 289.424Z" fill="black"/>
</svg>
