<svg width="1275" height="353" viewBox="0 0 1275 353" fill="none" xmlns="http://www.w3.org/2000/svg">
<path d="M72.85 260.645C61.4133 260.645 51.0733 258.687 41.83 254.77C32.7433 250.853 25.5367 245.213 20.21 237.85C14.8833 230.487 12.1417 221.792 11.985 211.765H47.235C47.705 218.502 50.055 223.828 54.285 227.745C58.6717 231.662 64.625 233.62 72.145 233.62C79.8217 233.62 85.8533 231.818 90.24 228.215C94.6267 224.455 96.82 219.598 96.82 213.645C96.82 208.788 95.3317 204.793 92.355 201.66C89.3783 198.527 85.6183 196.098 81.075 194.375C76.6883 192.495 70.5783 190.458 62.745 188.265C52.0917 185.132 43.3967 182.077 36.66 179.1C30.08 175.967 24.3617 171.345 19.505 165.235C14.805 158.968 12.455 150.665 12.455 140.325C12.455 130.612 14.8833 122.152 19.74 114.945C24.5967 107.738 31.4117 102.255 40.185 98.495C48.9583 94.5783 58.985 92.62 70.265 92.62C87.185 92.62 100.893 96.7717 111.39 105.075C122.043 113.222 127.918 124.658 129.015 139.385H92.825C92.5117 133.745 90.0833 129.123 85.54 125.52C81.1533 121.76 75.2783 119.88 67.915 119.88C61.4917 119.88 56.3217 121.525 52.405 124.815C48.645 128.105 46.765 132.883 46.765 139.15C46.765 143.537 48.175 147.218 50.995 150.195C53.9717 153.015 57.575 155.365 61.805 157.245C66.1917 158.968 72.3017 161.005 80.135 163.355C90.7883 166.488 99.4833 169.622 106.22 172.755C112.957 175.888 118.753 180.588 123.61 186.855C128.467 193.122 130.895 201.347 130.895 211.53C130.895 220.303 128.623 228.45 124.08 235.97C119.537 243.49 112.878 249.522 104.105 254.065C95.3317 258.452 84.9133 260.645 72.85 260.645ZM271.043 94.97V121.525H227.333V259H194.433V121.525H150.723V94.97H271.043ZM327.478 94.97V196.49C327.478 207.613 330.376 216.152 336.173 222.105C341.97 227.902 350.116 230.8 360.613 230.8C371.266 230.8 379.491 227.902 385.288 222.105C391.085 216.152 393.983 207.613 393.983 196.49V94.97H427.118V196.255C427.118 210.198 424.063 222.027 417.953 231.74C412 241.297 403.931 248.503 393.748 253.36C383.721 258.217 372.52 260.645 360.143 260.645C347.923 260.645 336.8 258.217 326.773 253.36C316.903 248.503 309.07 241.297 303.273 231.74C297.476 222.027 294.578 210.198 294.578 196.255V94.97H327.478ZM516.245 94.97C533.479 94.97 548.597 98.3383 561.6 105.075C574.76 111.812 584.865 121.447 591.915 133.98C599.122 146.357 602.725 160.77 602.725 177.22C602.725 193.67 599.122 208.083 591.915 220.46C584.865 232.68 574.76 242.158 561.6 248.895C548.597 255.632 533.479 259 516.245 259H458.905V94.97H516.245ZM515.07 231.035C532.304 231.035 545.62 226.335 555.02 216.935C564.42 207.535 569.12 194.297 569.12 177.22C569.12 160.143 564.42 146.827 555.02 137.27C545.62 127.557 532.304 122.7 515.07 122.7H491.805V231.035H515.07ZM757.778 94.97L702.318 201.895V259H669.418V201.895L613.723 94.97H650.853L686.103 169.935L721.118 94.97H757.778ZM888.377 94.97V121.525H844.667V259H811.767V121.525H768.057V94.97H888.377ZM945.282 121.525V162.65H1000.51V188.735H945.282V232.21H1007.56V259H912.382V94.735H1007.56V121.525H945.282ZM1029.47 176.75C1029.47 160.613 1033.07 146.2 1040.28 133.51C1047.64 120.663 1057.59 110.715 1070.12 103.665C1082.81 96.4583 1096.99 92.855 1112.66 92.855C1130.99 92.855 1147.04 97.555 1160.83 106.955C1174.62 116.355 1184.25 129.358 1189.74 145.965H1151.9C1148.14 138.132 1142.81 132.257 1135.92 128.34C1129.18 124.423 1121.35 122.465 1112.42 122.465C1102.86 122.465 1094.33 124.737 1086.81 129.28C1079.44 133.667 1073.65 139.933 1069.42 148.08C1065.34 156.227 1063.31 165.783 1063.31 176.75C1063.31 187.56 1065.34 197.117 1069.42 205.42C1073.65 213.567 1079.44 219.912 1086.81 224.455C1094.33 228.842 1102.86 231.035 1112.42 231.035C1121.35 231.035 1129.18 229.077 1135.92 225.16C1142.81 221.087 1148.14 215.133 1151.9 207.3H1189.74C1184.25 224.063 1174.62 237.145 1160.83 246.545C1147.2 255.788 1131.14 260.41 1112.66 260.41C1096.99 260.41 1082.81 256.885 1070.12 249.835C1057.59 242.628 1047.64 232.68 1040.28 219.99C1033.07 207.3 1029.47 192.887 1029.47 176.75Z" fill="white"/>
<path d="M1202.43 61.4116C1194.07 74.4188 1174.83 81.305 1163.44 81.9636C1161.58 82.071 1160.65 80.0981 1161.74 78.625L1207.09 17.0389C1208.27 15.4408 1210.79 15.8194 1211.28 17.7121C1214.99 32.0548 1213.17 44.7138 1202.43 61.4116Z" fill="white"/>
<path d="M1231.43 113.51C1220.68 120.477 1205.28 117.559 1197.3 112.963C1195.83 112.119 1196 109.837 1197.47 109.017L1252.09 78.6981C1253.74 77.7842 1255.54 79.4808 1255.02 81.52C1251.61 94.9502 1245.2 104.58 1231.43 113.51Z" fill="white"/>
<path d="M1245.45 156.711C1233.61 157.919 1223.69 152.8 1216.74 146.639C1215.08 145.165 1216.01 142.444 1218.17 142.246L1272.17 137.288C1273.91 137.129 1275.27 138.829 1274.5 140.496C1270.55 149 1259.28 155.298 1245.45 156.711Z" fill="white"/>
<path d="M680.401 181.741L669.739 203.654L606.436 86.7846L649.268 85.9872L687.897 166.298L680.401 181.741Z" fill="white" stroke="white" stroke-width="0.1"/>
</svg>
